<svg xmlns="http://www.w3.org/2000/svg" width="779" height="424" viewBox="0 0 779 424">
<g>
<path d="M 550.86 333.95 C540.86,330.57 532.41,321.97 528.90,311.61 C527.69,308.06 527.14,303.26 527.21,298.37 C527.37,299.35 527.66,300.00 528.00,300.00 C529.19,300.00 529.19,297.28 528.00,294.50 C527.77,293.96 527.60,293.65 527.46,293.57 C527.53,292.83 527.62,292.11 527.71,291.39 C527.89,291.49 528.26,291.25 528.85,290.79 C532.45,287.98 534.81,284.60 534.45,282.76 C534.21,281.49 534.53,280.99 535.37,281.31 C536.08,281.59 536.67,281.22 536.67,280.50 C536.67,279.75 536.03,279.44 535.17,279.77 C534.24,280.12 533.93,279.92 534.35,279.24 C534.73,278.63 534.46,277.81 533.77,277.41 C533.07,277.01 532.82,277.03 533.21,277.46 C533.60,277.90 532.92,279.12 531.71,280.18 C531.13,280.69 530.71,281.06 530.45,281.31 C532.02,278.02 534.26,274.78 536.87,271.87 C536.27,272.72 536.05,273.38 536.37,273.71 C536.78,274.12 538.56,272.82 540.31,270.82 C542.06,268.82 544.80,266.37 546.40,265.38 L 549.30 263.57 L 548.03 266.04 C546.27,269.44 541.89,274.00 540.37,274.00 C539.68,274.00 538.80,274.52 538.40,275.15 C537.20,277.11 537.11,281.00 538.28,281.00 C538.89,281.00 538.51,281.71 537.44,282.57 C536.37,283.44 535.95,283.93 536.50,283.67 C537.14,283.36 537.38,286.27 537.17,291.74 C536.89,299.16 537.03,300.11 538.27,298.87 C539.15,297.99 539.92,294.39 540.27,289.60 C540.36,288.35 540.49,287.12 540.64,285.99 C540.46,288.02 540.34,290.62 540.29,293.80 C540.17,299.91 540.50,304.97 541.42,309.33 C541.19,309.12 540.91,309.00 540.61,309.00 C538.79,309.00 540.00,314.79 542.64,318.75 C547.83,326.52 550.67,329.99 552.26,330.54 C553.23,330.87 553.77,331.56 553.46,332.06 C553.15,332.56 553.63,332.69 554.53,332.35 C555.84,331.85 555.90,331.55 554.83,330.88 C554.10,330.41 553.84,330.02 554.25,330.02 C554.67,330.01 553.13,328.31 550.85,326.25 C550.29,325.75 549.72,325.16 549.16,324.51 C550.90,326.39 552.94,328.18 555.30,329.97 C559.07,332.82 567.50,332.95 572.59,330.22 C573.42,329.78 574.33,329.10 575.28,328.25 C574.52,329.11 574.00,329.87 574.00,330.17 C574.00,330.63 574.42,331.00 574.93,331.00 C576.42,331.00 579.00,328.00 579.00,326.25 C579.00,325.15 578.61,325.12 577.21,326.35 C580.32,323.02 583.39,318.44 584.61,314.92 C586.10,310.66 586.48,306.82 586.42,297.00 C586.35,285.73 586.08,283.95 583.73,278.85 C580.48,271.83 575.60,266.41 570.49,263.78 C573.74,265.29 576.79,268.01 579.86,272.01 C581.75,274.48 583.71,276.38 584.22,276.23 C584.73,276.07 584.89,276.37 584.57,276.88 C584.26,277.40 584.37,278.83 584.83,280.07 C585.53,281.97 585.76,282.06 586.30,280.66 C586.66,279.71 586.45,279.00 585.80,279.00 C585.18,279.00 584.93,278.74 585.25,278.42 C585.57,278.10 586.95,278.58 588.33,279.48 C590.70,281.03 590.82,281.02 590.50,279.31 C590.31,278.32 590.12,276.69 590.08,275.69 C590.03,274.68 589.53,274.17 588.93,274.54 C588.35,274.90 587.24,274.37 586.47,273.35 C584.85,271.22 584.53,268.59 585.99,269.50 C586.54,269.83 587.77,269.67 588.72,269.14 C589.17,268.89 589.48,268.69 589.63,268.50 C590.66,269.57 591.73,270.97 592.76,272.55 C591.55,271.15 590.37,270.00 589.95,270.00 C588.22,270.00 588.97,272.67 591.45,275.35 C593.33,277.37 595.16,278.40 595.78,277.92 C597.21,280.91 598.30,283.99 598.64,286.50 C599.58,293.31 599.05,303.24 597.43,309.00 C595.33,316.46 588.97,325.56 582.67,330.13 C574.67,335.92 561.38,337.51 550.86,333.95 ZM 721.56 334.55 C714.34,331.90 712.54,329.90 712.20,324.15 C712.01,321.02 712.31,319.00 712.95,319.00 C713.53,319.00 714.00,319.56 714.00,320.25 C714.01,322.35 720.77,329.01 724.46,330.55 C731.42,333.46 738.63,331.83 742.91,326.39 C744.46,324.42 745.00,322.29 745.00,318.21 C745.00,313.12 744.70,312.41 741.21,309.08 C739.77,307.72 737.02,305.63 734.18,303.72 C736.56,305.14 738.82,306.52 739.86,307.18 C744.16,309.91 744.39,309.24 740.43,305.50 C738.39,303.58 736.16,302.00 735.48,302.00 C734.80,302.00 733.66,301.29 732.94,300.43 C732.22,299.56 730.03,298.03 728.07,297.02 C726.11,296.02 722.81,293.50 720.75,291.43 C718.34,289.01 717.00,288.22 717.00,289.21 C717.00,289.24 717.00,289.27 717.01,289.31 C714.57,285.29 713.73,280.95 714.40,276.13 C715.04,271.45 717.07,267.60 720.42,264.66 C719.69,265.51 720.06,266.00 721.61,266.00 C722.86,266.00 723.07,266.60 722.53,268.73 C721.75,271.86 721.72,272.06 721.88,273.75 C722.14,276.44 724.00,274.82 724.00,271.90 C724.00,271.28 724.10,270.66 724.28,270.05 C724.06,271.05 724.00,272.29 724.00,274.06 C724.00,278.84 724.34,279.63 727.79,282.90 C729.87,284.88 733.47,287.40 735.78,288.50 C736.57,288.88 737.31,289.27 737.95,289.64 C736.17,288.71 733.81,287.86 733.42,288.25 C732.68,288.99 744.69,297.90 748.25,299.27 C749.21,299.64 750.00,300.64 750.00,301.50 C750.00,302.36 750.65,304.62 751.45,306.53 C752.56,309.18 754.30,310.74 754.84,309.87 C755.48,314.79 754.35,319.97 751.38,326.25 C751.04,326.05 749.95,326.38 748.14,327.28 L 745.16 328.76 L 746.19 321.50 L 744.09 324.77 C742.94,326.57 742.00,328.45 742.00,328.94 C742.00,329.43 741.44,330.06 740.75,330.34 C740.06,330.62 739.97,330.88 740.55,330.92 C741.13,330.96 742.12,330.48 742.76,329.84 C743.63,328.97 744.30,329.00 745.49,329.99 C746.50,330.83 747.11,330.93 748.27,330.06 C747.01,331.14 745.52,332.21 744.14,333.01 C744.34,332.62 744.52,332.09 744.61,331.47 C744.73,330.65 744.41,330.24 743.91,330.55 C743.41,330.86 743.00,331.84 743.00,332.73 C743.00,333.12 743.06,333.39 743.15,333.55 C742.26,334.00 741.45,334.30 740.86,334.36 C739.52,334.51 737.98,334.84 737.46,335.11 C735.23,336.24 725.20,335.88 721.56,334.55 ZM 493.36 274.01 C494.07,275.07 494.85,276.26 495.72,277.61 C496.79,279.25 496.88,279.05 496.43,276.08 C496.15,274.21 495.71,272.34 495.47,271.95 C495.22,271.55 495.65,270.70 496.42,270.06 C497.51,269.16 498.67,269.35 501.60,270.93 C503.68,272.04 505.57,272.77 505.79,272.54 C505.84,272.49 505.89,272.43 505.92,272.37 C506.78,273.52 507.54,274.72 508.16,275.98 C509.65,278.96 510.65,281.76 510.38,282.20 C510.10,282.64 510.24,283.56 510.68,284.25 C511.11,284.94 511.52,285.73 511.57,286.00 C511.63,286.27 512.04,287.33 512.48,288.34 C512.92,289.35 513.02,293.91 512.70,298.47 C511.98,308.61 507.89,318.18 502.22,322.96 C497.19,327.20 493.89,329.91 491.59,331.60 C491.45,331.33 491.03,331.00 490.33,330.49 C488.60,329.21 488.67,328.97 491.64,325.82 C497.54,319.58 501.01,311.00 500.88,303.00 L 500.79 297.50 L 499.90 302.00 C499.42,304.46 498.98,306.60 498.56,308.49 C499.10,305.08 499.35,301.27 499.32,297.00 C499.26,287.44 498.97,285.88 496.11,279.57 C495.16,277.48 494.26,275.64 493.36,274.01 ZM 464.40 334.58 C450.92,330.36 441.40,317.55 439.90,302.99 C440.66,304.13 442.08,304.49 441.88,303.25 C441.39,300.14 442.15,297.84 443.50,298.36 C444.51,298.75 445.00,298.32 445.00,297.05 C445.00,296.02 445.51,295.00 446.13,294.79 C446.85,294.55 446.99,293.54 446.51,292.02 C445.78,289.72 445.69,289.70 444.37,291.50 C443.11,293.23 443.00,293.10 443.02,289.94 C443.05,286.06 446.10,278.64 448.15,277.48 C449.23,276.86 449.25,276.97 448.26,278.04 C447.28,279.10 447.31,279.69 448.43,280.94 C449.21,281.80 450.07,285.20 450.35,288.50 C450.63,291.80 450.90,294.73 450.95,295.00 C451.17,296.34 452.25,293.79 452.74,291.36 C452.09,298.91 453.01,307.32 455.48,314.00 C458.67,322.62 463.02,328.67 467.43,330.59 C469.12,331.32 473.00,331.94 476.05,331.96 C480.53,331.99 482.51,331.43 486.25,329.05 C487.02,328.57 487.75,328.05 488.45,327.51 C486.34,329.59 485.75,330.62 486.83,330.33 C487.90,330.05 489.07,330.31 489.44,330.90 C489.85,331.57 489.51,331.75 488.54,331.38 C487.41,330.94 487.15,331.22 487.59,332.37 C487.89,333.15 488.22,333.49 488.80,333.43 C487.91,333.91 487.26,334.11 486.69,334.15 C482.55,334.44 482.14,334.53 481.40,335.26 C480.77,335.90 477.17,336.06 473.29,335.85 C474.28,335.61 475.12,335.12 475.40,334.40 C475.76,333.45 476.65,333.04 477.56,333.38 C478.41,333.71 478.85,333.56 478.53,333.05 C478.22,332.54 476.73,332.27 475.23,332.45 C473.73,332.63 471.71,332.82 470.75,332.89 C469.79,332.95 469.00,333.67 469.00,334.50 C469.00,334.95 469.26,335.30 469.68,335.55 C467.61,335.32 465.71,334.99 464.40,334.58 ZM 264.45 335.56 C262.22,334.83 258.50,333.28 256.20,332.10 L 252.00 329.96 L 252.00 323.86 C252.00,318.55 252.19,317.92 253.50,319.00 C254.32,319.68 255.00,320.77 255.00,321.40 C255.00,323.85 262.05,329.76 266.44,330.98 C272.45,332.67 277.40,331.58 281.72,327.62 C284.95,324.66 285.28,323.86 285.35,318.75 C285.44,312.59 284.91,311.20 275.42,304.83 C275.49,304.81 275.58,304.75 275.67,304.66 C276.04,304.30 277.24,304.78 278.34,305.75 C279.44,306.71 280.00,306.91 279.57,306.18 C279.10,305.38 279.51,304.33 280.65,303.47 C281.83,302.57 282.03,302.05 281.19,302.03 C280.47,302.01 280.13,301.60 280.44,301.10 C281.42,299.51 277.76,298.91 276.11,300.40 C274.18,302.13 272.28,301.26 266.68,296.09 C262.72,292.42 262.40,290.77 266.16,293.40 C269.07,295.44 273.00,295.50 273.00,293.50 C273.00,292.67 272.60,292.00 272.11,292.00 C271.62,292.00 270.96,291.34 270.65,290.54 C270.19,289.34 270.52,289.28 272.52,290.19 C273.85,290.80 274.65,291.79 274.31,292.40 C273.96,293.00 274.02,293.20 274.43,292.83 C276.74,290.76 291.90,302.29 292.12,306.29 C292.18,307.51 292.25,311.56 292.26,315.31 C292.27,321.69 292.06,322.34 288.94,325.56 C287.11,327.45 285.98,329.00 286.43,329.00 C286.88,329.00 286.68,329.67 286.00,330.50 C284.89,331.84 285.03,332.23 285.78,331.94 C284.88,332.48 283.92,332.97 282.88,333.41 C279.53,334.81 276.52,335.72 273.75,336.15 C273.84,336.10 273.92,336.05 274.00,336.00 C275.10,335.29 274.34,335.03 271.19,335.02 C268.57,335.01 267.12,335.39 267.50,336.00 C267.57,336.11 267.65,336.21 267.76,336.30 C266.62,336.15 265.52,335.91 264.45,335.56 ZM 694.18 332.92 C694.73,333.79 695.34,334.41 695.95,334.73 C694.32,334.84 692.00,334.83 689.00,334.70 C682.18,334.41 681.54,334.21 681.92,332.44 C681.95,332.29 681.98,332.15 682.01,332.01 C682.06,333.07 682.44,332.94 684.46,331.62 C687.28,329.77 688.40,329.55 687.50,331.00 C686.49,332.63 687.64,332.14 689.13,330.31 C689.91,329.34 689.99,328.92 689.32,329.32 C688.67,329.71 687.86,329.58 687.51,329.02 C687.16,328.46 687.25,328.00 687.69,328.00 C688.14,328.00 688.50,326.92 688.50,325.60 C688.50,324.27 688.16,323.40 687.75,323.65 C687.34,323.91 687.00,323.44 687.00,322.62 C687.00,321.79 687.47,320.83 688.05,320.47 C688.77,320.03 688.73,319.38 687.93,318.41 C687.28,317.63 687.06,317.00 687.44,317.00 C687.81,317.00 687.80,316.48 687.41,315.85 C686.91,315.05 686.28,315.26 685.35,316.54 C684.08,318.27 683.99,318.24 683.90,315.94 L 683.80 313.50 L 683.00 316.00 C682.63,317.15 682.38,318.64 682.24,320.12 C682.13,316.16 681.93,310.70 681.66,303.01 C682.06,305.28 682.66,307.00 683.09,307.00 C684.33,307.00 684.25,301.27 683.00,300.50 C682.45,300.16 682.00,298.93 682.00,297.77 C682.00,296.63 681.73,295.95 681.41,296.26 C680.95,285.05 680.50,279.31 679.53,277.76 C680.36,278.26 681.02,279.73 681.19,281.87 C681.32,283.67 681.90,285.41 682.47,285.74 C683.04,286.06 683.17,285.95 682.76,285.50 C682.35,285.05 682.58,283.99 683.26,283.15 C684.29,281.88 684.24,281.76 683.00,282.45 C681.80,283.12 681.74,283.03 682.71,281.99 C683.70,280.92 684.24,280.94 685.71,282.09 C687.30,283.35 687.36,283.33 686.26,281.91 C685.58,281.03 685.35,279.95 685.76,279.50 C686.17,279.05 686.01,278.96 685.42,279.30 C684.82,279.63 684.33,279.37 684.33,278.71 C684.33,278.04 685.63,277.40 687.20,277.29 C688.78,277.17 689.83,277.47 689.53,277.95 C689.23,278.43 689.53,279.01 690.19,279.23 C690.94,279.48 690.73,279.89 689.65,280.31 C688.67,280.68 688.15,280.57 688.46,280.06 C688.78,279.55 688.61,278.88 688.10,278.56 C687.33,278.09 687.30,280.09 688.04,282.00 C688.15,282.27 688.19,282.82 688.13,283.21 C688.07,283.61 688.65,283.69 689.41,283.40 C690.17,283.10 691.09,283.34 691.46,283.93 C691.82,284.52 692.65,285.00 693.31,284.99 C693.37,284.99 693.42,284.98 693.46,284.97 C693.86,293.94 694.27,301.70 694.70,308.21 C694.14,304.43 693.45,303.99 692.59,306.75 C691.62,309.88 692.21,323.15 693.49,326.74 C693.73,327.43 692.93,328.92 691.72,330.05 C690.16,331.51 690.00,331.93 691.19,331.48 C692.30,331.05 693.33,331.55 694.18,332.92 ZM 654.49 324.25 C654.27,326.31 654.41,327.99 654.80,327.97 C655.11,327.95 655.77,326.94 656.53,325.47 C656.48,325.57 656.44,325.66 656.40,325.75 C655.42,327.88 654.41,329.80 653.62,331.13 C653.60,330.58 653.41,329.99 653.00,329.50 C651.33,327.49 648.00,320.79 648.00,319.44 C648.00,318.81 646.88,316.20 645.52,313.64 C644.16,311.07 643.07,308.66 643.10,308.26 C643.13,307.87 642.55,307.39 641.83,307.20 C641.01,306.98 640.88,307.16 641.50,307.67 C642.05,308.13 642.57,309.40 642.66,310.50 C642.71,311.18 643.50,313.54 644.65,316.58 C643.79,314.58 642.90,312.51 642.02,310.50 C639.71,305.20 636.63,297.95 634.22,292.13 C634.46,292.56 634.69,292.79 634.95,292.83 C635.45,292.93 636.07,292.37 637.17,291.41 C638.36,290.36 639.02,290.06 638.62,290.74 C638.13,291.58 638.40,291.78 639.45,291.38 C641.56,290.57 641.40,289.40 638.82,286.82 C636.72,284.72 636.63,284.71 635.89,286.57 C635.48,287.63 635.11,287.91 635.07,287.19 C635.03,286.47 634.55,286.16 634.00,286.50 C633.45,286.84 633.00,286.42 633.00,285.56 C633.00,282.87 632.89,282.54 631.48,280.98 C630.65,280.07 630.43,278.92 630.93,278.12 C631.51,277.17 631.95,277.11 632.44,277.91 C632.83,278.53 633.63,278.73 634.22,278.36 C634.86,277.97 635.02,278.15 634.62,278.80 C634.24,279.41 633.16,279.64 632.22,279.30 C631.27,278.96 630.72,278.87 631.00,279.10 C635.11,282.55 636.35,283.35 635.11,281.75 C633.56,279.75 634.93,279.37 636.95,281.25 C638.04,282.27 638.13,282.22 637.42,281.00 C636.04,278.60 636.09,277.18 637.60,276.60 C638.37,276.30 639.02,276.61 639.03,277.28 C639.05,277.95 639.94,280.30 641.00,282.50 C642.06,284.70 642.95,287.49 642.97,288.69 C642.98,289.90 643.45,291.16 644.00,291.50 C644.55,291.84 645.00,293.02 645.00,294.12 C645.00,295.22 644.60,295.87 644.11,295.57 C643.01,294.89 640.77,297.44 641.68,298.34 C642.04,298.70 643.40,299.00 644.71,299.00 C646.31,299.00 647.65,299.98 648.80,301.99 C650.48,304.95 652.00,305.92 652.00,304.03 C652.00,303.91 651.96,303.71 651.89,303.45 C652.64,305.38 653.25,307.04 653.48,307.81 C653.97,309.44 654.80,310.03 656.29,309.81 C658.02,309.56 659.72,306.28 665.54,292.00 C666.16,290.47 666.80,288.91 667.44,287.34 C664.93,293.85 664.67,295.67 665.02,297.50 C665.43,299.71 665.07,300.96 663.64,302.25 C662.57,303.21 661.29,304.00 660.79,304.00 C660.29,304.00 660.19,304.50 660.57,305.11 C661.04,305.88 661.51,305.80 662.11,304.86 C662.68,303.95 662.97,303.89 662.98,304.69 C662.99,305.35 662.54,306.16 661.98,306.51 C661.42,306.86 661.23,307.56 661.54,308.07 C662.07,308.93 660.65,309.44 658.68,309.09 C658.22,309.01 658.08,309.32 658.35,309.76 C658.63,310.21 659.75,310.57 660.85,310.57 C661.95,310.57 662.63,310.22 662.37,309.79 C662.10,309.35 662.48,309.00 663.22,309.00 C663.73,309.00 664.78,307.36 665.96,304.87 C665.05,306.99 664.08,309.16 663.23,311.00 C661.96,313.75 660.17,317.60 658.57,321.05 C659.78,318.17 660.73,315.37 660.44,314.90 C659.94,314.09 655.08,318.51 654.94,319.90 C654.91,320.23 654.71,322.19 654.49,324.25 ZM 393.68 302.65 C396.08,303.68 398.14,302.82 395.96,301.47 C394.60,300.63 397.79,298.08 400.25,298.03 C401.21,298.01 402.01,297.44 402.03,296.75 C402.05,295.99 402.58,296.18 403.39,297.25 C404.46,298.65 406.06,299.32 406.71,298.86 C407.14,300.41 409.80,305.61 413.13,311.37 C416.91,317.90 420.00,323.62 420.00,324.08 C420.00,324.54 422.01,326.99 424.46,329.51 C429.56,334.76 429.02,335.54 420.86,334.76 C414.30,334.13 412.06,331.82 403.57,316.89 C398.33,307.67 396.11,304.23 393.68,302.65 ZM 374.72 334.18 C374.55,333.81 374.66,326.75 374.96,318.50 C375.15,313.11 375.28,307.08 375.35,301.02 C375.45,309.37 375.73,315.00 376.10,315.00 C376.60,315.00 377.00,314.55 377.00,314.00 C377.00,313.45 377.93,313.00 379.06,313.00 C380.26,313.00 380.84,312.56 380.46,311.93 C380.07,311.30 380.51,311.00 381.55,311.18 C382.51,311.36 383.49,310.93 383.73,310.24 C384.06,309.30 383.56,309.22 381.75,309.90 C378.61,311.10 376.28,309.84 378.40,308.08 C379.50,307.17 379.65,306.21 378.98,304.46 C378.48,303.12 378.46,301.84 378.94,301.53 C379.42,301.24 379.56,297.39 379.26,292.98 C378.78,286.01 378.92,285.03 380.25,285.54 C382.34,286.34 383.47,284.27 381.94,282.43 C380.92,281.20 381.02,281.07 382.52,281.65 C383.89,282.17 384.13,282.00 383.52,280.92 C382.88,279.81 382.98,279.76 383.98,280.67 C384.82,281.46 385.21,284.61 385.14,290.17 C384.92,308.57 385.09,313.29 386.02,315.04 C387.36,317.54 387.25,321.35 385.80,322.80 C384.87,323.73 384.87,324.00 385.80,324.00 C386.49,324.00 386.99,325.38 386.99,327.25 C386.98,329.04 387.01,331.50 387.05,332.73 C387.11,334.49 387.40,334.71 388.40,333.77 C389.29,332.94 389.44,331.37 388.89,328.45 C388.56,326.66 388.24,321.59 388.05,316.16 C388.08,316.64 388.10,317.14 388.12,317.65 C388.51,325.98 389.22,331.56 390.00,332.50 C390.68,333.32 391.08,334.05 390.87,334.12 C389.23,334.66 374.96,334.71 374.72,334.18 ZM 419.43 280.48 C419.80,282.45 420.53,283.79 421.05,283.47 C421.23,283.36 421.39,283.15 421.52,282.88 C421.50,283.00 421.48,283.11 421.46,283.23 C421.30,284.17 420.97,285.17 420.51,286.17 C420.50,286.17 420.50,286.17 420.50,286.16 C420.13,285.80 419.29,286.18 418.63,287.00 C416.18,290.06 411.43,293.80 409.11,294.50 C406.90,295.17 406.78,295.02 407.43,292.44 L 408.12 289.65 L 405.35 292.16 C409.03,288.01 410.27,282.25 408.41,276.08 C407.93,274.47 407.35,273.04 406.67,271.78 C408.77,274.67 410.53,277.00 410.64,277.00 C410.75,277.00 411.55,276.73 412.42,276.39 C414.60,275.55 414.41,273.00 412.16,273.00 C410.59,273.00 409.69,271.87 407.20,266.75 C407.00,266.34 407.47,266.00 408.25,266.00 C410.46,266.00 419.00,272.03 419.00,273.59 C419.00,274.37 419.45,275.00 420.00,275.00 C420.44,275.00 420.71,274.88 420.84,274.65 C421.14,275.50 421.37,276.38 421.52,277.29 C421.37,276.90 421.17,276.61 420.93,276.46 C419.20,275.39 418.72,276.68 419.43,280.48 ZM 163.00 389.67 C163.00,390.73 163.99,391.04 166.67,390.81 C169.01,390.61 170.52,389.88 170.77,389.10 C170.80,389.35 170.74,389.62 170.57,389.89 C169.81,391.12 163.00,391.44 163.00,390.25 C163.00,389.84 158.16,389.50 152.25,389.50 C149.46,389.50 146.88,389.47 144.50,389.39 C145.49,388.93 144.92,387.92 142.56,386.84 C141.21,386.23 139.87,385.09 139.57,384.31 C139.27,383.53 139.43,383.15 139.93,383.45 C141.15,384.21 141.90,381.86 141.02,380.00 C140.07,377.98 141.31,373.08 142.35,374.76 C142.77,375.44 143.99,376.00 145.07,376.00 C146.34,376.00 145.86,374.67 142.36,369.73 C144.15,372.02 145.74,373.90 147.33,375.64 C153.01,381.89 161.94,387.65 165.62,387.59 C164.17,387.99 163.00,388.77 163.00,389.67 ZM 229.95 327.40 C231.73,330.60 233.93,332.85 232.74,329.76 C231.92,327.64 233.00,326.76 234.70,328.17 C237.13,330.18 238.45,327.69 237.00,323.83 C235.27,319.19 234.15,312.00 235.16,312.00 C235.62,312.00 236.00,312.75 236.00,313.66 C236.00,317.21 239.61,326.52 241.85,328.76 C243.15,330.06 244.36,330.97 244.55,330.79 C244.73,330.60 243.98,328.44 242.87,325.98 C242.41,324.94 241.87,323.45 241.30,321.73 C243.83,328.87 247.05,333.81 251.07,336.81 C252.64,337.99 253.91,338.95 254.94,339.74 C254.13,339.27 253.28,338.90 252.51,338.76 C250.86,338.44 250.33,338.70 250.70,339.66 C250.98,340.40 251.71,341.00 252.31,341.00 C253.09,341.00 253.09,341.31 252.32,342.08 C251.63,342.77 249.49,342.90 246.44,342.44 C241.56,341.71 236.74,337.91 235.43,333.77 C235.12,332.80 234.20,332.00 233.40,332.00 C232.89,332.00 232.62,332.20 232.59,332.61 C231.96,331.46 231.37,330.30 230.83,329.19 C230.54,328.58 230.24,327.98 229.95,327.40 ZM 635.49 262.21 L 637.94 268.75 C638.90,271.31 639.93,274.01 640.78,276.22 C640.72,276.06 640.66,275.91 640.60,275.75 C639.77,273.69 638.58,272.00 637.94,272.00 C637.31,272.00 637.03,272.63 637.32,273.40 C638.30,275.93 636.81,275.96 633.53,273.46 C631.76,272.11 629.53,271.00 628.57,271.00 C627.55,271.00 626.36,269.75 625.69,268.00 C625.07,266.35 623.99,265.00 623.28,265.00 C622.58,265.00 622.00,264.25 622.00,263.33 C622.00,262.42 622.25,261.91 622.55,262.22 C622.85,262.52 624.64,262.42 626.53,261.99 C629.21,261.39 630.42,261.63 632.13,263.11 C633.33,264.15 634.80,264.99 635.40,264.98 C636.01,264.98 635.83,264.53 635.00,264.00 C634.05,263.39 633.95,263.02 634.72,263.02 C635.18,263.01 635.46,262.69 635.49,262.21 ZM 326.27 334.19 C325.35,333.60 325.31,332.48 326.10,329.58 C326.69,327.48 327.01,320.52 326.83,314.13 L 326.58 305.34 L 327.21 312.87 C327.70,318.68 328.30,323.63 328.55,323.88 C328.80,324.13 329.01,321.00 329.02,316.92 C329.03,312.08 329.35,310.00 329.94,310.93 C330.44,311.72 330.77,315.89 330.67,320.20 C330.54,326.06 330.81,327.90 331.74,327.55 C332.42,327.29 334.17,328.18 335.63,329.54 C337.10,330.89 337.76,332.00 337.11,332.00 C336.24,332.00 336.27,332.39 337.21,333.46 C338.75,335.20 340.64,334.82 340.15,332.88 C339.97,332.17 339.80,331.33 339.64,330.40 C339.71,330.73 339.77,330.98 339.84,331.15 C340.41,332.60 340.60,334.07 340.27,334.40 C339.39,335.28 327.71,335.11 326.27,334.19 ZM 163.85 356.94 C163.94,356.89 163.98,356.65 163.98,356.22 C163.99,355.51 163.37,354.69 162.59,354.40 C160.59,353.63 158.46,348.14 159.69,346.91 C160.84,345.76 166.00,347.40 166.00,348.90 C166.00,350.41 168.99,353.00 170.73,353.00 C172.15,353.00 172.15,352.82 170.79,351.25 C169.50,349.76 168.73,347.83 168.32,344.47 C168.84,348.31 169.97,350.26 172.26,352.68 C176.33,357.00 175.46,359.46 170.10,358.74 C167.66,358.41 165.59,357.82 163.85,356.94 ZM 452.99 289.09 C453.03,287.35 453.46,284.92 453.98,283.57 C454.53,282.09 454.57,281.00 454.05,281.00 C453.55,281.00 452.44,279.59 451.59,277.87 C450.08,274.86 450.13,274.63 452.76,271.46 C455.97,267.60 458.00,266.47 458.00,268.53 C458.00,269.34 458.67,270.00 459.50,270.00 C459.77,270.00 460.02,269.95 460.24,269.87 C460.16,269.98 460.08,270.08 460.00,270.19 C458.64,272.01 457.50,273.73 457.47,274.00 C457.44,274.27 456.37,277.20 455.09,280.50 C454.10,283.03 453.40,285.96 452.99,289.09 ZM 255.58 284.21 C254.81,284.64 254.54,285.20 254.92,286.34 C254.30,284.94 254.00,283.82 254.00,282.89 C254.00,281.85 253.55,281.00 253.00,281.00 C252.38,281.00 252.05,280.39 252.04,279.50 C252.18,280.36 252.72,281.00 253.36,281.00 C254.27,281.00 254.57,280.18 254.25,278.51 C253.94,276.89 253.24,276.34 252.71,276.72 C252.78,276.56 252.86,276.40 252.95,276.24 C253.35,275.51 254.13,273.90 254.89,272.25 C254.28,274.40 254.82,275.86 256.95,275.30 C259.07,274.75 260.81,276.88 259.10,277.94 C258.47,278.33 257.75,279.72 257.50,281.02 C257.24,282.33 256.38,283.77 255.58,284.21 ZM 678.05 277.85 C677.14,278.86 675.94,281.26 674.34,284.76 C673.40,286.81 672.33,289.27 671.35,291.59 C672.14,289.66 672.89,287.92 673.45,286.66 C676.61,279.57 674.65,279.30 671.12,286.34 C669.82,288.95 668.54,290.88 668.29,290.62 C667.58,289.91 671.88,278.78 673.90,276.13 L 675.69 273.76 L 675.51 276.88 C675.30,280.34 675.74,280.72 677.39,278.52 C677.61,278.23 677.83,278.01 678.05,277.85 ZM 614.45 333.31 C615.02,331.86 615.51,329.49 615.94,326.08 C615.73,328.59 615.55,330.29 615.41,330.75 C615.00,332.17 615.20,333.00 615.94,333.00 C616.59,333.00 616.84,332.55 616.50,332.00 C616.16,331.45 616.39,331.00 617.00,331.00 C617.61,331.00 617.92,330.66 617.68,330.25 C617.45,329.84 617.61,328.60 618.05,327.50 L 618.86 325.50 L 618.96 327.50 C619.05,329.32 621.17,333.01 622.11,333.00 C622.32,332.99 622.65,324.54 622.83,314.22 C623.07,300.88 623.38,291.71 623.85,285.72 C622.99,298.25 622.39,331.17 623.00,333.00 C623.39,334.17 622.43,334.57 618.62,334.81 C614.25,335.09 613.81,334.93 614.45,333.31 ZM 693.34 263.21 C692.98,264.64 692.73,266.26 692.75,267.00 C692.86,270.05 692.97,273.00 693.08,275.84 C692.96,274.37 692.85,272.76 692.79,271.27 C692.63,267.37 692.06,264.85 691.27,264.55 C690.57,264.28 690.00,264.65 690.00,265.36 C690.00,267.25 687.34,266.97 687.30,265.08 C687.29,264.21 687.72,262.93 688.27,262.24 C689.05,261.25 689.52,261.33 690.48,262.64 C691.36,263.84 692.59,263.93 693.34,263.21 ZM 687.50 312.58 C688.25,314.95 690.44,313.71 690.45,310.93 C690.45,309.18 689.83,308.41 688.23,308.18 C686.59,307.95 686.14,308.27 686.50,309.43 C686.78,310.29 687.23,311.71 687.50,312.58 ZM 238.37 311.10 C238.03,309.61 237.75,308.23 237.56,307.05 C237.24,305.08 234.95,304.46 233.95,306.08 C233.37,307.02 232.94,306.61 232.45,304.65 C231.59,301.24 232.28,300.43 234.31,302.45 C235.81,303.96 236.76,304.31 236.82,303.54 C237.06,304.44 237.27,305.32 237.38,306.00 C237.69,307.77 238.02,309.47 238.37,311.10 ZM 266.39 285.89 C268.09,287.66 268.75,289.03 268.11,289.43 C267.01,290.11 263.91,287.17 264.08,285.61 C264.13,285.12 263.57,284.34 262.84,283.88 C262.10,283.41 261.98,283.02 262.56,283.02 C263.15,283.01 264.87,284.30 266.39,285.89 ZM 316.41 269.70 C317.62,270.37 317.63,270.79 316.50,272.33 C315.21,274.10 315.12,274.09 314.08,272.14 C312.83,269.81 314.16,268.43 316.41,269.70 ZM 375.00 323.56 C375.00,325.45 375.47,327.00 376.04,327.00 C376.62,327.00 376.98,325.27 376.85,323.06 C376.57,318.29 375.00,318.71 375.00,323.56 ZM 620.49 309.25 C620.68,310.25 620.22,311.00 619.41,311.00 C618.57,311.00 618.00,309.99 618.00,308.50 C618.00,306.32 619.87,304.75 620.08,306.75 C620.12,307.16 620.30,308.29 620.49,309.25 ZM 382.00 263.08 C382.00,263.59 380.88,264.00 379.50,264.00 C376.89,264.00 376.09,262.55 378.25,261.75 C379.87,261.16 382.00,261.91 382.00,263.08 ZM 682.20 330.86 C682.34,329.71 682.40,328.21 682.36,325.21 C682.48,325.71 682.66,326.00 682.88,326.00 C683.37,326.00 683.99,327.15 684.26,328.56 C684.62,330.44 684.38,330.98 683.37,330.59 C682.85,330.39 682.43,330.50 682.20,330.86 ZM 580.87 265.90 C581.63,266.38 582.06,267.31 581.85,267.96 C581.59,268.73 580.78,268.42 579.57,267.08 C577.66,264.97 578.38,264.32 580.87,265.90 ZM 278.13 302.66 C279.36,304.14 278.23,304.43 276.20,303.15 C275.19,302.50 275.30,302.02 276.70,300.94 C277.69,300.19 278.17,299.96 277.76,300.44 C277.35,300.92 277.52,301.92 278.13,302.66 ZM 686.26 325.89 C686.53,326.93 686.37,328.39 685.89,329.14 C685.31,330.06 685.03,329.46 685.02,327.25 C685.00,323.61 685.52,323.04 686.26,325.89 ZM 529.15 284.64 C529.48,283.59 529.84,282.62 530.24,281.75 C530.25,281.73 530.26,281.72 530.26,281.70 C530.47,281.64 530.91,281.43 531.58,281.11 C533.16,280.35 533.67,280.44 533.67,281.46 C533.67,282.20 533.18,282.63 532.58,282.42 C531.19,281.91 530.05,282.65 529.15,284.64 ZM 237.67 334.33 C238.88,335.55 239.95,335.02 239.36,333.50 C239.05,332.67 238.38,332.00 237.89,332.00 C236.84,332.00 236.71,333.38 237.67,334.33 ZM 108.67 371.90 C114.11,378.92 117.91,382.89 121.51,385.20 C118.52,383.63 116.16,381.55 113.96,378.82 C112.82,377.41 110.94,374.94 108.67,371.90 ZM 693.37 282.76 C693.39,283.39 693.42,284.01 693.45,284.63 C693.21,284.27 692.51,283.67 691.50,283.00 C689.85,281.91 689.04,281.01 689.69,281.01 C690.35,281.00 691.16,281.45 691.50,282.00 C692.21,283.14 692.94,283.30 693.37,282.76 ZM 449.46 271.68 C447.56,273.96 445.90,276.53 444.52,279.38 C442.62,283.35 440.94,288.98 440.03,293.78 C440.05,293.66 440.06,293.55 440.08,293.43 C441.30,284.84 444.60,277.41 449.46,271.68 ZM 633.06 289.34 C632.67,288.39 632.31,287.51 631.99,286.71 C629.46,280.46 627.74,276.98 626.54,276.23 C627.97,276.55 629.56,279.76 632.75,288.50 C632.86,288.80 632.97,289.08 633.06,289.34 ZM 740.00 305.61 C740.00,306.42 738.09,305.96 737.51,305.01 C737.16,304.44 737.56,304.28 738.45,304.62 C739.30,304.95 740.00,305.39 740.00,305.61 ZM 339.31 328.33 C338.58,323.17 338.11,316.09 338.14,310.00 C338.15,309.12 338.15,308.32 338.17,307.58 L 338.38 314.66 C338.54,319.96 338.91,325.16 339.31,328.33 ZM 275.06 304.59 C273.80,303.75 272.38,302.82 270.80,301.78 C270.44,301.55 270.09,301.32 269.74,301.08 C271.62,302.23 273.17,303.00 273.82,303.00 C274.47,303.00 275.00,303.52 275.00,304.17 C275.00,304.34 275.02,304.48 275.06,304.59 ZM 244.27 345.14 L 241.50 345.15 L 238.16 341.33 C237.76,340.86 237.28,340.24 236.77,339.49 C237.07,339.88 237.39,340.28 237.73,340.69 C240.27,343.81 241.71,344.82 244.27,345.14 ZM 692.56 333.29 C692.94,334.28 693.50,334.83 693.81,334.53 C694.11,334.22 693.81,333.41 693.12,332.73 C692.14,331.75 692.02,331.87 692.56,333.29 ZM 625.97 260.00 L 634.66 260.00 L 635.04 261.03 C634.19,260.23 631.85,260.00 625.97,260.00 ZM 547.45 270.84 C547.45,270.83 547.46,270.82 547.47,270.81 C550.60,266.82 552.24,265.33 555.35,264.11 C552.47,265.60 549.79,267.86 547.45,270.84 ZM 695.74 321.30 C696.35,327.37 696.98,331.13 697.63,332.49 C697.61,332.47 697.60,332.46 697.58,332.44 C696.83,331.68 696.21,327.92 695.74,321.30 ZM 687.23 260.17 L 694.24 259.91 L 693.94 261.01 C693.62,260.20 692.04,260.02 687.23,260.17 ZM 471.12 263.11 C476.02,262.17 481.69,262.64 485.15,264.64 C485.37,264.76 485.58,264.89 485.78,265.02 C482.96,263.31 479.64,262.73 475.23,262.78 C473.74,262.80 472.38,262.91 471.12,263.11 ZM 501.36 267.64 C500.69,267.16 499.94,266.64 499.11,266.07 C495.72,263.77 492.18,262.05 488.57,260.89 C493.37,262.35 497.78,264.68 501.36,267.64 ZM 161.12 355.09 C161.21,355.10 161.30,355.10 161.39,355.07 C161.88,354.94 162.66,355.43 163.12,356.16 C163.31,356.46 163.46,356.67 163.58,356.80 C162.66,356.32 161.84,355.74 161.12,355.09 ZM 156.99 343.50 C157.00,346.48 157.97,350.22 159.11,352.63 C157.69,350.28 157.00,347.26 156.99,343.50 ZM 418.22 270.03 C416.18,267.80 413.27,265.31 410.58,263.66 C412.29,264.57 413.83,265.74 415.56,267.26 C416.57,268.15 417.46,269.07 418.22,270.03 ZM 226.02 320.90 C227.00,321.71 228.01,323.19 228.94,325.37 C229.07,325.67 229.21,325.97 229.36,326.27 C228.07,323.85 226.83,321.86 226.02,320.90 ZM 394.03 263.94 C397.77,264.31 400.15,265.07 402.32,266.82 C400.15,265.32 397.43,264.39 394.03,263.94 ZM 407.36 297.72 C407.92,297.25 409.08,296.65 410.41,296.17 C412.24,295.51 415.11,293.22 417.34,290.99 C415.31,293.34 412.81,295.30 410.45,296.15 C409.22,296.60 408.07,297.20 407.36,297.72 ZM 652.12 333.00 C651.61,332.90 650.44,330.80 649.48,328.25 C649.41,328.06 649.32,327.83 649.23,327.58 C650.67,330.72 651.81,332.90 652.12,333.00 ZM 387.93 302.84 C387.94,302.81 387.94,302.78 387.94,302.75 C388.00,300.89 389.23,300.59 391.98,301.83 C391.62,301.70 391.24,301.59 390.84,301.49 C389.17,301.08 388.30,300.95 387.93,302.84 ZM 618.15 288.63 C618.45,283.30 618.78,278.48 619.05,275.59 C619.20,273.96 619.32,272.56 619.40,271.35 C619.32,272.92 619.17,274.79 618.98,277.06 C618.75,279.76 618.45,283.91 618.15,288.63 ZM 293.98 321.90 C294.84,319.31 295.00,316.37 294.71,312.30 C295.07,317.30 294.96,319.48 293.98,321.90 ZM 747.98 297.00 C749.79,298.38 752.12,301.45 753.14,303.83 C753.16,303.88 753.18,303.92 753.19,303.96 C751.73,301.18 749.63,298.25 747.98,297.00 ZM 403.25 261.36 C399.61,260.90 394.37,260.49 389.11,260.29 C395.38,260.52 399.83,260.81 403.25,261.36 ZM 258.00 266.84 C260.34,264.03 263.62,261.90 267.38,260.62 C265.01,261.48 262.75,262.71 260.66,264.31 C259.67,265.06 258.78,265.93 258.00,266.84 ZM 733.96 259.33 C740.14,258.74 746.51,259.90 749.81,262.76 C746.59,259.97 740.13,258.79 733.96,259.33 ZM 698.08 333.05 C698.95,333.60 699.03,334.03 698.34,334.32 C698.52,334.05 698.41,333.56 698.08,333.05 ZM 125.62 345.90 C124.12,343.68 122.66,341.51 121.33,339.50 C115.49,330.70 109.20,321.63 107.36,319.34 C109.20,321.63 115.50,330.70 121.35,339.50 C122.87,341.78 124.29,343.91 125.62,345.90 ZM 220.16 327.91 C220.76,323.16 222.19,320.54 223.90,320.22 C222.13,320.72 220.71,323.53 220.16,327.91 ZM 257.90 342.23 C258.88,343.22 258.78,343.62 258.28,344.12 C258.13,344.27 257.68,344.42 257.03,344.55 C257.67,344.39 258.13,344.21 258.33,344.02 C258.72,343.65 258.49,342.98 257.90,342.23 ZM 728.87 264.48 C728.29,264.87 727.71,265.34 727.11,265.90 C726.56,266.41 726.11,266.85 725.74,267.28 C726.57,266.19 727.66,265.22 728.87,264.48 ZM 395.92 297.73 C394.32,298.29 392.79,298.68 391.55,298.82 C392.60,298.64 394.01,298.28 395.92,297.73 ZM 461.02 268.89 C461.17,268.46 461.99,267.63 463.13,266.73 C462.40,267.36 461.71,268.08 461.02,268.89 ZM 542.95 266.25 C545.01,264.68 547.14,263.37 549.28,262.38 C549.58,262.24 549.88,262.11 550.16,261.98 C549.91,262.10 549.64,262.22 549.37,262.34 C547.31,263.29 545.03,264.72 542.95,266.25 ZM 373.86 259.75 L 374.45 262.64 L 373.79 259.75 L 373.86 259.75 ZM 674.68 269.73 C675.05,268.84 675.36,268.09 675.61,267.50 L 678.55 260.50 L 678.57 260.50 L 675.20 268.50 C675.02,268.92 674.85,269.33 674.68,269.73 ZM 388.06 287.70 C388.02,286.44 388.00,285.11 387.99,283.72 C387.95,278.99 387.89,274.28 387.82,270.94 C387.89,274.23 387.95,278.83 388.00,283.44 C388.01,284.91 388.03,286.34 388.06,287.70 ZM 586.69 266.40 C586.73,266.41 586.76,266.42 586.80,266.44 C587.15,266.55 587.53,266.74 587.92,267.01 C587.86,266.98 587.79,266.95 587.73,266.92 C587.36,266.76 587.01,266.58 586.69,266.40 ZM 495.39 318.99 C494.97,319.86 494.53,320.65 494.03,321.40 C494.52,320.63 494.97,319.83 495.39,318.99 ZM 289.20 329.25 C289.73,328.68 290.22,328.13 290.66,327.59 C290.20,328.18 289.71,328.73 289.20,329.25 ZM 347.56 283.07 C349.49,279.43 351.17,276.22 352.57,273.46 C351.14,276.27 349.46,279.50 347.56,283.07 ZM 387.66 266.02 C387.61,265.05 387.62,264.45 387.91,264.10 C387.65,264.46 387.61,265.05 387.66,266.02 ZM 725.14 297.82 C724.36,297.24 723.63,296.65 722.93,296.06 C723.63,296.65 724.37,297.24 725.14,297.82 ZM 374.66 263.69 C374.74,264.10 374.82,264.85 374.88,265.87 C374.82,264.96 374.74,264.22 374.66,263.69 ZM 668.67 298.24 C668.49,298.73 668.27,299.27 668.04,299.86 C668.24,299.34 668.45,298.80 668.67,298.24 Z" fill="rgba(175,114,0,1)"/>
<path d="M 84.13 338.18 C86.53,341.31 90.30,346.43 92.50,349.56 C97.51,356.69 98.93,358.16 100.07,357.46 C101.23,356.74 107.85,361.97 108.55,364.17 C109.03,365.66 109.34,365.60 111.35,363.67 C113.37,361.74 113.46,361.31 112.18,359.77 C111.38,358.82 110.42,358.24 110.03,358.48 C109.65,358.72 109.33,358.35 109.33,357.66 C109.33,356.97 110.17,356.34 111.19,356.26 C112.21,356.18 112.79,356.54 112.47,357.05 C112.15,357.56 112.59,357.71 113.44,357.38 C114.30,357.05 114.67,356.28 114.27,355.65 C113.10,353.78 112.85,350.00 113.90,350.00 C114.43,350.00 115.01,348.76 115.18,347.25 C115.48,344.68 115.80,344.50 120.19,344.56 C122.78,344.59 124.10,344.38 124.27,343.90 C129.67,351.91 136.00,361.01 139.48,365.75 C145.54,374.00 146.63,376.00 145.07,376.00 C143.99,376.00 142.77,375.44 142.35,374.76 C141.31,373.08 140.07,377.98 141.02,380.00 C141.90,381.86 141.15,384.21 139.93,383.45 C139.43,383.15 139.27,383.53 139.57,384.31 C139.87,385.09 141.21,386.23 142.56,386.84 C146.29,388.55 145.54,390.09 141.25,389.54 C139.19,389.27 135.18,388.81 132.34,388.53 C124.78,387.77 120.48,386.08 112.56,376.73 C112.59,376.73 112.60,376.73 112.61,376.72 C113.24,376.09 109.29,368.63 107.08,366.29 C105.94,365.08 105.00,363.67 105.00,363.16 C105.00,361.93 102.16,359.64 100.31,359.37 C99.91,359.31 99.62,359.33 99.46,359.41 C97.35,356.44 95.04,353.17 92.50,349.56 C90.30,346.43 86.53,341.31 84.13,338.18 ZM 337.21 333.46 C336.27,332.39 336.24,332.00 337.11,332.00 C337.76,332.00 337.10,330.89 335.63,329.54 C334.17,328.18 332.42,327.29 331.74,327.55 C330.81,327.90 330.54,326.06 330.67,320.20 C330.77,315.89 330.44,311.72 329.94,310.93 C329.35,310.00 329.03,312.08 329.02,316.92 C329.01,321.00 328.80,324.13 328.55,323.88 C328.30,323.63 327.70,318.68 327.21,312.87 L 326.33 302.30 L 317.63 284.51 C312.85,274.73 308.05,265.48 306.97,263.96 C305.89,262.44 305.00,260.92 305.00,260.60 C305.00,260.27 308.59,260.00 312.98,260.00 C320.87,260.00 320.97,260.03 321.57,262.75 C323.27,270.41 326.51,278.16 331.93,287.47 C335.26,293.20 336.09,293.71 338.14,291.27 C340.89,288.00 349.26,268.55 349.76,264.25 C350.25,260.07 350.32,260.00 354.13,260.00 C357.03,260.00 358.00,260.41 358.00,261.62 C358.00,263.06 352.27,274.45 341.71,294.00 C338.42,300.10 338.20,301.09 338.14,310.00 C338.09,318.20 338.97,328.21 340.15,332.88 C340.64,334.82 338.75,335.20 337.21,333.46 ZM 211.75 272.59 C215.72,283.85 218.81,291.86 219.15,291.51 C219.94,290.72 217.60,282.20 216.20,280.80 C214.23,278.83 214.70,275.00 216.93,275.00 C217.99,275.00 219.56,274.30 220.42,273.44 C221.28,272.58 222.44,272.15 222.99,272.50 C223.55,272.84 224.00,272.39 224.00,271.50 C224.00,270.61 224.40,270.13 224.88,270.42 C226.33,271.32 226.82,266.65 225.99,262.53 C226.55,264.75 227.23,267.35 227.94,270.00 C229.63,276.33 231.22,282.40 231.46,283.50 C232.53,288.37 232.88,289.82 234.28,295.00 C235.10,298.02 236.10,301.29 236.49,302.25 C237.38,304.41 236.37,304.51 234.31,302.45 C232.28,300.43 231.59,301.24 232.45,304.65 C232.94,306.61 233.37,307.02 233.95,306.08 C234.95,304.46 237.24,305.08 237.56,307.05 C238.43,312.40 241.18,322.20 242.87,325.98 C243.98,328.44 244.73,330.60 244.55,330.79 C244.36,330.97 243.15,330.06 241.85,328.76 C239.61,326.52 236.00,317.21 236.00,313.66 C236.00,312.75 235.62,312.00 235.16,312.00 C234.15,312.00 235.27,319.19 237.00,323.83 C238.45,327.69 237.13,330.18 234.70,328.17 C233.00,326.76 231.92,327.64 232.74,329.76 C234.17,333.48 230.70,329.47 228.94,325.37 C225.58,317.52 221.32,318.75 220.16,327.91 C220.05,328.71 219.94,329.41 219.82,330.02 C219.57,329.42 219.07,329.00 218.50,329.00 C217.79,329.00 217.28,329.70 217.08,330.57 C216.97,330.11 216.87,329.59 216.78,329.00 C214.75,316.42 214.76,314.58 216.89,308.53 C220.17,299.26 219.71,295.11 213.40,277.31 C212.89,275.85 212.33,274.26 211.75,272.59 ZM 387.05 332.73 C387.01,331.50 386.98,329.04 386.99,327.25 C386.99,325.38 386.49,324.00 385.80,324.00 C384.87,324.00 384.87,323.73 385.80,322.80 C387.25,321.35 387.36,317.54 386.02,315.04 C385.09,313.29 384.92,308.57 385.14,290.17 C385.21,284.61 384.82,281.46 383.98,280.67 C382.98,279.76 382.88,279.81 383.52,280.92 C384.13,282.00 383.89,282.17 382.52,281.65 C381.02,281.07 380.92,281.20 381.94,282.43 C383.47,284.27 382.34,286.34 380.25,285.54 C378.92,285.03 378.78,286.01 379.26,292.98 C379.56,297.39 379.42,301.24 378.94,301.53 C378.46,301.84 378.48,303.12 378.98,304.46 C379.65,306.21 379.50,307.17 378.40,308.08 C376.28,309.84 378.61,311.10 381.75,309.90 C383.56,309.22 384.06,309.30 383.73,310.24 C383.49,310.93 382.51,311.36 381.55,311.18 C380.51,311.00 380.07,311.30 380.46,311.93 C380.84,312.56 380.26,313.00 379.06,313.00 C377.93,313.00 377.00,313.45 377.00,314.00 C377.00,314.55 376.60,315.00 376.10,315.00 C375.60,315.00 375.26,304.67 375.32,291.25 C375.39,278.19 375.09,265.76 374.65,263.62 L 373.86 259.75 L 388.68 260.28 C396.93,260.57 405.27,261.40 407.50,262.14 C413.57,264.18 424.09,275.00 420.00,275.00 C419.45,275.00 419.00,274.37 419.00,273.59 C419.00,272.03 410.46,266.00 408.25,266.00 C407.47,266.00 407.00,266.34 407.20,266.75 C409.69,271.87 410.59,273.00 412.16,273.00 C414.41,273.00 414.60,275.55 412.42,276.39 C411.55,276.73 410.75,277.00 410.64,277.00 C410.53,277.00 408.65,274.53 406.47,271.50 C402.23,265.63 399.64,264.25 392.00,263.78 C387.57,263.50 387.50,263.55 387.69,266.50 C387.79,268.15 387.93,275.90 387.99,283.72 C388.06,291.94 388.53,298.21 389.10,298.56 C391.28,299.91 400.35,296.68 404.21,293.19 L 408.12 289.65 L 407.43 292.44 C406.78,295.02 406.90,295.17 409.11,294.50 C411.43,293.80 416.18,290.06 418.63,287.00 C419.29,286.18 420.13,285.80 420.50,286.16 C421.63,287.30 414.00,294.87 410.41,296.17 C408.54,296.85 407.00,297.76 407.00,298.20 C407.00,299.63 404.75,299.04 403.39,297.25 C402.58,296.18 402.05,295.99 402.03,296.75 C402.01,297.44 401.21,298.01 400.25,298.03 C397.79,298.08 394.60,300.63 395.96,301.47 C398.27,302.91 395.80,303.78 393.23,302.44 C389.59,300.54 388.01,300.63 387.94,302.75 C387.69,309.77 388.26,325.05 388.89,328.45 C389.44,331.37 389.29,332.94 388.40,333.77 C387.40,334.71 387.11,334.49 387.05,332.73 ZM 154.00 329.99 C155.08,330.66 155.67,330.45 156.13,329.21 C156.54,328.09 156.10,327.18 154.83,326.58 C153.36,325.87 152.39,326.19 150.70,327.93 C148.62,330.09 148.61,330.18 150.50,329.63 C150.77,329.55 151.08,329.50 151.39,329.48 C149.46,329.64 147.55,330.96 146.43,333.13 C146.15,333.67 145.89,334.14 145.64,334.52 C145.69,334.42 145.73,334.31 145.77,334.19 C145.99,333.53 145.45,333.00 144.58,333.00 C144.09,333.00 143.64,333.23 143.35,333.60 C143.37,332.94 143.44,332.16 143.58,331.25 C143.81,329.64 144.04,328.30 144.33,327.10 C145.72,326.07 150.99,319.27 151.03,318.24 C151.04,317.83 152.59,316.38 154.47,315.00 C156.35,313.62 158.65,310.82 159.58,308.77 C160.52,306.72 162.18,304.76 163.27,304.41 C164.85,303.91 164.98,303.60 163.88,302.91 C162.88,302.27 162.85,302.03 163.75,302.02 C164.44,302.01 165.00,301.32 165.00,300.48 C165.00,299.64 166.12,298.45 167.48,297.83 C168.85,297.20 170.54,295.41 171.23,293.85 C172.59,290.78 173.57,290.26 174.28,292.25 C175.12,294.61 176.28,292.04 180.58,278.28 C182.42,272.41 184.25,266.83 185.99,261.75 C183.13,270.23 179.48,281.69 174.22,298.50 C173.36,301.25 172.51,303.95 172.32,304.50 C170.24,310.80 168.05,325.38 167.96,333.54 C167.85,344.57 168.49,348.60 170.79,351.25 C172.15,352.82 172.15,353.00 170.73,353.00 C168.99,353.00 166.00,350.41 166.00,348.90 C166.00,347.40 160.84,345.76 159.69,346.91 C158.46,348.14 160.59,353.63 162.59,354.40 C163.37,354.69 163.99,355.51 163.98,356.22 C163.97,357.22 163.78,357.21 163.12,356.16 C162.66,355.43 161.88,354.94 161.39,355.07 C159.69,355.54 157.00,348.48 156.99,343.50 C156.97,335.87 155.90,331.02 154.02,330.01 C153.57,329.77 153.09,329.61 152.61,329.52 C153.14,329.60 153.64,329.76 154.00,329.99 ZM 615.41 330.75 C615.77,329.51 616.50,319.50 617.03,308.50 C617.56,297.50 618.44,283.35 618.98,277.06 C619.78,267.76 619.70,265.10 618.56,262.81 L 617.88 261.46 C618.23,261.78 618.66,262.00 619.00,262.00 C619.49,262.00 620.16,261.55 620.50,261.00 C620.84,260.45 620.16,260.00 619.00,260.00 C618.16,260.00 617.57,260.24 617.44,260.57 L 617.15 260.00 L 625.97 260.00 C632.88,260.00 634.91,260.32 635.36,261.50 C635.68,262.33 635.39,263.01 634.72,263.02 C633.95,263.02 634.05,263.39 635.00,264.00 C635.83,264.53 636.01,264.98 635.40,264.98 C634.80,264.99 633.33,264.15 632.13,263.11 C630.42,261.63 629.21,261.39 626.53,261.99 C624.64,262.42 622.85,262.52 622.55,262.22 C622.25,261.91 622.00,262.42 622.00,263.33 C622.00,264.25 622.58,265.00 623.28,265.00 C623.99,265.00 625.07,266.35 625.69,268.00 C626.36,269.75 627.55,271.00 628.57,271.00 C629.53,271.00 631.76,272.11 633.53,273.46 C636.81,275.96 638.30,275.93 637.32,273.40 C637.03,272.63 637.31,272.00 637.94,272.00 C638.58,272.00 639.77,273.69 640.60,275.75 C641.42,277.81 642.46,280.40 642.91,281.50 C643.37,282.60 644.75,285.98 645.98,289.00 C647.21,292.02 649.06,296.42 650.11,298.78 C651.15,301.13 652.00,303.49 652.00,304.03 C652.00,305.92 650.48,304.95 648.80,301.99 C647.65,299.98 646.31,299.00 644.71,299.00 C643.40,299.00 642.04,298.70 641.68,298.34 C640.77,297.44 643.01,294.89 644.11,295.57 C644.60,295.87 645.00,295.22 645.00,294.12 C645.00,293.02 644.55,291.84 644.00,291.50 C643.45,291.16 642.98,289.90 642.97,288.69 C642.95,287.49 642.06,284.70 641.00,282.50 C639.94,280.30 639.05,277.95 639.03,277.28 C639.02,276.61 638.37,276.30 637.60,276.60 C636.09,277.18 636.04,278.60 637.42,281.00 C638.13,282.22 638.04,282.27 636.95,281.25 C634.93,279.37 633.56,279.75 635.11,281.75 C636.35,283.35 635.11,282.55 631.00,279.10 C630.72,278.87 631.27,278.96 632.22,279.30 C633.16,279.64 634.24,279.41 634.62,278.80 C635.02,278.15 634.86,277.97 634.22,278.36 C633.63,278.73 632.83,278.53 632.44,277.91 C631.95,277.11 631.51,277.17 630.93,278.12 C630.43,278.92 630.65,280.07 631.48,280.98 C632.89,282.54 633.00,282.87 633.00,285.56 C633.00,286.42 633.45,286.84 634.00,286.50 C634.55,286.16 635.03,286.47 635.07,287.19 C635.11,287.91 635.48,287.63 635.89,286.57 C636.63,284.71 636.72,284.72 638.82,286.82 C641.40,289.40 641.56,290.57 639.45,291.38 C638.40,291.78 638.13,291.58 638.62,290.74 C639.02,290.06 638.36,290.36 637.17,291.41 C636.07,292.37 635.45,292.93 634.95,292.83 C634.29,292.71 633.83,291.45 632.75,288.50 C629.22,278.82 627.64,275.92 626.08,276.22 C624.16,276.59 623.33,286.22 622.83,314.22 C622.65,324.54 622.32,332.99 622.11,333.00 C621.17,333.01 619.05,329.32 618.96,327.50 L 618.86 325.50 L 618.05 327.50 C617.61,328.60 617.45,329.84 617.68,330.25 C617.92,330.66 617.61,331.00 617.00,331.00 C616.39,331.00 616.16,331.45 616.50,332.00 C616.84,332.55 616.59,333.00 615.94,333.00 C615.20,333.00 615.00,332.17 615.41,330.75 ZM 286.00 330.50 C286.68,329.67 286.88,329.00 286.43,329.00 C285.98,329.00 287.11,327.45 288.94,325.56 C292.06,322.34 292.27,321.69 292.26,315.31 C292.25,311.56 292.18,307.51 292.12,306.29 C291.90,302.29 276.74,290.76 274.43,292.83 C274.02,293.20 273.96,293.00 274.31,292.40 C274.65,291.79 273.85,290.80 272.52,290.19 C270.52,289.28 270.19,289.34 270.65,290.54 C270.96,291.34 271.62,292.00 272.11,292.00 C272.60,292.00 273.00,292.67 273.00,293.50 C273.00,295.50 269.07,295.44 266.16,293.40 C262.40,290.77 262.72,292.42 266.68,296.09 C272.28,301.26 274.18,302.13 276.11,300.40 C277.76,298.91 281.42,299.51 280.44,301.10 C280.13,301.60 280.47,302.01 281.19,302.03 C282.03,302.05 281.83,302.57 280.65,303.47 C279.51,304.33 279.10,305.38 279.57,306.18 C280.00,306.91 279.44,306.71 278.34,305.75 C277.24,304.78 276.04,304.30 275.67,304.66 C275.30,305.03 275.00,304.81 275.00,304.17 C275.00,303.52 274.47,303.00 273.82,303.00 C271.73,303.00 260.19,294.94 258.33,292.18 C254.50,286.48 254.02,285.09 255.58,284.21 C256.38,283.77 257.24,282.33 257.50,281.02 C257.75,279.72 258.47,278.33 259.10,277.94 C260.81,276.88 259.07,274.75 256.95,275.30 C252.41,276.49 255.09,268.56 260.66,264.31 C262.22,263.12 263.86,262.14 265.58,261.35 C265.29,261.73 265.24,262.19 265.45,262.73 C265.78,263.59 265.29,265.13 264.36,266.16 C263.39,267.23 262.48,270.27 262.24,273.27 C261.86,278.08 262.08,278.76 265.03,281.75 C266.79,283.54 268.60,285.00 269.04,285.00 C269.48,285.00 268.53,283.68 266.92,282.08 C266.57,281.72 266.24,281.35 265.95,280.96 C266.51,281.59 267.23,282.29 268.14,283.13 C270.42,285.23 273.12,287.22 274.14,287.55 C275.16,287.87 276.00,288.55 276.00,289.07 C276.00,289.58 276.64,290.00 277.43,290.00 C278.21,290.00 279.45,290.56 280.18,291.25 C280.91,291.94 283.19,293.63 285.27,295.00 C291.59,299.20 294.10,303.78 294.71,312.25 C295.29,320.34 294.10,324.01 289.20,329.25 C286.54,332.09 283.79,333.17 286.00,330.50 ZM 658.35 309.76 C658.08,309.32 658.22,309.01 658.68,309.09 C660.65,309.44 662.07,308.93 661.54,308.07 C661.23,307.56 661.42,306.86 661.98,306.51 C662.54,306.16 662.99,305.35 662.98,304.69 C662.97,303.89 662.68,303.95 662.11,304.86 C661.51,305.80 661.04,305.88 660.57,305.11 C660.19,304.50 660.29,304.00 660.79,304.00 C661.29,304.00 662.57,303.21 663.64,302.25 C665.07,300.96 665.43,299.71 665.02,297.50 C664.45,294.53 665.49,291.58 675.20,268.50 L 678.57 260.50 L 686.28 260.21 C692.57,259.97 694.00,260.19 694.00,261.40 C694.00,263.72 691.83,264.48 690.48,262.64 C689.52,261.33 689.05,261.25 688.27,262.24 C687.72,262.93 687.29,264.21 687.30,265.08 C687.34,266.97 690.00,267.25 690.00,265.36 C690.00,264.65 690.57,264.28 691.27,264.55 C692.06,264.85 692.63,267.37 692.79,271.27 C692.93,274.70 693.30,278.74 693.61,280.25 C694.14,282.92 692.77,284.06 691.50,282.00 C691.16,281.45 690.35,281.00 689.69,281.01 C689.04,281.01 689.85,281.91 691.50,283.00 C693.15,284.09 693.96,284.99 693.31,284.99 C692.65,285.00 691.82,284.52 691.46,283.93 C691.09,283.34 690.17,283.10 689.41,283.40 C688.65,283.69 688.07,283.61 688.13,283.21 C688.19,282.82 688.15,282.27 688.04,282.00 C687.30,280.09 687.33,278.09 688.10,278.56 C688.61,278.88 688.78,279.55 688.46,280.06 C688.15,280.57 688.67,280.68 689.65,280.31 C690.73,279.89 690.94,279.48 690.19,279.23 C689.53,279.01 689.23,278.43 689.53,277.95 C689.83,277.47 688.78,277.17 687.20,277.29 C685.63,277.40 684.33,278.04 684.33,278.71 C684.33,279.37 684.82,279.63 685.42,279.30 C686.01,278.96 686.17,279.05 685.76,279.50 C685.35,279.95 685.58,281.03 686.26,281.91 C687.36,283.33 687.30,283.35 685.71,282.09 C684.24,280.94 683.70,280.92 682.71,281.99 C681.74,283.03 681.80,283.12 683.00,282.45 C684.24,281.76 684.29,281.88 683.26,283.15 C682.58,283.99 682.35,285.05 682.76,285.50 C683.17,285.95 683.04,286.06 682.47,285.74 C681.90,285.41 681.32,283.67 681.19,281.87 C680.90,278.04 679.00,276.37 677.39,278.52 C675.74,280.72 675.30,280.34 675.51,276.88 L 675.69 273.76 L 673.90 276.13 C671.88,278.78 667.58,289.91 668.29,290.62 C668.54,290.88 669.82,288.95 671.12,286.34 C674.65,279.30 676.61,279.57 673.45,286.66 C672.01,289.87 669.43,296.21 667.70,300.75 C665.93,305.40 663.97,309.00 663.22,309.00 C662.48,309.00 662.10,309.35 662.37,309.79 C662.63,310.22 661.95,310.57 660.85,310.57 C659.75,310.57 658.63,310.21 658.35,309.76 ZM 439.62 302.45 C438.38,299.22 441.07,286.56 444.52,279.38 C454.40,258.86 479.48,252.74 499.11,266.07 C504.74,269.90 506.62,271.72 505.79,272.54 C505.57,272.77 503.68,272.04 501.60,270.93 C498.67,269.35 497.51,269.16 496.42,270.06 C495.65,270.70 495.22,271.55 495.47,271.95 C495.71,272.34 496.15,274.21 496.43,276.08 C496.88,279.05 496.79,279.25 495.72,277.61 C489.76,268.40 488.07,266.33 485.15,264.64 C480.02,261.67 470.01,262.07 464.90,265.45 C462.75,266.87 461.00,268.47 461.00,269.01 C461.00,269.56 460.33,270.00 459.50,270.00 C458.67,270.00 458.00,269.34 458.00,268.53 C458.00,266.47 455.97,267.60 452.76,271.46 C450.13,274.63 450.08,274.86 451.59,277.87 C452.44,279.59 453.55,281.00 454.05,281.00 C454.57,281.00 454.53,282.09 453.98,283.57 C453.44,284.98 452.99,287.56 452.98,289.32 C452.97,291.92 451.24,296.74 450.95,295.00 C450.90,294.73 450.63,291.80 450.35,288.50 C450.07,285.20 449.21,281.80 448.43,280.94 C447.31,279.69 447.28,279.10 448.26,278.04 C449.25,276.97 449.23,276.86 448.15,277.48 C446.10,278.64 443.05,286.06 443.02,289.94 C443.00,293.10 443.11,293.23 444.37,291.50 C445.69,289.70 445.78,289.72 446.51,292.02 C446.99,293.54 446.85,294.55 446.13,294.79 C445.51,295.00 445.00,296.02 445.00,297.05 C445.00,298.32 444.51,298.75 443.50,298.36 C442.15,297.84 441.39,300.14 441.88,303.25 C442.11,304.67 440.21,304.00 439.62,302.45 ZM 537.17 291.74 C537.38,286.27 537.14,283.36 536.50,283.67 C535.95,283.93 536.37,283.44 537.44,282.57 C538.51,281.71 538.89,281.00 538.28,281.00 C537.11,281.00 537.20,277.11 538.40,275.15 C538.80,274.52 539.68,274.00 540.37,274.00 C541.89,274.00 546.27,269.44 548.03,266.04 L 549.30 263.57 L 546.40 265.38 C544.80,266.37 542.06,268.82 540.31,270.82 C538.56,272.82 536.78,274.12 536.37,273.71 C535.01,272.34 543.17,265.20 549.37,262.34 C554.65,259.91 556.75,259.52 564.50,259.51 C571.81,259.50 574.58,259.96 579.25,261.93 C582.41,263.27 585.00,264.66 585.00,265.02 C585.00,265.38 586.23,266.24 587.73,266.92 C590.15,268.03 590.26,268.27 588.72,269.14 C587.77,269.67 586.54,269.83 585.99,269.50 C584.53,268.59 584.85,271.22 586.47,273.35 C587.24,274.37 588.35,274.90 588.93,274.54 C589.53,274.17 590.03,274.68 590.08,275.69 C590.12,276.69 590.31,278.32 590.50,279.31 C590.82,281.02 590.70,281.03 588.33,279.48 C586.95,278.58 585.57,278.10 585.25,278.42 C584.93,278.74 585.18,279.00 585.80,279.00 C586.45,279.00 586.66,279.71 586.30,280.66 C585.76,282.06 585.53,281.97 584.83,280.07 C584.37,278.83 584.26,277.40 584.57,276.88 C584.89,276.37 584.73,276.07 584.22,276.23 C583.71,276.38 581.75,274.48 579.86,272.01 C573.06,263.14 566.34,260.58 557.32,263.42 C552.82,264.84 551.20,266.06 547.47,270.81 C545.01,273.94 543.00,277.20 543.00,278.05 C543.00,278.90 542.51,280.09 541.92,280.68 C541.32,281.28 540.58,285.29 540.27,289.60 C539.92,294.39 539.15,297.99 538.27,298.87 C537.03,300.11 536.89,299.16 537.17,291.74 ZM 721.88 273.75 C721.72,272.06 721.75,271.86 722.53,268.73 C723.07,266.60 722.86,266.00 721.61,266.00 C718.86,266.00 719.83,264.47 724.07,262.08 C731.39,257.97 744.69,258.32 749.81,262.76 C751.02,263.81 752.07,266.38 752.47,269.25 C752.56,269.91 752.62,270.50 752.65,271.03 C752.62,270.78 752.57,270.52 752.52,270.25 C751.68,265.75 751.55,265.58 749.73,266.66 C748.58,267.34 748.51,267.92 749.48,270.32 C747.51,266.06 742.43,261.93 739.69,262.44 C738.49,262.67 735.86,262.88 733.86,262.93 C728.96,263.03 724.00,267.54 724.00,271.90 C724.00,274.82 722.14,276.44 721.88,273.75 ZM 694.18 332.92 C693.33,331.55 692.30,331.05 691.19,331.48 C690.00,331.93 690.16,331.51 691.72,330.05 C692.93,328.92 693.73,327.43 693.49,326.74 C692.21,323.15 691.62,309.88 692.59,306.75 C693.94,302.41 694.87,305.98 695.54,318.06 C696.02,326.70 696.71,331.57 697.58,332.44 C698.31,333.17 698.63,334.04 698.29,334.38 C697.10,335.57 695.47,334.99 694.18,332.92 ZM 244.82 345.19 C241.90,344.95 240.45,344.03 237.73,340.69 C232.89,334.75 231.51,332.00 233.40,332.00 C234.20,332.00 235.12,332.80 235.43,333.77 C236.74,337.91 241.56,341.71 246.44,342.44 C249.49,342.90 251.63,342.77 252.32,342.08 C253.09,341.31 253.09,341.00 252.31,341.00 C251.71,341.00 250.98,340.40 250.70,339.66 C250.33,338.70 250.86,338.44 252.51,338.76 C255.42,339.31 259.45,342.96 258.33,344.02 C257.33,344.97 249.89,345.62 244.82,345.19 ZM 682.00 331.65 C682.00,330.71 682.57,330.28 683.37,330.59 C684.38,330.98 684.62,330.44 684.26,328.56 C683.99,327.15 683.37,326.00 682.88,326.00 C681.81,326.00 681.89,319.47 683.00,316.00 L 683.80 313.50 L 683.90 315.94 C683.99,318.24 684.08,318.27 685.35,316.54 C686.28,315.26 686.91,315.05 687.41,315.85 C687.80,316.48 687.81,317.00 687.44,317.00 C687.06,317.00 687.28,317.63 687.93,318.41 C688.73,319.38 688.77,320.03 688.05,320.47 C687.47,320.83 687.00,321.79 687.00,322.62 C687.00,323.44 687.34,323.91 687.75,323.65 C688.16,323.40 688.50,324.27 688.50,325.60 C688.50,326.92 688.14,328.00 687.69,328.00 C687.25,328.00 687.16,328.46 687.51,329.02 C687.86,329.58 688.67,329.71 689.32,329.32 C689.99,328.92 689.91,329.34 689.13,330.31 C687.64,332.14 686.49,332.63 687.50,331.00 C688.40,329.55 687.28,329.77 684.46,331.62 C682.23,333.08 682.00,333.08 682.00,331.65 ZM 751.45 306.53 C750.65,304.62 750.00,302.36 750.00,301.50 C750.00,300.64 749.21,299.64 748.25,299.27 C744.69,297.90 732.68,288.99 733.42,288.25 C734.06,287.61 740.00,290.31 740.00,291.24 C740.00,291.66 740.48,292.00 741.07,292.00 C741.66,292.00 742.71,292.56 743.41,293.25 C744.11,293.94 746.17,295.62 747.98,297.00 C750.84,299.17 755.00,306.33 755.00,309.08 C755.00,311.30 752.77,309.70 751.45,306.53 ZM 739.86 307.18 C738.40,306.25 734.58,303.94 731.36,302.04 C724.32,297.88 717.00,291.33 717.00,289.21 C717.00,288.22 718.34,289.01 720.75,291.43 C722.81,293.50 726.11,296.02 728.07,297.02 C730.03,298.03 732.22,299.56 732.94,300.43 C733.66,301.29 734.80,302.00 735.48,302.00 C736.16,302.00 738.39,303.58 740.43,305.50 C744.39,309.24 744.16,309.91 739.86,307.18 ZM 553.46 332.06 C553.77,331.56 553.23,330.87 552.26,330.54 C550.67,329.99 547.83,326.52 542.64,318.75 C540.00,314.79 538.79,309.00 540.61,309.00 C541.37,309.00 542.00,309.79 542.01,310.75 C542.03,314.25 546.78,322.59 550.85,326.25 C553.13,328.31 554.67,330.01 554.25,330.02 C553.84,330.02 554.10,330.41 554.83,330.88 C555.90,331.55 555.84,331.85 554.53,332.35 C553.63,332.69 553.15,332.56 553.46,332.06 ZM 487.59 332.37 C487.15,331.22 487.41,330.94 488.54,331.38 C489.51,331.75 489.85,331.57 489.44,330.90 C489.07,330.31 487.90,330.05 486.83,330.33 C485.61,330.65 486.52,329.31 489.32,326.67 C495.57,320.79 496.74,318.06 499.90,302.00 L 500.79 297.50 L 500.88 303.00 C501.01,311.00 497.54,319.58 491.64,325.82 C488.67,328.97 488.60,329.21 490.33,330.49 C492.10,331.79 492.09,331.88 490.18,332.90 C488.62,333.74 488.07,333.62 487.59,332.37 ZM 647.11 322.75 C644.75,317.11 642.75,311.60 642.66,310.50 C642.57,309.40 642.05,308.13 641.50,307.67 C640.88,307.16 641.01,306.98 641.83,307.20 C642.55,307.39 643.13,307.87 643.10,308.26 C643.07,308.66 644.16,311.07 645.52,313.64 C646.88,316.20 648.00,318.81 648.00,319.44 C648.00,320.79 651.33,327.49 653.00,329.50 C654.14,330.88 653.62,333.00 652.15,333.00 C651.74,333.00 649.48,328.39 647.11,322.75 ZM 280.25 263.34 C280.53,263.45 280.81,263.56 281.03,263.66 C277.05,262.59 272.63,262.88 269.33,264.52 C269.43,264.47 269.52,264.42 269.62,264.37 C272.66,262.73 273.96,259.88 272.53,259.36 C276.67,258.80 281.03,259.27 285.42,260.79 C286.01,261.00 286.56,261.20 287.06,261.41 C285.79,261.25 285.34,261.96 287.03,263.13 C288.16,263.92 287.91,264.06 285.92,263.75 C283.73,263.40 283.46,263.41 285.73,265.76 C284.51,264.94 283.14,264.30 281.70,263.85 C281.82,263.64 282.04,262.95 282.26,262.13 C282.63,260.69 282.31,260.37 280.87,260.74 C278.73,261.30 278.42,262.60 280.25,263.34 ZM 528.15 287.82 C529.12,283.50 530.60,281.70 532.58,282.42 C533.18,282.63 533.67,282.20 533.67,281.46 C533.67,280.44 533.16,280.35 531.58,281.11 C529.61,282.06 529.62,282.01 531.71,280.18 C532.92,279.12 533.60,277.90 533.21,277.46 C532.82,277.03 533.07,277.01 533.77,277.41 C534.46,277.81 534.73,278.63 534.35,279.24 C533.93,279.92 534.24,280.12 535.17,279.77 C536.03,279.44 536.67,279.75 536.67,280.50 C536.67,281.22 536.08,281.59 535.37,281.31 C534.53,280.99 534.21,281.49 534.45,282.76 C534.81,284.60 532.45,287.98 528.85,290.79 C527.34,291.97 527.28,291.71 528.15,287.82 ZM 654.49 324.25 C654.71,322.19 654.91,320.23 654.94,319.90 C655.08,318.51 659.94,314.09 660.44,314.90 C661.06,315.91 655.88,327.92 654.80,327.97 C654.41,327.99 654.27,326.31 654.49,324.25 ZM 740.75 330.34 C741.44,330.06 742.00,329.43 742.00,328.94 C742.00,328.45 742.94,326.57 744.09,324.77 L 746.19 321.50 L 745.16 328.76 L 748.14 327.28 C752.03,325.34 752.62,326.07 749.53,328.98 C747.45,330.93 746.81,331.09 745.49,329.99 C744.30,329.00 743.63,328.97 742.76,329.84 C742.12,330.48 741.13,330.96 740.55,330.92 C739.97,330.88 740.06,330.62 740.75,330.34 ZM 166.71 321.68 L 167.40 326.50 L 168.69 321.00 C169.41,317.98 169.88,314.38 169.73,313.00 C169.48,310.53 169.45,310.54 167.75,313.68 C166.43,316.10 166.18,318.02 166.71,321.68 ZM 591.45 275.35 C588.97,272.67 588.22,270.00 589.95,270.00 C590.92,270.00 596.00,276.16 596.00,277.34 C596.00,278.82 593.75,277.84 591.45,275.35 ZM 469.00 334.50 C469.00,333.67 469.79,332.95 470.75,332.89 C471.71,332.82 473.73,332.63 475.23,332.45 C476.73,332.27 478.22,332.54 478.53,333.05 C478.85,333.56 478.41,333.71 477.56,333.38 C476.65,333.04 475.76,333.45 475.40,334.40 C474.59,336.51 469.00,336.60 469.00,334.50 ZM 687.50 312.58 C687.23,311.71 686.78,310.29 686.50,309.43 C686.14,308.27 686.59,307.95 688.23,308.18 C689.83,308.41 690.45,309.18 690.45,310.93 C690.44,313.71 688.25,314.95 687.50,312.58 ZM 681.49 301.94 C681.11,299.15 681.07,296.60 681.40,296.27 C681.73,295.94 682.00,296.62 682.00,297.77 C682.00,298.93 682.45,300.16 683.00,300.50 C684.25,301.27 684.33,307.00 683.09,307.00 C682.60,307.00 681.87,304.72 681.49,301.94 ZM 419.43 280.48 C418.72,276.68 419.20,275.39 420.93,276.46 C422.26,277.28 422.35,282.67 421.05,283.47 C420.53,283.79 419.80,282.45 419.43,280.48 ZM 266.39 285.89 C264.87,284.30 263.15,283.01 262.56,283.02 C261.98,283.02 262.10,283.41 262.84,283.88 C263.57,284.34 264.13,285.12 264.08,285.61 C263.91,287.17 267.01,290.11 268.11,289.43 C268.75,289.03 268.09,287.66 266.39,285.89 ZM 574.00 330.17 C574.00,329.72 575.12,328.29 576.50,327.00 C578.48,325.14 579.00,324.98 579.00,326.25 C579.00,328.00 576.42,331.00 574.93,331.00 C574.42,331.00 574.00,330.63 574.00,330.17 ZM 316.41 269.70 C314.16,268.43 312.83,269.81 314.08,272.14 C315.12,274.09 315.21,274.10 316.50,272.33 C317.63,270.79 317.62,270.37 316.41,269.70 ZM 375.00 323.56 C375.00,318.71 376.57,318.29 376.85,323.06 C376.98,325.27 376.62,327.00 376.04,327.00 C375.47,327.00 375.00,325.45 375.00,323.56 ZM 620.49 309.25 C620.30,308.29 620.12,307.16 620.08,306.75 C619.87,304.75 618.00,306.32 618.00,308.50 C618.00,309.99 618.57,311.00 619.41,311.00 C620.22,311.00 620.68,310.25 620.49,309.25 ZM 382.00 263.08 C382.00,261.91 379.87,261.16 378.25,261.75 C376.09,262.55 376.89,264.00 379.50,264.00 C380.88,264.00 382.00,263.59 382.00,263.08 ZM 527.07 296.25 C527.13,293.24 527.31,292.90 528.00,294.50 C529.19,297.28 529.19,300.00 528.00,300.00 C527.45,300.00 527.03,298.31 527.07,296.25 ZM 580.87 265.90 C578.38,264.32 577.66,264.97 579.57,267.08 C580.78,268.42 581.59,268.73 581.85,267.96 C582.06,267.31 581.63,266.38 580.87,265.90 ZM 278.13 302.66 C277.52,301.92 277.35,300.92 277.76,300.44 C278.17,299.96 277.69,300.19 276.70,300.94 C275.30,302.02 275.19,302.50 276.20,303.15 C278.23,304.43 279.36,304.14 278.13,302.66 ZM 686.26 325.89 C685.52,323.04 685.00,323.61 685.02,327.25 C685.03,329.46 685.31,330.06 685.89,329.14 C686.37,328.39 686.53,326.93 686.26,325.89 ZM 237.67 334.33 C236.71,333.38 236.84,332.00 237.89,332.00 C238.38,332.00 239.05,332.67 239.36,333.50 C239.95,335.02 238.88,335.55 237.67,334.33 ZM 106.43 368.95 C104.50,366.39 102.38,363.48 100.01,360.18 C100.41,360.37 100.91,360.50 101.33,360.50 C101.97,360.50 102.50,361.17 102.50,362.00 C102.50,362.73 104.19,365.70 106.43,368.95 ZM 743.00 332.73 C743.00,331.84 743.41,330.86 743.91,330.55 C744.41,330.24 744.73,330.65 744.61,331.47 C744.29,333.61 743.00,334.62 743.00,332.73 ZM 740.00 305.61 C740.00,305.39 739.30,304.95 738.45,304.62 C737.56,304.28 737.16,304.44 737.51,305.01 C738.09,305.96 740.00,306.42 740.00,305.61 ZM 291.39 269.29 L 290.84 271.50 L 288.80 268.70 C290.06,269.69 290.89,269.89 291.39,269.29 ZM 692.56 333.29 C692.02,331.87 692.14,331.75 693.12,332.73 C693.81,333.41 694.11,334.22 693.81,334.53 C693.50,334.83 692.94,334.28 692.56,333.29 ZM 225.58 260.91 C225.54,260.79 225.50,260.66 225.46,260.53 C224.64,258.11 224.05,255.75 224.15,255.31 C224.23,254.95 224.20,254.27 223.97,252.83 C224.22,254.21 224.40,255.37 224.57,256.50 C224.64,257.02 225.02,258.66 225.58,260.91 ZM 105.88 317.42 C105.70,317.20 105.57,317.06 105.49,316.99 C104.67,316.31 103.99,315.25 103.99,314.63 C103.98,314.01 100.83,309.24 96.99,304.03 C100.83,309.24 103.98,313.87 103.99,314.33 C103.99,314.66 104.77,315.90 105.88,317.42 ZM 264.64 270.05 C264.26,271.52 264.00,273.54 264.00,275.20 C264.00,275.75 264.01,276.23 264.05,276.68 C263.60,274.48 263.82,272.15 264.64,270.05 ZM 160.20 300.01 C159.59,302.49 158.97,304.40 158.35,305.72 C157.99,306.49 157.30,307.63 156.40,308.96 C158.02,306.35 159.21,303.60 160.20,300.01 ZM 145.53 323.57 C145.46,323.77 145.45,323.91 145.49,323.99 C145.79,324.47 145.58,325.14 145.02,325.49 C144.91,325.56 144.80,325.64 144.70,325.73 C144.94,324.97 145.21,324.27 145.53,323.57 ZM 152.37 314.37 C151.84,315.03 151.30,315.68 150.77,316.30 C148.68,318.74 146.95,321.06 146.08,322.51 C147.17,320.54 148.79,318.51 151.36,315.55 C151.71,315.15 152.05,314.75 152.37,314.37 ZM 145.11 335.25 C144.45,336.05 143.94,336.19 143.64,335.70 C144.08,335.85 144.65,335.69 145.11,335.25 ZM 195.31 237.70 C196.48,235.31 197.36,234.00 197.86,234.00 C197.45,234.00 196.41,235.54 195.31,237.70 ZM 110.43 323.53 C109.33,322.00 108.33,320.63 107.52,319.55 C108.15,320.35 109.16,321.74 110.43,323.53 ZM 751.92 273.98 C751.55,273.96 751.06,273.47 750.49,272.47 C751.03,273.39 751.53,273.89 751.92,273.98 ZM 199.57 237.29 C200.60,239.82 201.96,243.58 203.32,247.75 C203.43,248.09 203.54,248.43 203.66,248.77 C203.54,248.42 203.43,248.08 203.32,247.75 C201.96,243.58 200.60,239.82 199.57,237.29 Z" fill="rgba(179,118,0,1)"/>
<path d="M 87.45 342.60 C88.44,343.86 89.30,344.94 90.00,345.77 C90.82,346.75 91.16,347.11 90.75,346.58 C90.34,346.04 90.00,344.88 90.00,344.00 C90.00,343.11 88.52,340.77 86.71,338.79 C81.16,332.74 79.38,327.36 83.25,328.33 C85.16,328.81 85.26,328.72 83.94,327.70 C81.68,325.96 82.95,321.41 85.60,321.78 C88.18,322.14 90.84,316.26 90.94,310.00 C91.06,302.32 91.15,302.01 93.04,303.02 C96.06,304.64 96.03,302.81 92.98,298.66 C91.34,296.43 90.00,293.88 90.00,292.98 C90.00,292.98 90.00,292.98 90.00,292.98 C90.04,293.90 93.17,298.85 96.99,304.03 C100.83,309.24 103.98,314.01 103.99,314.63 C103.99,315.25 104.67,316.31 105.49,316.99 C106.65,317.95 120.43,337.49 124.19,343.51 C124.66,344.26 123.39,344.60 120.19,344.56 C115.80,344.50 115.48,344.68 115.18,347.25 C115.01,348.76 114.43,350.00 113.90,350.00 C112.85,350.00 113.10,353.78 114.27,355.65 C114.67,356.28 114.30,357.05 113.44,357.38 C112.59,357.71 112.15,357.56 112.47,357.05 C112.79,356.54 112.21,356.18 111.19,356.26 C110.17,356.34 109.33,356.97 109.33,357.66 C109.33,358.35 109.65,358.72 110.03,358.48 C110.42,358.24 111.38,358.82 112.18,359.77 C113.46,361.31 113.37,361.74 111.35,363.67 C109.34,365.60 109.03,365.66 108.55,364.17 C107.85,361.97 101.23,356.74 100.07,357.46 C98.93,358.16 97.51,356.69 92.50,349.56 C91.17,347.67 89.28,345.06 87.45,342.60 ZM 193.95 240.65 C190.56,248.40 185.60,262.22 180.58,278.28 C176.28,292.04 175.12,294.61 174.28,292.25 C173.57,290.26 172.59,290.78 171.23,293.85 C170.54,295.41 168.85,297.20 167.48,297.83 C166.12,298.45 165.00,299.64 165.00,300.48 C165.00,301.32 164.44,302.01 163.75,302.02 C162.85,302.03 162.88,302.27 163.88,302.91 C164.98,303.60 164.85,303.91 163.27,304.41 C162.18,304.76 160.52,306.72 159.58,308.77 C158.65,310.82 156.35,313.62 154.47,315.00 C152.59,316.38 151.04,317.83 151.03,318.24 C150.98,319.42 144.00,328.26 144.00,327.14 C144.00,326.58 144.46,325.84 145.02,325.49 C145.58,325.14 145.79,324.47 145.49,323.99 C145.19,323.50 147.57,320.05 150.77,316.30 C153.97,312.56 157.38,307.80 158.35,305.72 C160.27,301.62 162.14,291.94 163.90,277.00 C164.77,269.59 166.97,259.41 169.24,251.05 C169.20,251.35 169.21,251.55 169.28,251.61 C169.56,251.90 170.61,250.28 171.61,248.02 L 173.42 243.91 L 175.15 246.19 L 176.87 248.47 L 179.27 246.22 C181.56,244.07 181.84,244.03 185.33,245.50 C189.30,247.15 189.49,247.57 188.02,251.43 C187.47,252.89 187.44,254.00 187.95,254.00 C188.44,254.00 189.40,252.31 190.08,250.25 C191.07,247.23 192.54,243.67 193.95,240.65 ZM 219.49 232.35 C223.65,250.34 224.39,254.25 224.15,255.31 C224.05,255.75 224.64,258.11 225.46,260.53 C226.95,264.93 226.57,271.47 224.88,270.42 C224.40,270.13 224.00,270.61 224.00,271.50 C224.00,272.39 223.55,272.84 222.99,272.50 C222.44,272.15 221.28,272.58 220.42,273.44 C219.56,274.30 217.99,275.00 216.93,275.00 C214.70,275.00 214.23,278.83 216.20,280.80 C217.60,282.20 219.94,290.72 219.15,291.51 C218.58,292.09 210.50,269.76 203.32,247.75 C200.90,240.32 198.48,234.21 197.89,234.01 C197.91,234.00 197.92,234.00 197.94,234.00 C198.50,234.00 199.24,235.12 199.59,236.50 C200.19,238.91 203.00,240.10 203.00,237.94 C203.00,237.36 203.52,237.20 204.15,237.60 C204.82,238.01 205.04,237.87 204.68,237.28 C204.33,236.72 204.90,235.26 205.96,234.05 C207.01,232.83 207.64,231.24 207.36,230.50 C207.04,229.66 207.72,229.04 209.17,228.83 C210.45,228.65 211.43,228.05 211.35,227.50 C211.11,225.93 213.09,222.75 213.83,223.50 C214.49,224.16 214.63,224.66 214.88,227.35 C215.01,228.77 218.33,233.00 219.32,233.00 C219.46,233.00 219.51,232.76 219.49,232.35 ZM 265.03 281.75 C262.08,278.76 261.86,278.08 262.24,273.27 C262.48,270.27 263.39,267.23 264.36,266.16 C265.29,265.13 265.78,263.59 265.45,262.73 C265.06,261.71 265.56,260.98 266.93,260.59 C268.07,260.27 269.90,259.74 271.00,259.43 C274.49,258.44 273.40,262.33 269.62,264.37 C263.21,267.82 261.82,276.97 266.92,282.08 C268.53,283.68 269.48,285.00 269.04,285.00 C268.60,285.00 266.79,283.54 265.03,281.75 ZM 286.92 266.98 C283.42,263.43 283.40,263.35 285.92,263.75 C287.91,264.06 288.16,263.92 287.03,263.13 C284.48,261.36 286.81,260.65 289.47,262.39 C290.94,263.35 291.99,264.98 291.98,266.27 C291.96,270.52 290.60,270.71 286.92,266.98 ZM 107.37 370.30 C104.69,366.56 102.50,362.83 102.50,362.00 C102.50,361.17 101.97,360.50 101.33,360.50 C100.69,360.50 99.86,360.20 99.49,359.83 C99.12,359.45 99.49,359.25 100.31,359.37 C102.16,359.64 105.00,361.93 105.00,363.16 C105.00,363.67 105.94,365.08 107.08,366.29 C109.29,368.63 113.24,376.09 112.61,376.72 C112.41,376.92 110.05,374.03 107.37,370.30 ZM 166.71 321.68 C166.18,318.02 166.43,316.10 167.75,313.68 C169.45,310.54 169.48,310.53 169.73,313.00 C169.88,314.38 169.41,317.98 168.69,321.00 L 167.40 326.50 ZM 154.00 329.99 C153.17,329.47 151.60,329.31 150.50,329.63 C148.61,330.18 148.62,330.09 150.70,327.93 C152.39,326.19 153.36,325.87 154.83,326.58 C156.10,327.18 156.54,328.09 156.13,329.21 C155.67,330.45 155.08,330.66 154.00,329.99 ZM 749.66 270.75 C748.51,267.98 748.52,267.37 749.73,266.66 C751.55,265.58 751.68,265.75 752.52,270.25 C752.52,270.25 752.52,270.26 752.52,270.26 C752.39,270.10 752.23,270.00 752.06,270.00 C751.06,270.00 750.27,271.02 750.25,272.02 C750.05,271.65 749.86,271.23 749.66,270.75 ZM 217.64 333.31 C216.40,332.07 217.02,329.00 218.50,329.00 C219.32,329.00 220.00,329.87 220.00,330.94 C220.00,333.03 218.68,334.35 217.64,333.31 ZM 280.25 263.34 C278.42,262.60 278.73,261.30 280.87,260.74 C282.31,260.37 282.63,260.69 282.26,262.13 C281.99,263.16 281.71,263.96 281.63,263.92 C281.56,263.88 280.94,263.62 280.25,263.34 ZM 143.00 334.58 C143.00,333.71 143.71,333.00 144.58,333.00 C145.45,333.00 145.99,333.53 145.77,334.19 C145.15,336.04 143.00,336.35 143.00,334.58 ZM 617.50 261.00 C617.16,260.45 617.84,260.00 619.00,260.00 C620.16,260.00 620.84,260.45 620.50,261.00 C620.16,261.55 619.49,262.00 619.00,262.00 C618.51,262.00 617.84,261.55 617.50,261.00 ZM 211.70 201.63 C213.31,206.92 214.73,211.93 215.33,214.50 C216.66,220.20 217.81,225.11 218.79,229.33 C218.18,227.07 217.02,222.20 215.97,217.50 C215.13,213.74 213.46,207.56 211.70,201.63 ZM 170.88 245.35 C172.60,239.81 174.18,236.00 175.05,236.00 C174.49,236.00 172.40,241.00 170.88,245.35 ZM 118.57 262.55 C132.27,248.57 147.05,233.84 153.36,228.17 C147.10,233.80 132.30,248.55 118.57,262.55 ZM 752.55 273.62 C752.40,273.93 752.18,274.05 751.91,273.98 C752.15,273.96 752.37,273.83 752.55,273.62 Z" fill="rgba(185,126,0,1)"/>
<path d="M 173.96 180.02 C172.94,180.66 173.37,180.85 175.43,180.69 C177.21,180.56 178.89,179.41 179.09,178.66 C180.84,178.57 182.68,178.48 184.60,178.39 C193.57,177.95 198.82,178.12 201.26,178.92 C204.76,180.08 204.90,180.33 209.28,193.80 C211.74,201.33 214.75,212.00 215.97,217.50 C217.20,223.00 218.58,228.74 219.05,230.25 C219.51,231.76 219.63,233.00 219.32,233.00 C218.33,233.00 215.01,228.77 214.88,227.35 C214.63,224.66 214.49,224.16 213.83,223.50 C213.09,222.75 211.11,225.93 211.35,227.50 C211.43,228.05 210.45,228.65 209.17,228.83 C207.72,229.04 207.04,229.66 207.36,230.50 C207.64,231.24 207.01,232.83 205.96,234.05 C204.90,235.26 204.33,236.72 204.68,237.28 C205.04,237.87 204.82,238.01 204.15,237.60 C203.52,237.20 203.00,237.36 203.00,237.94 C203.00,240.10 200.19,238.91 199.59,236.50 C199.24,235.12 198.50,234.00 197.94,234.00 C196.90,234.00 192.31,243.49 190.08,250.25 C189.40,252.31 188.44,254.00 187.95,254.00 C187.44,254.00 187.47,252.89 188.02,251.43 C189.49,247.57 189.30,247.15 185.33,245.50 C181.84,244.03 181.56,244.07 179.27,246.22 L 176.87 248.47 L 175.15 246.19 L 173.42 243.91 L 171.61 248.02 C170.61,250.28 169.56,251.90 169.28,251.61 C168.57,250.90 174.08,236.00 175.05,236.00 C175.71,236.00 176.91,232.30 177.23,229.27 C177.28,228.84 179.02,225.09 181.09,220.93 C185.92,211.26 186.97,207.23 184.15,208.06 C186.24,207.41 186.35,209.22 184.55,213.53 C182.74,217.87 183.40,218.06 185.58,213.84 C186.99,211.13 187.04,210.14 185.93,206.79 C185.22,204.65 184.21,202.63 183.67,202.30 C183.08,201.93 183.02,202.22 183.51,203.02 C184.11,203.99 183.87,204.16 182.61,203.68 C181.59,203.29 181.14,203.42 181.51,204.02 C181.85,204.57 181.54,205.59 180.81,206.30 C178.37,208.67 172.04,212.14 171.15,211.59 C170.67,211.29 169.42,211.98 168.38,213.13 C167.35,214.27 164.48,216.36 162.00,217.77 C159.53,219.18 156.38,221.32 155.00,222.54 C153.62,223.75 151.71,224.73 150.74,224.71 C149.18,224.67 149.14,224.43 150.36,222.59 C151.12,221.45 152.36,220.46 153.12,220.41 C156.52,220.15 157.00,219.90 157.00,218.38 C157.00,217.10 156.35,216.88 154.01,217.35 C151.21,217.91 151.09,217.82 152.26,215.90 C153.34,214.12 153.16,213.58 150.84,211.68 C148.61,209.86 148.40,209.29 149.54,208.25 C150.30,207.56 151.16,207.00 151.46,207.00 C151.76,207.00 151.89,207.56 151.75,208.25 C151.61,208.94 152.12,209.37 152.88,209.21 C153.63,209.05 155.13,209.72 156.22,210.70 C158.10,212.40 158.24,212.40 159.59,210.55 C160.59,209.18 160.67,208.42 159.89,207.93 C159.08,207.43 159.08,207.07 159.89,206.57 C160.50,206.19 161.00,205.51 161.00,205.06 C161.00,204.07 156.12,201.96 153.34,201.75 C152.24,201.67 151.33,201.03 151.33,200.34 C151.33,199.65 151.62,199.27 151.98,199.49 C152.34,199.71 154.74,197.92 157.33,195.51 L 162.03 191.13 L 160.23 187.90 C159.23,186.12 157.76,184.36 156.96,183.99 C156.16,183.62 154.49,182.79 153.26,182.16 C150.63,180.80 149.69,180.68 150.39,181.82 C150.67,182.27 149.59,182.64 148.00,182.64 C146.41,182.64 145.30,182.33 145.53,181.95 C145.76,181.58 145.06,180.46 143.98,179.48 C143.81,179.33 143.66,179.16 143.51,178.99 C146.38,180.27 154.48,179.88 177.04,178.76 C177.02,178.85 177.00,178.95 177.00,179.06 C177.00,179.64 176.64,179.90 176.20,179.62 C175.76,179.35 174.75,179.53 173.96,180.02 ZM 56.66 307.26 C57.36,308.40 61.61,305.50 68.60,299.11 C74.71,293.53 74.30,293.19 67.74,298.29 C76.98,291.02 86.61,281.99 97.69,270.26 C103.26,264.36 108.14,259.16 112.37,254.60 C112.13,254.93 112.00,255.17 112.00,255.29 C112.00,255.76 113.18,254.75 114.62,253.03 C116.07,251.32 117.49,250.16 117.79,250.46 C118.65,251.31 122.00,247.87 122.00,246.13 C122.00,245.25 120.39,246.26 117.74,248.79 C120.89,245.35 123.58,242.37 125.85,239.81 C124.37,241.66 123.90,242.69 124.63,242.58 C125.55,242.45 127.14,241.25 128.16,239.92 C132.53,234.21 142.04,225.89 139.50,230.00 C139.16,230.55 139.33,231.00 139.88,231.00 C140.43,231.00 141.14,230.59 141.44,230.09 C141.75,229.59 142.79,229.33 143.75,229.51 C144.71,229.70 145.90,229.88 146.39,229.92 C146.88,229.97 143.84,233.41 139.64,237.59 C135.44,241.76 132.00,245.84 132.00,246.65 C132.00,247.46 131.62,247.88 131.15,247.59 C130.68,247.30 129.29,248.13 128.07,249.43 C126.43,251.17 126.17,251.99 127.08,252.55 C127.56,252.84 130.09,250.73 133.13,247.83 C113.98,267.00 90.00,291.87 90.00,292.98 C90.00,293.88 91.34,296.43 92.98,298.66 C96.03,302.81 96.06,304.64 93.04,303.02 C91.15,302.01 91.06,302.32 90.94,310.00 C90.84,316.26 88.18,322.14 85.60,321.78 C82.95,321.41 81.68,325.96 83.94,327.70 C85.26,328.72 85.16,328.81 83.25,328.33 C79.38,327.36 81.16,332.74 86.71,338.79 C88.52,340.77 90.00,343.11 90.00,344.00 C90.00,344.88 90.34,346.04 90.75,346.58 C91.16,347.11 90.82,346.75 90.00,345.77 C86.63,341.77 79.41,332.00 73.91,324.00 C68.96,316.80 66.44,313.41 64.74,311.95 C65.24,312.32 65.74,312.77 66.17,313.25 C68.39,315.76 67.66,313.93 64.80,309.80 C62.62,306.64 61.47,306.88 56.32,311.60 C51.58,315.94 49.53,316.08 50.35,312.00 C50.80,309.77 50.58,309.00 49.51,309.00 C48.88,309.00 48.54,307.59 48.40,301.85 C48.65,306.64 49.27,308.87 50.54,309.36 C51.91,309.89 54.05,308.43 57.32,306.03 C56.79,306.59 56.53,307.04 56.66,307.26 ZM 21.52 355.88 C21.29,357.11 21.52,357.80 22.07,357.46 C22.60,357.13 22.80,356.49 22.52,356.04 C22.24,355.58 22.65,354.96 23.44,354.66 C24.40,354.29 24.75,354.69 24.52,355.89 C24.33,356.91 24.78,357.67 25.57,357.67 C26.62,357.67 26.69,357.34 25.86,356.33 C25.25,355.60 25.18,355.00 25.70,355.00 C26.23,355.00 26.46,353.65 26.21,352.00 C25.84,349.47 26.11,349.00 27.89,349.00 C29.43,349.00 30.45,350.09 31.60,352.96 C32.47,355.14 34.08,357.21 35.17,357.55 C37.49,358.29 37.70,358.15 38.15,355.50 C38.56,353.15 41.97,350.05 43.49,350.64 C44.15,350.89 44.49,349.43 44.38,346.77 C44.28,344.42 44.47,340.48 44.79,338.00 C45.36,333.71 45.42,333.64 46.08,336.50 C46.75,339.44 46.77,339.42 46.88,335.75 C46.95,333.69 47.35,332.00 47.79,332.00 C48.22,332.00 48.42,329.35 48.23,326.12 L 47.88 320.24 L 48.20 320.02 L 48.61 339.76 C49.34,374.80 49.59,377.77 52.07,381.40 C53.14,382.96 54.72,384.38 56.47,385.45 C55.77,385.27 55.01,385.53 53.82,386.24 C52.24,387.18 48.29,387.60 41.50,387.56 C36.00,387.53 31.26,387.82 30.96,388.22 C30.42,388.94 29.22,389.02 19.00,389.03 C15.98,389.04 12.71,389.29 11.75,389.59 C10.79,389.89 10.00,389.65 10.00,389.07 C10.00,388.48 10.63,388.00 11.39,388.00 C12.16,388.00 13.03,387.37 13.32,386.60 C13.95,384.97 12.46,385.07 9.21,386.85 C8.15,387.44 6.66,387.74 5.59,387.62 C6.90,387.72 9.01,386.91 11.49,385.34 C15.32,382.92 16.08,381.86 16.97,377.72 C18.48,370.67 18.37,229.97 16.85,224.90 C17.66,227.58 18.02,246.40 18.07,287.62 C18.11,320.00 18.51,348.52 18.95,351.00 C19.43,353.72 19.81,354.51 19.91,353.00 C20.03,350.94 20.23,350.78 21.00,352.11 C21.52,352.99 21.75,354.69 21.52,355.88 ZM 179.24 185.38 L 178.95 189.27 L 181.44 187.63 C184.51,185.62 185.00,185.60 185.00,187.50 C185.00,188.32 185.50,189.00 186.12,189.00 C186.73,189.00 187.01,188.16 186.75,187.14 C186.48,186.12 186.68,184.55 187.18,183.64 C187.94,182.29 187.57,181.97 185.05,181.85 C183.37,181.77 181.45,181.65 180.77,181.60 C180.04,181.54 179.42,183.07 179.24,185.38 ZM 173.98 214.34 C172.17,215.41 170.20,216.54 168.36,217.54 C163.88,219.99 157.13,224.77 153.36,228.17 C149.97,231.22 144.13,236.88 137.33,243.64 C141.71,239.10 145.73,234.41 145.33,233.75 C145.09,233.34 145.25,232.99 145.69,232.97 C146.14,232.95 147.38,231.71 148.45,230.22 C149.99,228.08 150.05,227.79 148.70,228.87 C146.22,230.87 146.61,229.65 149.17,227.40 C150.37,226.36 151.01,226.06 150.61,226.75 C149.15,229.25 153.20,227.97 157.33,224.63 C159.62,222.77 164.88,219.42 169.00,217.17 C170.61,216.29 172.35,215.30 173.98,214.34 ZM 32.79 341.87 C32.62,342.80 31.31,343.64 29.74,343.82 C27.43,344.08 27.00,343.76 27.00,341.74 C27.00,339.64 27.37,339.40 30.05,339.79 C32.20,340.11 33.01,340.72 32.79,341.87 ZM 118.79 222.09 C120.94,222.70 123.32,223.23 126.00,223.72 C130.68,224.57 134.90,225.63 135.40,226.08 C135.55,226.22 135.64,226.38 135.69,226.59 C135.24,225.95 131.17,224.74 126.42,223.85 C123.55,223.31 121.04,222.74 118.79,222.09 ZM 135.65 227.26 C135.30,228.79 133.18,231.60 128.76,236.48 C133.04,231.50 135.21,228.58 135.65,227.26 ZM 144.27 160.88 C142.80,165.53 142.00,169.98 142.00,173.93 C142.00,174.07 142.00,174.21 142.00,174.35 C141.73,170.83 142.56,166.09 144.27,160.88 ZM 57.58 386.06 C58.95,386.76 60.37,387.24 61.70,387.40 C60.22,387.32 58.39,386.74 57.60,386.08 C57.59,386.08 57.59,386.07 57.58,386.06 ZM 62.42 387.45 C62.45,387.45 62.47,387.45 62.50,387.45 C63.25,387.47 63.91,387.80 64.25,388.27 C63.92,387.85 63.29,387.57 62.42,387.45 ZM 181.61 209.38 C181.10,209.72 180.55,210.10 179.94,210.55 C179.14,211.14 177.74,212.05 176.06,213.08 C177.72,212.06 179.12,211.15 179.94,210.54 C180.54,210.10 181.10,209.71 181.61,209.38 ZM 2.51 390.01 C2.04,389.25 2.11,388.53 2.52,388.04 C2.11,388.54 2.04,389.26 2.51,390.01 ZM 103.84 214.09 C105.55,215.59 107.25,216.87 109.06,217.98 C107.25,216.87 105.55,215.60 103.84,214.09 Z" fill="rgba(196,137,0,1)"/>
<path d="M 21.52 355.88 C21.75,354.69 21.52,352.99 21.00,352.11 C20.23,350.78 20.03,350.94 19.91,353.00 C19.81,354.51 19.43,353.72 18.95,351.00 C18.51,348.52 18.11,320.00 18.07,287.62 C18.02,246.40 17.66,227.58 16.85,224.90 C16.74,224.53 16.62,224.16 16.48,223.81 C16.63,223.93 16.81,224.00 17.00,224.00 C19.39,224.00 16.48,218.81 12.95,216.79 C8.68,214.33 9.10,212.57 13.75,213.45 C15.81,213.84 19.30,214.05 21.50,213.91 C29.69,213.41 51.98,213.65 52.58,214.25 C52.92,214.59 52.01,216.43 50.55,218.34 C49.09,220.26 48.32,222.08 48.84,222.40 C49.36,222.72 50.54,221.82 51.47,220.41 C53.44,217.40 57.60,215.47 64.25,214.48 C68.87,213.79 70.09,212.79 67.95,211.47 C67.25,211.03 67.33,210.29 68.20,209.19 C68.92,208.29 68.20,208.55 66.62,209.78 C66.52,209.85 66.42,209.92 66.33,210.00 L 69.64 206.57 C74.16,201.91 77.83,196.11 81.17,187.86 C79.98,190.93 78.80,193.55 77.66,195.66 C75.80,199.07 74.91,201.59 75.66,201.30 C76.40,201.02 77.00,200.23 77.00,199.55 C77.00,198.87 77.95,197.45 79.10,196.41 C81.82,193.95 84.03,189.64 85.48,184.00 C86.35,180.58 87.10,179.51 88.57,179.55 C90.90,179.60 90.71,180.91 87.65,185.79 C86.37,187.83 84.63,191.56 83.78,194.08 C82.93,196.61 80.96,200.66 79.40,203.08 C77.84,205.51 76.64,207.75 76.72,208.06 C76.80,208.36 75.33,209.45 73.44,210.46 C71.55,211.48 70.00,212.67 70.00,213.11 C70.00,213.40 70.63,213.44 71.56,213.25 C71.20,213.34 70.83,213.42 70.46,213.48 C54.50,216.12 51.58,217.69 49.92,224.50 C49.38,226.70 48.75,246.61 48.50,268.75 C48.12,303.38 48.26,309.00 49.51,309.00 C50.58,309.00 50.80,309.77 50.35,312.00 C49.53,316.08 51.58,315.94 56.32,311.60 C61.47,306.88 62.62,306.64 64.80,309.80 C67.66,313.93 68.39,315.76 66.17,313.25 C65.07,312.01 63.49,311.00 62.64,311.00 C61.79,311.00 58.12,313.08 54.49,315.62 L 47.88 320.24 L 48.23 326.12 C48.42,329.35 48.22,332.00 47.79,332.00 C47.35,332.00 46.95,333.69 46.88,335.75 C46.77,339.42 46.75,339.44 46.08,336.50 C45.42,333.64 45.36,333.71 44.79,338.00 C44.47,340.48 44.28,344.42 44.38,346.77 C44.49,349.43 44.15,350.89 43.49,350.64 C41.97,350.05 38.56,353.15 38.15,355.50 C37.70,358.15 37.49,358.29 35.17,357.55 C34.08,357.21 32.47,355.14 31.60,352.96 C30.45,350.09 29.43,349.00 27.89,349.00 C26.11,349.00 25.84,349.47 26.21,352.00 C26.46,353.65 26.23,355.00 25.70,355.00 C25.18,355.00 25.25,355.60 25.86,356.33 C26.69,357.34 26.62,357.67 25.57,357.67 C24.78,357.67 24.33,356.91 24.52,355.89 C24.75,354.69 24.40,354.29 23.44,354.66 C22.65,354.96 22.24,355.58 22.52,356.04 C22.80,356.49 22.60,357.13 22.07,357.46 C21.52,357.80 21.29,357.11 21.52,355.88 ZM 140.26 179.18 C140.94,179.61 142.12,179.98 142.87,179.98 C143.99,180.00 144.01,179.72 142.98,178.48 C142.67,178.10 142.45,177.38 142.32,176.42 C142.64,177.72 143.19,178.77 143.98,179.48 C145.06,180.46 145.76,181.58 145.53,181.95 C145.30,182.33 146.41,182.64 148.00,182.64 C149.59,182.64 150.67,182.27 150.39,181.82 C149.69,180.68 150.63,180.80 153.26,182.16 C154.49,182.79 156.16,183.62 156.96,183.99 C157.76,184.36 159.23,186.12 160.23,187.90 L 162.03 191.13 L 157.33 195.51 C154.74,197.92 152.34,199.71 151.98,199.49 C151.62,199.27 151.33,199.65 151.33,200.34 C151.33,201.03 152.24,201.67 153.34,201.75 C156.12,201.96 161.00,204.07 161.00,205.06 C161.00,205.51 160.50,206.19 159.89,206.57 C159.08,207.07 159.08,207.43 159.89,207.93 C160.67,208.42 160.59,209.18 159.59,210.55 C158.24,212.40 158.10,212.40 156.22,210.70 C155.13,209.72 153.63,209.05 152.88,209.21 C152.12,209.37 151.61,208.94 151.75,208.25 C151.89,207.56 151.76,207.00 151.46,207.00 C151.16,207.00 150.30,207.56 149.54,208.25 C148.40,209.29 148.61,209.86 150.84,211.68 C153.16,213.58 153.34,214.12 152.26,215.90 C151.09,217.82 151.21,217.91 154.01,217.35 C156.35,216.88 157.00,217.10 157.00,218.38 C157.00,219.90 156.52,220.15 153.12,220.41 C152.36,220.46 151.12,221.45 150.36,222.59 C149.14,224.43 149.18,224.67 150.74,224.71 C151.71,224.73 153.62,223.75 155.00,222.54 C156.38,221.32 159.53,219.18 162.00,217.77 C164.48,216.36 167.35,214.27 168.38,213.13 C169.42,211.98 170.67,211.29 171.15,211.59 C172.04,212.14 178.37,208.67 180.81,206.30 C181.54,205.59 181.85,204.57 181.51,204.02 C181.14,203.42 181.59,203.29 182.61,203.68 C183.87,204.16 184.11,203.99 183.51,203.02 C183.02,202.22 183.08,201.93 183.67,202.30 C184.21,202.63 185.22,204.65 185.93,206.79 C187.04,210.14 186.99,211.13 185.58,213.84 C183.40,218.06 182.74,217.87 184.55,213.53 C187.19,207.22 185.73,206.27 179.94,210.54 C178.05,211.94 173.12,214.93 169.00,217.17 C164.88,219.42 159.62,222.77 157.33,224.63 C153.20,227.97 149.15,229.25 150.61,226.75 C151.01,226.06 150.37,226.36 149.17,227.40 C146.61,229.65 146.22,230.87 148.70,228.87 C150.05,227.79 149.99,228.08 148.45,230.22 C147.38,231.71 146.14,232.95 145.69,232.97 C145.25,232.99 145.09,233.34 145.33,233.75 C146.15,235.11 128.42,253.38 127.08,252.55 C126.17,251.99 126.43,251.17 128.07,249.43 C129.29,248.13 130.68,247.30 131.15,247.59 C131.62,247.88 132.00,247.46 132.00,246.65 C132.00,245.84 135.44,241.76 139.64,237.59 C143.84,233.41 146.88,229.97 146.39,229.92 C145.90,229.88 144.71,229.70 143.75,229.51 C142.79,229.33 141.75,229.59 141.44,230.09 C141.14,230.59 140.43,231.00 139.88,231.00 C139.33,231.00 139.16,230.55 139.50,230.00 C142.04,225.89 132.53,234.21 128.16,239.92 C127.14,241.25 125.55,242.45 124.63,242.58 C123.61,242.73 124.95,240.65 128.08,237.22 C134.59,230.10 136.54,227.12 135.40,226.08 C134.90,225.63 130.68,224.57 126.00,223.72 C115.59,221.83 109.74,219.28 103.84,214.09 C98.91,209.75 98.74,209.28 98.81,200.50 C98.85,195.86 99.73,191.99 101.58,188.47 C101.48,188.80 101.53,189.00 101.74,189.00 C102.97,189.00 107.15,184.48 106.52,183.85 C106.24,183.57 107.81,181.84 110.01,179.99 C112.20,178.15 114.00,176.25 114.00,175.77 C114.00,175.28 114.84,173.00 115.88,170.70 C120.78,159.73 121.78,157.11 121.24,156.58 C120.93,156.26 121.19,156.00 121.83,156.00 C122.47,156.00 122.95,155.66 122.88,155.25 C122.82,154.84 122.82,153.19 122.88,151.58 C123.04,147.71 124.50,149.29 124.50,153.34 C124.50,155.33 124.96,156.41 125.75,156.25 C126.44,156.11 127.00,156.48 127.00,157.06 C127.00,157.64 127.42,157.86 127.93,157.54 C128.44,157.23 129.01,158.13 129.18,159.55 C129.49,162.09 129.54,162.10 131.50,160.29 C132.60,159.27 134.40,158.59 135.50,158.77 C137.15,159.05 137.24,158.92 136.00,158.07 C135.18,157.50 134.86,157.02 135.31,157.02 C135.75,157.01 135.76,156.44 135.32,155.75 C134.55,154.53 134.38,154.00 134.12,152.03 C134.06,151.50 133.21,151.30 132.25,151.60 C131.29,151.89 131.78,151.39 133.35,150.48 C136.06,148.91 136.26,148.93 137.65,150.92 C138.46,152.06 139.88,152.99 140.81,152.98 C141.80,152.98 142.07,152.67 141.47,152.23 C140.15,151.30 140.25,150.08 141.85,147.19 C142.56,145.92 143.66,145.05 144.30,145.27 C144.94,145.48 146.24,144.72 147.20,143.58 C148.90,141.54 148.92,141.55 148.08,144.50 C147.61,146.15 147.06,148.02 146.86,148.65 C146.66,149.28 146.95,149.85 147.50,149.90 C148.05,149.96 148.50,149.44 148.50,148.75 C148.50,148.06 149.04,147.05 149.70,146.50 C150.50,145.83 151.80,144.26 153.27,142.30 C148.42,149.77 144.83,158.01 143.10,164.92 C143.44,163.19 143.87,161.51 144.37,160.05 C145.84,155.77 145.63,153.00 143.83,153.00 C143.31,153.00 143.16,153.45 143.51,154.01 C144.11,154.99 140.65,160.30 139.88,159.57 C139.67,159.37 139.39,163.52 139.26,168.80 C139.08,175.58 139.38,178.62 140.26,179.18 ZM 23.59 389.02 C29.62,388.97 30.52,388.81 30.96,388.22 C31.26,387.82 36.00,387.53 41.50,387.56 C48.29,387.60 52.24,387.18 53.82,386.24 C55.65,385.16 56.44,385.12 57.60,386.08 C58.32,386.68 59.91,387.22 61.30,387.37 C61.25,387.49 61.29,387.66 61.41,387.86 C62.09,388.96 27.88,389.96 23.59,389.02 ZM 179.24 185.38 C179.42,183.07 180.04,181.54 180.77,181.60 C181.45,181.65 183.37,181.77 185.05,181.85 C187.57,181.97 187.94,182.29 187.18,183.64 C186.68,184.55 186.48,186.12 186.75,187.14 C187.01,188.16 186.73,189.00 186.12,189.00 C185.50,189.00 185.00,188.32 185.00,187.50 C185.00,185.60 184.51,185.62 181.44,187.63 L 178.95 189.27 ZM 56.66 307.26 C56.38,306.81 57.80,305.35 59.83,304.02 C61.85,302.69 65.30,300.20 67.50,298.48 C74.29,293.18 74.78,293.46 68.60,299.11 C61.61,305.50 57.36,308.40 56.66,307.26 ZM 98.51 165.78 C97.72,167.91 96.92,170.03 96.10,172.13 C96.57,169.96 95.80,169.93 93.75,172.20 C91.93,174.23 91.78,174.27 92.45,172.50 C92.87,171.40 93.65,169.01 94.17,167.18 C94.97,164.43 95.38,164.07 96.59,165.07 C97.39,165.74 98.22,166.11 98.43,165.89 C98.46,165.87 98.48,165.83 98.51,165.78 ZM 32.79 341.87 C33.01,340.72 32.20,340.11 30.05,339.79 C27.37,339.40 27.00,339.64 27.00,341.74 C27.00,343.76 27.43,344.08 29.74,343.82 C31.31,343.64 32.62,342.80 32.79,341.87 ZM 4.29 387.37 C4.53,387.38 4.79,387.43 5.05,387.51 C6.08,387.84 7.95,387.55 9.21,386.85 C12.46,385.07 13.95,384.97 13.32,386.60 C13.03,387.37 12.16,388.00 11.39,388.00 C10.63,388.00 10.00,388.48 10.00,389.07 C10.00,389.37 10.20,389.57 10.53,389.67 C7.00,389.95 6.20,389.62 5.29,388.39 C4.92,387.88 4.60,387.54 4.29,387.37 ZM 112.00 255.29 C112.00,254.81 114.25,252.21 117.00,249.50 C120.08,246.46 122.00,245.17 122.00,246.13 C122.00,247.87 118.65,251.31 117.79,250.46 C117.49,250.16 116.07,251.32 114.62,253.03 C113.18,254.75 112.00,255.76 112.00,255.29 ZM 173.96 180.02 C174.75,179.53 175.76,179.35 176.20,179.62 C176.64,179.90 177.00,179.64 177.00,179.06 C177.00,178.48 177.49,178.00 178.08,178.00 C180.56,178.00 178.11,180.49 175.43,180.69 C173.37,180.85 172.94,180.66 173.96,180.02 ZM 93.00 164.56 C93.00,165.35 92.55,166.00 92.00,166.00 C91.45,166.00 91.00,165.07 91.00,163.94 C91.00,162.81 91.45,162.16 92.00,162.50 C92.55,162.84 93.00,163.77 93.00,164.56 ZM 111.48 121.24 C110.90,123.22 110.26,126.04 109.44,130.00 C107.91,137.43 105.14,146.85 101.79,156.61 C104.68,147.62 108.47,134.71 109.44,130.00 C110.26,126.04 110.90,123.22 111.48,121.24 ZM 110.83 175.77 C113.00,172.48 114.86,169.12 116.43,165.59 C115.81,167.17 115.23,168.53 114.75,169.48 C113.88,171.18 112.68,173.13 110.83,175.77 ZM 16.00 222.67 C15.24,221.09 14.23,219.74 12.95,218.61 C14.75,220.04 16.00,221.58 16.00,222.67 ZM 160.96 130.45 C159.98,132.46 158.61,134.70 156.83,137.20 C158.44,134.78 159.94,132.33 160.96,130.45 ZM 102.58 186.75 C103.22,185.74 103.96,184.76 104.78,183.79 C105.18,183.32 105.57,182.85 105.95,182.37 C104.96,183.67 103.87,185.09 102.67,186.64 C102.64,186.68 102.61,186.72 102.58,186.75 ZM 162.60 121.56 C162.95,122.94 162.94,124.46 162.54,126.17 C162.83,124.47 162.87,122.63 162.60,121.56 ZM 2.36 389.74 C1.97,388.88 2.26,388.10 2.92,387.68 C2.91,387.69 2.89,387.71 2.88,387.72 C2.33,388.27 2.12,389.13 2.36,389.74 ZM 11.95 389.53 C12.65,389.37 14.01,389.22 15.60,389.13 C15.14,389.18 14.66,389.23 14.19,389.28 C13.36,389.38 12.62,389.46 11.95,389.53 ZM 90.56 155.04 C90.89,153.56 91.21,152.05 91.54,150.49 C93.42,141.68 95.77,129.43 97.52,119.72 C95.77,129.42 93.42,141.67 91.55,150.50 C91.22,152.04 90.89,153.55 90.56,155.04 ZM 2.51 390.01 C2.49,389.99 2.48,389.97 2.47,389.94 C2.63,390.15 3.41,390.31 4.86,390.44 C3.41,390.33 2.61,390.18 2.51,390.01 ZM 79.13 207.53 C78.79,208.00 78.47,208.42 78.16,208.80 C78.47,208.41 78.80,207.99 79.13,207.53 Z" fill="rgba(202,145,0,1)"/>
<path d="M 70.00 213.11 C70.00,212.67 71.55,211.48 73.44,210.46 C75.33,209.45 76.80,208.36 76.72,208.06 C76.64,207.75 77.84,205.51 79.40,203.08 C80.96,200.66 82.93,196.61 83.78,194.08 C84.63,191.56 86.37,187.83 87.65,185.79 C90.71,180.91 90.90,179.60 88.57,179.55 C87.10,179.51 86.35,180.58 85.48,184.00 C84.03,189.64 81.82,193.95 79.10,196.41 C77.95,197.45 77.00,198.87 77.00,199.55 C77.00,200.23 76.40,201.02 75.66,201.30 C74.91,201.59 75.80,199.07 77.66,195.66 C82.18,187.33 87.21,170.98 91.55,150.50 C94.96,134.42 99.97,106.96 99.99,104.25 C100.00,103.53 98.75,103.00 97.06,103.00 C94.80,103.00 93.63,102.53 93.52,101.53 C93.78,101.56 94.13,101.50 94.50,101.36 C95.32,101.05 96.00,100.10 96.00,99.27 C96.00,98.10 95.75,97.99 94.67,98.86 C94.88,98.57 95.13,98.26 95.40,97.93 C98.80,93.90 100.39,87.64 99.46,82.01 C97.52,70.28 97.99,68.20 104.65,59.00 C109.40,52.44 111.29,48.76 112.92,42.86 C116.86,28.68 120.57,23.35 129.55,18.97 C130.97,18.28 132.13,17.75 133.13,17.35 C132.67,17.74 134.18,17.83 138.50,17.81 C145.32,17.79 145.39,17.76 141.20,16.82 C139.47,16.44 137.86,16.29 136.48,16.40 C137.71,16.23 138.90,16.31 140.47,16.55 C142.96,16.92 145.00,17.59 145.00,18.03 C145.00,18.48 146.46,19.15 148.25,19.53 C153.18,20.57 158.19,23.74 161.28,27.77 C166.01,33.94 165.99,34.86 160.89,47.67 C159.86,50.24 159.88,51.59 160.97,54.91 C162.15,58.48 162.12,59.21 160.74,60.75 C159.87,61.71 157.70,65.35 155.92,68.84 C152.22,76.07 150.08,77.35 145.11,75.27 C142.43,74.15 141.20,74.09 139.51,75.00 C133.68,78.11 132.09,88.68 136.50,94.95 C137.87,96.90 142.04,100.97 145.75,104.00 C155.52,111.96 161.85,118.56 162.60,121.56 C162.97,123.00 162.77,125.83 162.16,127.84 C161.14,131.21 152.48,144.18 149.70,146.50 C149.04,147.05 148.50,148.06 148.50,148.75 C148.50,149.44 148.05,149.96 147.50,149.90 C146.95,149.85 146.66,149.28 146.86,148.65 C147.06,148.02 147.61,146.15 148.08,144.50 C148.92,141.55 148.90,141.54 147.20,143.58 C146.24,144.72 144.94,145.48 144.30,145.27 C143.66,145.05 142.56,145.92 141.85,147.19 C140.25,150.08 140.15,151.30 141.47,152.23 C142.07,152.67 141.80,152.98 140.81,152.98 C139.88,152.99 138.46,152.06 137.65,150.92 C136.26,148.93 136.06,148.91 133.35,150.48 C131.78,151.39 131.29,151.89 132.25,151.60 C133.21,151.30 134.06,151.50 134.12,152.03 C134.38,154.00 134.55,154.53 135.32,155.75 C135.76,156.44 135.75,157.01 135.31,157.02 C134.86,157.02 135.18,157.50 136.00,158.07 C137.24,158.92 137.15,159.05 135.50,158.77 C134.40,158.59 132.60,159.27 131.50,160.29 C129.54,162.10 129.49,162.09 129.18,159.55 C129.01,158.13 128.44,157.23 127.93,157.54 C127.42,157.86 127.00,157.64 127.00,157.06 C127.00,156.48 126.44,156.11 125.75,156.25 C124.96,156.41 124.50,155.33 124.50,153.34 C124.50,149.29 123.04,147.71 122.88,151.58 C122.82,153.19 122.82,154.84 122.88,155.25 C122.95,155.66 122.47,156.00 121.83,156.00 C121.19,156.00 120.93,156.26 121.24,156.58 C121.78,157.11 120.78,159.73 115.88,170.70 C114.84,173.00 114.00,175.28 114.00,175.77 C114.00,176.25 112.20,178.15 110.01,179.99 C107.81,181.84 106.24,183.57 106.52,183.85 C107.15,184.48 102.97,189.00 101.74,189.00 C101.24,189.00 101.66,187.94 102.67,186.64 C109.86,177.39 112.99,172.94 114.75,169.48 C116.82,165.42 120.66,153.91 121.76,148.50 C123.79,138.50 118.80,117.00 114.45,117.00 C112.56,117.00 111.62,119.43 109.44,130.00 C107.92,137.36 99.51,164.79 98.43,165.89 C98.22,166.11 97.39,165.74 96.59,165.07 C95.38,164.07 94.97,164.43 94.17,167.18 C93.65,169.01 92.87,171.40 92.45,172.50 C91.78,174.27 91.93,174.23 93.75,172.20 C97.33,168.22 97.02,171.31 92.91,180.56 C82.68,203.55 78.05,211.09 73.09,212.82 C71.39,213.41 70.00,213.54 70.00,213.11 ZM 16.00 222.67 C16.00,220.62 11.60,216.97 7.38,215.52 C6.72,215.29 6.13,215.08 5.61,214.88 C6.23,214.70 6.90,214.24 7.64,213.50 C8.21,212.93 8.51,212.57 8.44,212.35 C13.09,212.08 21.07,212.00 33.28,212.00 C63.22,212.00 63.78,211.96 66.62,209.78 C68.20,208.55 68.92,208.29 68.20,209.19 C67.33,210.29 67.25,211.03 67.95,211.47 C70.09,212.79 68.87,213.79 64.25,214.48 C63.60,214.58 62.98,214.68 62.38,214.80 C65.30,214.04 66.31,213.72 66.35,213.32 C66.37,213.07 66.02,212.78 65.51,212.32 C64.51,211.40 63.37,211.58 60.36,213.17 C58.24,214.29 56.13,215.55 55.68,215.97 C55.32,216.31 56.49,216.21 58.43,215.79 C55.07,216.88 52.78,218.40 51.47,220.41 C50.54,221.82 49.36,222.72 48.84,222.40 C48.32,222.08 49.09,220.26 50.55,218.34 C52.01,216.43 52.92,214.59 52.58,214.25 C51.98,213.65 29.69,213.41 21.50,213.91 C19.30,214.05 15.81,213.84 13.75,213.45 C9.10,212.57 8.68,214.33 12.95,216.79 C16.48,218.81 19.39,224.00 17.00,224.00 C16.45,224.00 16.00,223.40 16.00,222.67 ZM 140.26 179.18 C139.38,178.62 139.08,175.58 139.26,168.80 C139.39,163.52 139.67,159.37 139.88,159.57 C140.65,160.30 144.11,154.99 143.51,154.01 C143.16,153.45 143.31,153.00 143.83,153.00 C145.63,153.00 145.84,155.77 144.37,160.05 C142.20,166.35 141.43,176.60 142.98,178.48 C144.01,179.72 143.99,180.00 142.87,179.98 C142.12,179.98 140.94,179.61 140.26,179.18 ZM 252.00 279.06 C252.00,276.10 253.71,275.69 254.25,278.51 C254.57,280.18 254.27,281.00 253.36,281.00 C252.61,281.00 252.00,280.13 252.00,279.06 ZM 93.00 164.56 C93.00,163.77 92.55,162.84 92.00,162.50 C91.45,162.16 91.00,162.81 91.00,163.94 C91.00,165.07 91.45,166.00 92.00,166.00 C92.55,166.00 93.00,165.35 93.00,164.56 Z" fill="rgba(207,155,1,1)"/>
<path d="M 163.00 389.67 C163.00,388.00 167.07,386.71 169.46,387.62 C172.17,388.66 170.57,390.48 166.67,390.81 C163.99,391.04 163.00,390.73 163.00,389.67 ZM 55.68 215.97 C56.13,215.55 58.24,214.29 60.36,213.17 C63.37,211.58 64.51,211.40 65.51,212.32 C66.02,212.78 66.37,213.07 66.35,213.32 C66.30,213.81 64.82,214.17 60.18,215.37 C57.25,216.13 55.23,216.40 55.68,215.97 ZM 3.67 214.33 C2.22,212.89 3.14,212.00 6.07,212.00 C8.80,212.00 8.98,212.17 7.64,213.50 C6.02,215.12 4.72,215.39 3.67,214.33 ZM 267.50 336.00 C267.12,335.39 268.57,335.01 271.19,335.02 C274.34,335.03 275.10,335.29 274.00,336.00 C272.04,337.27 268.28,337.27 267.50,336.00 ZM 750.50 273.00 C749.77,271.82 750.72,270.00 752.06,270.00 C752.58,270.00 753.00,270.90 753.00,272.00 C753.00,274.11 751.55,274.69 750.50,273.00 ZM 93.00 101.09 C93.00,100.63 93.68,99.68 94.50,99.00 C95.72,97.99 96.00,98.04 96.00,99.27 C96.00,100.10 95.32,101.05 94.50,101.36 C93.68,101.68 93.00,101.56 93.00,101.09 Z" fill="rgba(214,169,1,1)"/>
<path d="M 2.46 389.93 C2.08,389.32 2.27,388.33 2.88,387.72 C3.70,386.90 4.34,387.08 5.29,388.39 C6.45,389.97 7.44,390.07 14.19,389.28 C18.37,388.80 22.49,388.65 23.35,388.95 C26.33,390.00 62.11,388.98 61.41,387.86 C61.02,387.23 61.51,386.95 62.63,387.17 C63.66,387.37 64.50,388.20 64.50,389.01 C64.50,390.29 60.18,390.54 33.82,390.76 C12.29,390.95 2.93,390.70 2.46,389.93 ZM 134.20 16.85 C135.96,16.21 138.42,16.20 141.20,16.82 C145.39,17.76 145.32,17.79 138.50,17.81 C132.75,17.84 131.98,17.67 134.20,16.85 Z" fill="rgba(225,187,1,1)"/>
</g>
</svg>