<svg xmlns="http://www.w3.org/2000/svg" xmlns:v="https://svgstorm.com"
viewBox = "0 0 1024 1024"
width="1024"
height="1024">
<g fill="None" fill-opacity="0.0" stroke="#000000" stroke-opacity="1.00" stroke-width="0.3"><path d="
M 0.00 1024.00 
L 1024.00 1024.00
L 1024.00 0.00
L 0.00 0.00
L 0.00 1024.00
M 321.00 277.00 
C 320.83 277.33 320.30 277.79 320.00 278.00
C 317.78 282.82 321.92 287.07 322.00 292.00
C 313.10 294.91 313.78 315.76 300.00 306.00
C 299.64 305.77 299.00 306.00 299.00 306.00
C 287.32 311.71 294.41 325.50 301.25 331.75 C 308.09 338.01 317.30 342.89 321.30 351.70 C 325.31 360.50 312.15 371.11 309.08 378.08 C 306.01 385.05 295.33 403.58 303.00 409.00
C 305.61 410.26 312.05 409.00 315.00 409.00
C 317.00 409.00 319.00 409.00 321.00 409.00
C 337.45 409.00 360.79 400.87 366.98 419.02 C 373.17 437.18 373.48 450.29 379.00 468.00
C 379.15 468.47 379.80 469.15 380.00 470.00
C 381.58 476.88 382.20 484.13 384.00 491.00
C 384.21 491.26 384.89 491.65 385.00 492.00
C 387.51 500.33 387.81 509.89 391.00 518.00
C 391.27 518.68 391.80 518.92 392.00 520.00
C 393.91 530.14 397.30 539.69 399.00 550.00
C 399.25 550.25 399.89 550.65 400.00 551.00
C 403.61 562.51 411.90 569.61 421.00 576.00
C 417.92 577.18 414.42 577.09 411.00 577.00
C 406.46 577.44 403.41 578.20 399.00 576.00
C 394.75 573.88 391.96 568.71 389.70 565.31 C 387.43 561.90 386.15 553.31 382.75 552.25 C 379.35 551.19 375.56 563.43 378.00 567.00 C 380.44 570.57 376.86 582.35 375.01 573.99 C 373.15 565.63 374.93 563.69 373.00 556.00
C 372.25 555.12 372.30 555.29 372.00 554.00
C 368.72 539.71 379.95 522.78 370.22 508.78 C 360.49 494.78 363.38 479.78 355.00 466.00
C 351.47 474.07 349.00 481.72 346.07 490.07 C 343.14 498.43 341.04 506.49 338.02 515.02 C 335.01 523.56 333.02 531.03 330.02 540.02 C 327.03 549.02 327.80 559.99 327.00 570.00 C 326.20 580.01 333.77 584.87 338.00 592.00
C 334.73 592.70 332.23 590.57 329.00 591.00
C 327.86 590.81 327.70 590.22 327.00 590.00
C 321.33 588.23 317.90 588.85 315.00 583.00
C 314.59 582.18 314.15 582.27 314.00 581.00
C 313.61 577.71 315.75 559.83 308.97 561.03 C 302.20 562.23 305.35 571.88 300.02 577.02 C 294.70 582.17 297.71 572.81 299.00 566.00
C 299.17 565.12 299.88 564.47 300.00 564.00
C 302.13 555.51 303.98 549.06 310.75 542.75 C 317.52 536.45 317.61 527.73 318.98 518.98 C 320.34 510.23 320.97 498.82 323.00 490.00
C 323.23 489.00 323.78 488.64 324.00 488.00
C 329.63 471.46 335.32 454.85 343.00 439.00
C 305.85 458.19 279.60 494.90 248.00 523.00
C 260.39 539.59 271.58 558.43 283.77 575.23 C 295.96 592.03 306.35 616.90 330.00 618.00
C 326.22 626.42 311.48 620.10 303.00 621.00 C 294.52 621.90 282.70 620.67 275.92 616.08 C 269.14 611.49 266.81 604.09 261.70 598.30 C 256.59 592.52 252.96 585.83 248.23 579.77 C 243.50 573.71 239.29 567.52 234.75 561.25 C 230.20 554.99 225.21 548.52 221.00 542.00
C 216.50 544.45 210.66 547.94 208.00 552.00
C 206.06 558.67 208.73 567.02 208.00 574.00 C 207.27 580.99 208.00 588.93 208.00 596.00
C 208.00 602.55 207.98 608.00 211.75 613.25 C 215.52 618.49 223.92 615.54 224.00 622.00
C 202.33 622.00 180.67 622.00 159.00 622.00
C 157.81 615.98 165.46 618.84 168.69 615.69 C 171.93 612.55 174.77 608.86 174.00 604.00
C 176.50 557.98 174.00 511.10 174.00 465.00
C 174.00 462.42 174.37 459.55 174.00 457.00
C 173.95 456.77 173.07 456.35 173.00 456.00
C 171.13 445.93 160.80 450.09 159.00 442.00
C 172.38 443.01 188.94 440.65 202.00 442.00 C 215.06 443.35 226.58 441.26 232.75 429.75 C 238.93 418.25 240.91 410.14 244.00 398.00
C 244.12 397.65 244.75 397.25 245.00 397.00
C 250.38 376.38 252.57 354.90 257.00 334.00
C 253.99 336.67 251.02 333.30 248.00 333.00
C 250.26 329.56 254.28 327.13 255.00 323.00
C 255.13 322.65 255.75 322.25 256.00 322.00
C 258.62 310.19 251.36 296.68 262.75 287.75 C 274.14 278.83 267.62 266.58 276.75 256.75 C 285.89 246.93 296.70 244.76 309.07 249.93 C 321.45 255.10 327.39 264.75 321.00 277.00
M 726.00 488.00 
C 756.00 490.49 768.07 528.53 751.70 551.70 C 735.33 574.87 697.55 572.60 686.23 545.77 C 674.91 518.95 695.71 485.48 726.00 488.00
M 448.00 504.00 
C 447.90 503.74 447.21 503.30 447.00 503.00
C 444.33 499.20 442.52 496.69 438.00 495.00
C 437.88 494.96 435.88 493.97 436.00 494.00
C 422.04 490.85 418.57 510.03 428.70 515.30 C 438.83 520.58 446.90 524.96 451.97 535.03 C 457.04 545.10 453.47 559.36 442.77 564.77 C 432.07 570.18 418.95 567.75 409.00 562.00
C 409.00 556.33 409.00 550.67 409.00 545.00
C 414.07 550.81 415.58 558.43 424.22 560.78 C 432.87 563.12 444.49 557.74 442.00 547.00
C 441.76 546.74 441.17 546.33 441.00 546.00
C 435.78 535.53 425.12 533.97 416.75 526.25 C 408.39 518.52 407.33 503.69 416.25 495.25 C 425.17 486.81 439.80 488.81 450.00 491.00
C 449.68 496.82 451.75 502.06 451.00 508.00
C 449.53 507.17 447.75 505.93 448.00 504.00
M 493.00 523.00 
C 494.21 522.92 495.40 520.70 496.00 520.00
C 501.12 511.31 507.82 498.31 505.00 489.00
C 510.50 489.65 517.33 487.69 522.00 490.00
C 512.14 497.80 509.20 511.47 502.69 522.70 C 496.19 533.92 494.22 556.13 503.00 566.00
C 497.57 565.41 484.62 570.23 479.00 567.00
C 476.93 565.81 481.08 563.55 482.00 562.00
C 482.19 561.68 482.67 561.17 483.00 561.00
C 484.81 552.87 482.25 543.32 483.00 535.00
C 481.06 529.84 477.67 523.59 475.23 518.77 C 472.79 513.95 469.12 506.26 467.08 501.92 C 465.03 497.59 458.26 488.82 459.00 489.00
C 461.72 488.13 467.12 488.67 470.00 489.00 C 472.88 489.33 479.57 487.54 482.00 489.00
C 484.06 490.24 481.40 492.39 480.00 493.00
C 481.93 503.79 489.72 512.63 493.00 523.00
M 551.00 490.00 
C 562.17 489.69 575.15 492.84 579.77 504.23 C 584.39 515.62 575.60 526.91 565.00 530.00
C 572.76 541.65 579.70 558.56 590.00 566.00
C 587.27 568.73 577.95 566.90 575.00 566.00
C 559.91 561.42 561.35 536.87 546.00 533.00
C 550.17 542.81 542.14 557.47 551.00 565.00
C 551.65 567.80 545.57 567.78 542.00 567.00 C 538.43 566.22 531.14 568.80 528.00 567.00
C 528.12 567.07 533.36 556.11 532.00 551.00 C 530.64 545.89 532.22 533.88 532.00 528.00 C 531.78 522.12 531.23 510.46 532.00 505.00 C 532.77 499.54 528.29 488.94 529.00 489.00
C 534.97 486.88 545.58 489.48 551.00 490.00
M 671.00 536.00 
C 670.80 537.21 670.26 537.23 670.00 538.00
C 664.03 555.55 648.64 570.54 628.00 568.00
C 626.74 567.84 626.78 567.24 626.00 567.00
C 605.42 560.59 591.62 543.21 596.78 520.78 C 601.94 498.35 619.16 486.33 642.00 489.00 C 664.84 491.67 674.41 515.51 671.00 536.00
M 792.00 490.00 
C 796.46 492.07 796.40 501.41 799.31 505.69 C 802.21 509.98 803.68 517.72 806.31 522.69 C 808.93 527.67 810.46 534.84 813.00 540.00
C 813.13 540.27 813.87 540.65 814.00 541.00
C 818.51 539.31 818.21 528.43 821.31 524.31 C 824.40 520.19 825.39 512.04 827.98 506.98 C 830.56 501.91 833.32 494.59 835.00 489.00
C 842.00 489.00 849.00 489.00 856.00 489.00
C 847.65 498.62 852.51 515.11 853.00 528.00 C 853.49 540.89 852.37 557.28 860.00 567.00
C 857.00 567.00 854.00 567.00 851.00 567.00
C 847.11 567.00 840.63 568.29 837.00 567.00
C 835.91 566.61 834.60 566.90 835.00 565.00
C 843.36 559.93 837.20 549.00 838.00 540.00 C 838.80 531.00 837.22 519.10 837.00 510.00
C 837.00 509.50 837.00 509.00 837.00 509.00
C 825.21 525.85 821.46 549.13 811.00 567.00
C 804.34 561.59 802.61 550.11 799.00 542.00
C 798.74 541.75 798.17 541.33 798.00 541.00
C 795.40 536.02 794.25 529.44 791.22 524.78 C 788.19 520.11 788.24 511.75 784.00 508.00
C 783.70 508.21 783.22 508.70 783.00 509.00
C 782.44 512.86 783.11 517.10 783.00 521.00
C 782.94 523.12 782.16 525.57 782.00 527.00
C 781.51 531.27 782.25 535.71 782.00 540.00
C 781.91 541.58 781.17 543.03 781.00 544.00
C 779.76 551.09 779.39 562.25 786.00 566.00
C 783.34 567.81 766.98 567.88 768.00 565.00
C 769.57 560.59 774.26 562.63 773.00 555.00 C 771.74 547.37 773.82 549.30 774.00 540.00 C 774.18 530.70 774.45 519.50 775.00 510.00
C 775.09 508.42 775.83 506.97 776.00 506.00
C 776.62 502.44 775.48 498.58 776.00 495.00
C 774.20 494.10 771.94 490.39 771.00 489.00
C 777.83 489.66 785.99 487.67 792.00 490.00
M 908.00 492.00 
C 908.26 491.76 908.88 490.90 909.00 491.00
C 912.24 493.63 911.09 504.81 910.00 508.00
C 909.14 495.98 886.00 487.42 883.08 502.08 C 880.15 516.73 898.80 518.55 906.75 527.25 C 914.70 535.95 918.06 552.83 906.75 561.75 C 895.44 570.68 880.89 568.51 869.00 562.00
C 869.71 556.39 867.90 551.47 868.00 546.00
C 874.35 552.91 885.24 569.04 897.22 559.22 C 909.21 549.41 896.22 536.12 885.25 531.75 C 874.29 527.37 866.17 511.43 872.92 499.92 C 879.68 488.42 896.57 485.63 908.00 492.00 Z"/>
</g>
<g fill="None" fill-opacity="0.0" stroke="#EAD302" stroke-opacity="1.00" stroke-width="0.3"><path d="
M 256.00 322.00 
C 261.95 316.17 253.40 304.94 256.93 297.93 C 260.45 290.92 265.66 287.94 268.77 280.77 C 271.88 273.60 271.71 265.67 276.77 258.77 C 281.83 251.88 286.54 248.73 296.00 249.00 C 305.46 249.27 308.91 251.44 317.25 256.75 C 325.59 262.07 319.52 271.04 321.00 277.00
C 327.39 264.75 321.45 255.10 309.07 249.93 C 296.70 244.76 285.89 246.93 276.75 256.75 C 267.62 266.58 274.14 278.83 262.75 287.75 C 251.36 296.68 258.62 310.19 256.00 322.00 Z"/>
</g>
<g fill="None" fill-opacity="0.0" stroke="#CE9901" stroke-opacity="1.00" stroke-width="0.3"><path d="
M 256.00 322.00 
C 255.75 322.25 255.13 322.65 255.00 323.00
C 255.94 326.61 252.35 329.30 251.00 333.00
C 253.49 334.53 255.63 332.39 258.00 334.00
C 254.55 355.12 251.72 377.12 245.00 397.00
C 244.75 397.25 244.12 397.65 244.00 398.00
C 246.43 405.06 239.66 416.04 237.23 423.23 C 234.80 430.42 228.37 438.23 222.00 442.00
C 235.55 449.06 240.91 431.40 246.31 421.31 C 251.70 411.21 256.33 397.51 260.32 386.32 C 264.32 375.13 267.10 358.70 271.00 350.00
C 271.73 349.73 272.27 349.29 273.00 349.00
C 275.10 348.17 276.85 355.71 277.98 359.02 C 279.10 362.34 280.87 370.74 280.00 375.00
C 277.34 373.04 280.72 367.89 278.00 366.00
C 278.19 369.58 278.24 373.43 278.00 377.00
C 278.79 387.32 274.39 400.05 268.00 409.00
C 268.76 412.74 275.39 406.82 278.00 411.00
C 276.74 413.18 279.01 414.69 279.00 417.00
C 281.71 412.73 285.69 418.09 284.00 412.00
C 286.57 415.18 288.96 411.08 291.00 414.00
C 291.27 409.24 284.45 408.97 285.00 405.00
C 282.68 405.53 282.80 410.27 280.00 408.00
C 282.96 404.42 284.18 399.01 289.00 399.00
C 288.94 402.96 285.86 408.49 292.00 407.00
C 290.99 404.19 290.96 400.57 291.00 397.00
C 292.78 398.47 295.07 395.96 297.00 398.00
C 295.42 400.33 293.26 398.60 292.00 401.00
C 293.72 403.27 292.73 406.34 293.00 409.00
C 296.55 406.48 294.58 410.07 296.00 412.00
C 297.41 411.84 299.34 411.35 300.00 410.00
C 302.69 404.42 299.18 392.76 303.31 387.31 C 307.43 381.85 308.02 375.36 312.75 370.75 C 317.48 366.15 321.93 357.31 320.00 351.00 C 318.07 344.69 311.31 342.29 306.75 338.25 C 302.19 334.20 296.88 328.36 292.00 326.00
C 293.15 322.95 291.19 315.55 292.33 312.33 C 293.47 309.11 297.55 302.74 299.00 306.00
C 299.00 306.00 299.64 305.77 300.00 306.00
C 302.25 304.36 311.73 309.34 312.32 302.32 C 312.91 295.30 317.11 294.67 321.00 291.00
C 319.61 287.03 315.67 281.46 320.00 278.00
C 320.30 277.79 320.83 277.33 321.00 277.00
C 319.52 271.04 325.59 262.07 317.25 256.75 C 308.91 251.44 305.46 249.27 296.00 249.00 C 286.54 248.73 281.83 251.88 276.77 258.77 C 271.71 265.67 271.88 273.60 268.77 280.77 C 265.66 287.94 260.45 290.92 256.93 297.93 C 253.40 304.94 261.95 316.17 256.00 322.00 Z"/>
</g>
<g fill="None" fill-opacity="0.0" stroke="#ECD502" stroke-opacity="1.00" stroke-width="0.3"><path d="
M 300.00 306.00 
C 313.78 315.76 313.10 294.91 322.00 292.00
C 321.92 287.07 317.78 282.82 320.00 278.00
C 315.67 281.46 319.61 287.03 321.00 291.00
C 317.11 294.67 312.91 295.30 312.32 302.32 C 311.73 309.34 302.25 304.36 300.00 306.00 Z"/>
</g>
<g fill="None" fill-opacity="0.0" stroke="#F1D902" stroke-opacity="1.00" stroke-width="0.3"><path d="
M 300.00 410.00 
C 306.10 409.63 313.47 412.36 320.00 411.00
C 319.17 409.25 316.56 410.34 315.00 410.00
C 311.22 409.77 305.92 411.06 303.00 409.00
C 295.33 403.58 306.01 385.05 309.08 378.08 C 312.15 371.11 325.31 360.50 321.30 351.70 C 317.30 342.89 308.09 338.01 301.25 331.75 C 294.41 325.50 287.32 311.71 299.00 306.00
C 297.55 302.74 293.47 309.11 292.33 312.33 C 291.19 315.55 293.15 322.95 292.00 326.00
C 296.88 328.36 302.19 334.20 306.75 338.25 C 311.31 342.29 318.07 344.69 320.00 351.00 C 321.93 357.31 317.48 366.15 312.75 370.75 C 308.02 375.36 307.43 381.85 303.31 387.31 C 299.18 392.76 302.69 404.42 300.00 410.00 Z"/>
</g>
<g fill="None" fill-opacity="0.0" stroke="#EDD402" stroke-opacity="1.00" stroke-width="0.3"><path d="
M 245.00 397.00 
C 251.72 377.12 254.55 355.12 258.00 334.00
C 255.63 332.39 253.49 334.53 251.00 333.00
C 252.35 329.30 255.94 326.61 255.00 323.00
C 254.28 327.13 250.26 329.56 248.00 333.00
C 251.02 333.30 253.99 336.67 257.00 334.00
C 252.57 354.90 250.38 376.38 245.00 397.00 Z"/>
</g>
<g fill="None" fill-opacity="0.0" stroke="#F5DE02" stroke-opacity="1.00" stroke-width="0.3"><path d="
M 273.00 349.00 
C 276.01 350.52 277.83 362.86 278.00 366.00
C 280.72 367.89 277.34 373.04 280.00 375.00
C 280.87 370.74 279.10 362.34 277.98 359.02 C 276.85 355.71 275.10 348.17 273.00 349.00 Z"/>
</g>
<g fill="None" fill-opacity="0.0" stroke="#F4D902" stroke-opacity="1.00" stroke-width="0.3"><path d="
M 244.00 398.00 
C 240.91 410.14 238.93 418.25 232.75 429.75 C 226.58 441.26 215.06 443.35 202.00 442.00 C 188.94 440.65 172.38 443.01 159.00 442.00
C 160.80 450.09 171.13 445.93 173.00 456.00
C 173.06 456.24 173.95 456.65 174.00 457.00
C 174.37 459.55 174.00 462.42 174.00 465.00
C 178.35 509.90 172.82 557.30 175.00 603.00
C 176.91 585.30 175.90 564.32 176.00 546.00 C 176.10 527.68 176.19 505.69 176.00 488.00 C 175.81 470.31 180.34 449.61 161.00 444.00
C 180.34 442.33 202.35 442.34 222.00 444.00
C 202.56 447.52 205.95 467.03 206.00 484.00 C 206.05 500.97 205.96 522.61 206.00 540.00
C 209.00 515.73 205.00 488.19 208.00 464.00
C 208.00 445.96 219.64 448.36 232.22 444.22 C 244.80 440.08 242.41 426.00 249.31 417.31 C 256.20 408.61 256.55 395.78 261.93 385.93 C 267.30 376.08 265.78 359.80 271.00 350.00
C 267.10 358.70 264.32 375.13 260.32 386.32 C 256.33 397.51 251.70 411.21 246.31 421.31 C 240.91 431.40 235.55 449.06 222.00 442.00
C 228.37 438.23 234.80 430.42 237.23 423.23 C 239.66 416.04 246.43 405.06 244.00 398.00 Z"/>
</g>
<g fill="None" fill-opacity="0.0" stroke="#000000" stroke-opacity="1.00" stroke-width="0.3"><path d="
M 271.00 350.00 
C 265.78 359.80 267.30 376.08 261.93 385.93 C 256.55 395.78 256.20 408.61 249.31 417.31 C 242.41 426.00 244.80 440.08 232.22 444.22 C 219.64 448.36 208.00 445.96 208.00 464.00
C 208.00 470.19 207.79 476.86 208.00 483.00 C 208.21 489.14 207.45 496.03 208.00 502.00 C 208.55 507.97 206.74 515.46 208.00 521.00 C 209.26 526.54 205.18 535.40 208.00 540.00
C 218.82 533.54 228.32 525.28 238.00 517.00
C 243.59 511.42 249.46 505.54 255.00 500.00
C 267.28 485.63 281.70 472.65 293.00 458.00
C 292.63 457.53 290.46 456.12 290.00 456.00
C 272.58 458.20 246.99 443.09 255.93 423.93 C 264.86 404.76 276.52 398.70 278.00 377.00
C 278.24 373.43 278.19 369.58 278.00 366.00
C 277.83 362.86 276.01 350.52 273.00 349.00
C 272.27 349.29 271.73 349.73 271.00 350.00 Z"/>
</g>
<g fill="None" fill-opacity="0.0" stroke="#F1DA02" stroke-opacity="1.00" stroke-width="0.3"><path d="
M 290.00 456.00 
C 290.98 455.88 292.01 456.10 293.00 456.00
C 282.32 452.89 265.43 454.31 258.25 442.75 C 251.06 431.20 259.37 416.64 268.00 409.00
C 274.39 400.05 278.79 387.32 278.00 377.00
C 276.52 398.70 264.86 404.76 255.93 423.93 C 246.99 443.09 272.58 458.20 290.00 456.00 Z"/>
</g>
<g fill="None" fill-opacity="0.0" stroke="#C58A00" stroke-opacity="1.00" stroke-width="0.3"><path d="
M 268.00 409.00 
C 259.37 416.64 251.06 431.20 258.25 442.75 C 265.43 454.31 282.32 452.89 293.00 456.00
C 292.01 456.10 290.98 455.88 290.00 456.00
C 290.46 456.12 292.63 457.53 293.00 458.00
C 294.59 460.02 286.65 467.85 283.75 470.75 C 280.85 473.66 275.82 479.70 272.25 483.25 C 268.68 486.80 263.33 492.07 260.23 496.23 C 257.13 500.39 251.68 504.34 248.25 508.25 C 244.82 512.16 239.03 517.15 235.75 520.75 C 232.47 524.35 225.10 528.91 222.30 531.30 C 219.50 533.69 209.34 542.18 208.00 540.00
C 205.18 535.40 209.26 526.54 208.00 521.00 C 206.74 515.46 208.55 507.97 208.00 502.00 C 207.45 496.03 208.21 489.14 208.00 483.00 C 207.79 476.86 208.00 470.19 208.00 464.00
C 205.00 488.19 209.00 515.73 206.00 540.00
C 205.96 522.61 206.05 500.97 206.00 484.00 C 205.95 467.03 202.56 447.52 222.00 444.00
C 202.35 442.34 180.34 442.33 161.00 444.00
C 180.34 449.61 175.81 470.31 176.00 488.00 C 176.19 505.69 176.10 527.68 176.00 546.00 C 175.90 564.32 176.91 585.30 175.00 603.00
C 172.82 557.30 178.35 509.90 174.00 465.00
C 174.00 511.10 176.50 557.98 174.00 604.00
C 174.57 611.46 171.03 619.86 161.00 619.00
C 168.35 621.96 179.26 619.78 189.00 620.00 C 198.75 620.22 212.80 620.66 222.00 619.00
C 210.41 618.49 206.73 609.82 206.01 598.99 C 205.29 588.17 207.42 574.23 206.00 563.00 C 204.58 551.77 210.69 544.58 221.00 541.00
C 231.67 553.93 240.41 568.38 251.00 581.00
C 253.92 583.00 254.30 582.20 257.00 580.00
C 256.59 582.76 257.10 584.46 255.00 586.00
C 262.57 589.27 254.41 574.33 263.00 578.00
C 260.49 579.76 259.28 580.66 260.00 585.00
C 262.17 582.31 265.73 584.90 268.00 587.00
C 269.60 586.95 271.81 585.66 274.00 585.00
C 271.95 579.45 267.34 585.70 265.00 582.00
C 264.92 577.38 274.66 577.69 274.00 572.00
C 271.82 573.12 270.10 571.50 268.00 573.00
C 270.84 569.29 268.81 569.48 268.00 566.00
C 265.56 566.30 264.60 568.51 262.00 567.00
C 262.88 565.28 262.75 563.80 262.00 562.00
C 264.49 563.61 265.53 561.19 268.00 561.00
C 263.52 557.71 267.03 559.62 269.00 557.00
C 267.06 554.95 265.00 558.04 263.00 556.00
C 263.82 554.21 263.12 551.79 266.00 551.00
C 260.18 543.17 256.59 536.56 250.23 528.77 C 243.87 520.98 255.87 514.02 261.75 507.75 C 267.63 501.49 274.45 494.93 280.75 488.75 C 287.05 482.58 293.64 475.19 300.25 469.25 C 306.86 463.31 312.23 455.03 320.25 451.25 C 328.27 447.46 337.20 439.95 345.00 439.00
C 340.90 446.88 337.39 454.86 334.00 463.00
C 333.10 466.77 333.54 471.12 331.00 475.00
C 335.26 473.52 340.25 480.30 346.00 479.00
C 342.78 476.56 337.19 472.12 344.00 470.00
C 341.77 477.39 347.65 470.28 350.00 474.00
C 351.56 470.22 353.38 463.92 358.00 464.00
C 359.82 483.13 370.01 502.61 376.00 521.00
C 376.62 517.00 378.75 517.02 382.00 515.00
C 383.32 519.16 378.83 517.35 379.00 520.00
C 383.83 519.81 384.72 521.82 383.00 526.00
C 385.27 527.92 387.56 523.49 389.00 527.00
C 390.55 525.80 388.04 523.62 391.00 524.00
C 390.82 522.42 391.98 520.75 392.00 520.00
C 391.80 518.92 391.27 518.68 391.00 518.00
C 388.14 515.75 383.30 496.94 385.00 492.00
C 384.89 491.65 384.21 491.26 384.00 491.00
C 380.29 486.28 379.46 475.13 380.00 470.00
C 379.80 469.15 379.15 468.47 379.00 468.00
C 373.20 463.45 375.88 445.16 371.07 437.93 C 366.27 430.69 370.35 411.98 359.77 409.23 C 349.19 406.48 331.46 410.02 321.00 409.00
C 319.00 409.00 317.00 409.00 315.00 409.00
C 314.90 409.02 315.00 410.00 315.00 410.00
C 316.56 410.34 319.17 409.25 320.00 411.00
C 313.47 412.36 306.10 409.63 300.00 410.00
C 299.34 411.35 297.41 411.84 296.00 412.00
C 294.58 410.07 296.55 406.48 293.00 409.00
C 292.73 406.34 293.72 403.27 292.00 401.00
C 293.26 398.60 295.42 400.33 297.00 398.00
C 295.07 395.96 292.78 398.47 291.00 397.00
C 290.96 400.57 290.99 404.19 292.00 407.00
C 285.86 408.49 288.94 402.96 289.00 399.00
C 284.18 399.01 282.96 404.42 280.00 408.00
C 282.80 410.27 282.68 405.53 285.00 405.00
C 284.45 408.97 291.27 409.24 291.00 414.00
C 288.96 411.08 286.57 415.18 284.00 412.00
C 285.69 418.09 281.71 412.73 279.00 417.00
C 279.01 414.69 276.74 413.18 278.00 411.00
C 275.39 406.82 268.76 412.74 268.00 409.00 Z"/>
</g>
<g fill="None" fill-opacity="0.0" stroke="#ECCB01" stroke-opacity="1.00" stroke-width="0.3"><path d="
M 321.00 409.00 
C 331.46 410.02 349.19 406.48 359.77 409.23 C 370.35 411.98 366.27 430.69 371.07 437.93 C 375.88 445.16 373.20 463.45 379.00 468.00
C 373.48 450.29 373.17 437.18 366.98 419.02 C 360.79 400.87 337.45 409.00 321.00 409.00 Z"/>
</g>
<g fill="None" fill-opacity="0.0" stroke="#5A3D00" stroke-opacity="1.00" stroke-width="0.3"><path d="
M 315.00 410.00 
C 315.00 410.00 314.90 409.02 315.00 409.00
C 312.05 409.00 305.61 410.26 303.00 409.00
C 305.92 411.06 311.22 409.77 315.00 410.00 Z"/>
</g>
<g fill="None" fill-opacity="0.0" stroke="#EECB02" stroke-opacity="1.00" stroke-width="0.3"><path d="
M 266.00 551.00 
C 283.68 574.78 296.28 607.82 325.00 619.00
C 310.96 619.69 286.82 623.45 275.25 613.75 C 263.68 604.05 260.19 591.56 251.00 581.00
C 240.41 568.38 231.67 553.93 221.00 541.00
C 210.69 544.58 204.58 551.77 206.00 563.00 C 207.42 574.23 205.29 588.17 206.01 598.99 C 206.73 609.82 210.41 618.49 222.00 619.00
C 212.80 620.66 198.75 620.22 189.00 620.00 C 179.26 619.78 168.35 621.96 161.00 619.00
C 171.03 619.86 174.57 611.46 174.00 604.00
C 174.77 608.86 171.93 612.55 168.69 615.69 C 165.46 618.84 157.81 615.98 159.00 622.00
C 180.67 622.00 202.33 622.00 224.00 622.00
C 223.92 615.54 215.52 618.49 211.75 613.25 C 207.98 608.00 208.00 602.55 208.00 596.00
C 207.38 589.59 206.18 581.08 207.00 574.00 C 207.82 566.92 205.20 558.12 208.00 552.00
C 210.66 547.94 216.50 544.45 221.00 542.00
C 225.21 548.52 230.20 554.99 234.75 561.25 C 239.29 567.52 243.50 573.71 248.23 579.77 C 252.96 585.83 256.59 592.52 261.70 598.30 C 266.81 604.09 269.14 611.49 275.92 616.08 C 282.70 620.67 294.52 621.90 303.00 621.00 C 311.48 620.10 326.22 626.42 330.00 618.00
C 306.35 616.90 295.96 592.03 283.77 575.23 C 271.58 558.43 260.39 539.59 248.00 523.00
C 279.60 494.90 305.85 458.19 343.00 439.00
C 335.32 454.85 329.63 471.46 324.00 488.00
C 327.61 485.17 331.56 469.44 334.00 463.00
C 337.39 454.86 340.90 446.88 345.00 439.00
C 337.20 439.95 328.27 447.46 320.25 451.25 C 312.23 455.03 306.86 463.31 300.25 469.25 C 293.64 475.19 287.05 482.58 280.75 488.75 C 274.45 494.93 267.63 501.49 261.75 507.75 C 255.87 514.02 243.87 520.98 250.23 528.77 C 256.59 536.56 260.18 543.17 266.00 551.00 Z"/>
</g>
<g fill="None" fill-opacity="0.0" stroke="#826300" stroke-opacity="1.00" stroke-width="0.3"><path d="
M 174.00 457.00 
C 173.95 456.65 173.06 456.24 173.00 456.00
C 173.07 456.35 173.95 456.77 174.00 457.00 Z"/>
</g>
<g fill="None" fill-opacity="0.0" stroke="#EED802" stroke-opacity="1.00" stroke-width="0.3"><path d="
M 255.00 500.00 
C 249.86 506.01 243.96 511.91 238.00 517.00
C 228.32 525.28 218.82 533.54 208.00 540.00
C 209.34 542.18 219.50 533.69 222.30 531.30 C 225.10 528.91 232.47 524.35 235.75 520.75 C 239.03 517.15 244.82 512.16 248.25 508.25 C 251.68 504.34 257.13 500.39 260.23 496.23 C 263.33 492.07 268.68 486.80 272.25 483.25 C 275.82 479.70 280.85 473.66 283.75 470.75 C 286.65 467.85 294.59 460.02 293.00 458.00
C 281.70 472.65 267.28 485.63 255.00 500.00 Z"/>
</g>
<g fill="None" fill-opacity="0.0" stroke="#B77800" stroke-opacity="1.00" stroke-width="0.3"><path d="
M 324.00 488.00 
C 323.78 488.64 323.23 489.00 323.00 490.00
C 323.75 497.17 321.65 510.45 320.07 518.07 C 318.49 525.69 319.37 539.12 311.75 543.75 C 304.13 548.38 303.61 561.17 300.00 564.00
C 299.88 564.47 299.17 565.12 299.00 566.00
C 299.22 569.96 297.61 575.16 297.00 579.00
C 302.17 574.19 299.50 563.43 307.70 560.70 C 315.89 557.96 315.85 576.09 314.00 581.00
C 314.15 582.27 314.59 582.18 315.00 583.00
C 316.42 584.33 326.08 588.83 327.00 590.00
C 327.70 590.22 327.86 590.81 329.00 591.00
C 331.23 590.70 334.36 589.19 337.00 591.00
C 319.30 577.30 325.17 549.70 330.99 530.99 C 336.81 512.29 344.18 492.81 350.00 474.00
C 347.65 470.28 341.77 477.39 344.00 470.00
C 337.19 472.12 342.78 476.56 346.00 479.00
C 340.25 480.30 335.26 473.52 331.00 475.00
C 333.54 471.12 333.10 466.77 334.00 463.00
C 331.56 469.44 327.61 485.17 324.00 488.00 Z"/>
</g>
<g fill="None" fill-opacity="0.0" stroke="#E9C101" stroke-opacity="1.00" stroke-width="0.3"><path d="
M 350.00 474.00 
C 344.18 492.81 336.81 512.29 330.99 530.99 C 325.17 549.70 319.30 577.30 337.00 591.00
C 334.36 589.19 331.23 590.70 329.00 591.00
C 332.23 590.57 334.73 592.70 338.00 592.00
C 333.77 584.87 326.20 580.01 327.00 570.00 C 327.80 559.99 327.03 549.02 330.02 540.02 C 333.02 531.03 335.01 523.56 338.02 515.02 C 341.04 506.49 343.14 498.43 346.07 490.07 C 349.00 481.72 351.47 474.07 355.00 466.00
C 363.38 479.78 360.49 494.78 370.22 508.78 C 379.95 522.78 368.72 539.71 372.00 554.00
C 373.27 544.40 378.88 531.46 376.00 521.00
C 370.01 502.61 359.82 483.13 358.00 464.00
C 353.38 463.92 351.56 470.22 350.00 474.00 Z"/>
</g>
<g fill="None" fill-opacity="0.0" stroke="#EFC601" stroke-opacity="1.00" stroke-width="0.3"><path d="
M 384.00 491.00 
C 382.20 484.13 381.58 476.88 380.00 470.00
C 379.46 475.13 380.29 486.28 384.00 491.00 Z"/>
</g>
<g fill="None" fill-opacity="0.0" stroke="#E6BF01" stroke-opacity="1.00" stroke-width="0.3"><path d="
M 726.00 488.00 
C 695.71 485.48 674.91 518.95 686.23 545.77 C 697.55 572.60 735.33 574.87 751.70 551.70 C 768.07 528.53 756.00 490.49 726.00 488.00
M 730.00 490.00 
C 757.76 494.51 766.02 533.12 749.23 553.23 C 732.44 573.34 695.04 570.35 686.23 542.77 C 677.42 515.19 699.53 485.05 730.00 490.00 Z"/>
</g>
<g fill="None" fill-opacity="0.0" stroke="#E9BF01" stroke-opacity="1.00" stroke-width="0.3"><path d="
M 441.00 546.00 
C 443.37 536.88 426.32 533.17 419.77 527.23 C 413.22 521.29 407.23 505.72 416.25 497.25 C 425.27 488.78 437.90 488.08 449.00 493.00
C 447.31 496.26 452.12 505.10 448.00 504.00
C 447.75 505.93 449.53 507.17 451.00 508.00
C 451.75 502.06 449.68 496.82 450.00 491.00
C 439.80 488.81 425.17 486.81 416.25 495.25 C 407.33 503.69 408.39 518.52 416.75 526.25 C 425.12 533.97 435.78 535.53 441.00 546.00 Z"/>
</g>
<g fill="None" fill-opacity="0.0" stroke="#EFC502" stroke-opacity="1.00" stroke-width="0.3"><path d="
M 483.00 535.00 
C 483.06 535.16 484.00 535.00 484.00 535.00
C 481.97 527.82 476.82 517.30 472.75 511.25 C 468.67 505.21 467.13 491.00 459.00 489.00
C 458.26 488.82 465.03 497.59 467.08 501.92 C 469.12 506.26 472.79 513.95 475.23 518.77 C 477.67 523.59 481.06 529.84 483.00 535.00 Z"/>
</g>
<g fill="None" fill-opacity="0.0" stroke="#B27400" stroke-opacity="1.00" stroke-width="0.3"><path d="
M 484.00 535.00 
C 485.04 538.68 485.06 544.40 484.40 547.75 C 483.74 551.10 487.65 558.69 483.00 561.00
C 482.67 561.17 482.19 561.68 482.00 562.00
C 481.98 562.13 483.57 564.29 482.00 565.00
C 487.67 565.00 493.33 565.00 499.00 565.00
C 496.17 551.97 493.64 535.68 500.26 524.26 C 506.88 512.84 510.73 502.43 517.00 491.00
C 513.67 491.00 510.33 491.00 507.00 491.00
C 508.67 501.07 501.14 511.74 496.00 520.00
C 495.40 520.70 494.21 522.92 493.00 523.00
C 489.80 523.21 488.81 514.60 486.70 512.31 C 484.58 510.01 483.13 503.96 481.08 500.92 C 479.02 497.89 477.97 491.18 482.00 489.00
C 479.57 487.54 472.88 489.33 470.00 489.00 C 467.12 488.67 461.72 488.13 459.00 489.00
C 467.13 491.00 468.67 505.21 472.75 511.25 C 476.82 517.30 481.97 527.82 484.00 535.00 Z"/>
</g>
<g fill="None" fill-opacity="0.0" stroke="#ECC101" stroke-opacity="1.00" stroke-width="0.3"><path d="
M 493.00 523.00 
C 489.72 512.63 481.93 503.79 480.00 493.00
C 481.40 492.39 484.06 490.24 482.00 489.00
C 477.97 491.18 479.02 497.89 481.08 500.92 C 483.13 503.96 484.58 510.01 486.70 512.31 C 488.81 514.60 489.80 523.21 493.00 523.00 Z"/>
</g>
<g fill="None" fill-opacity="0.0" stroke="#E5B801" stroke-opacity="1.00" stroke-width="0.3"><path d="
M 496.00 520.00 
C 501.14 511.74 508.67 501.07 507.00 491.00
C 510.33 491.00 513.67 491.00 517.00 491.00
C 510.73 502.43 506.88 512.84 500.26 524.26 C 493.64 535.68 496.17 551.97 499.00 565.00
C 493.33 565.00 487.67 565.00 482.00 565.00
C 483.57 564.29 481.98 562.13 482.00 562.00
C 481.08 563.55 476.93 565.81 479.00 567.00
C 486.09 564.70 495.16 566.64 503.00 566.00
C 494.22 556.13 496.19 533.92 502.69 522.70 C 509.20 511.47 512.14 497.80 522.00 490.00
C 517.33 487.69 510.50 489.65 505.00 489.00
C 507.82 498.31 501.12 511.31 496.00 520.00 Z"/>
</g>
<g fill="None" fill-opacity="0.0" stroke="#EFC901" stroke-opacity="1.00" stroke-width="0.3"><path d="
M 528.00 567.00 
C 534.59 564.05 544.48 567.96 551.00 565.00
C 542.14 557.47 550.17 542.81 546.00 533.00
C 561.35 536.87 559.91 561.42 575.00 566.00
C 578.01 566.51 587.32 567.31 590.00 566.00
C 579.70 558.56 572.76 541.65 565.00 530.00
C 575.60 526.91 584.39 515.62 579.77 504.23 C 575.15 492.84 562.17 489.69 551.00 490.00
C 548.88 490.06 546.43 490.84 545.00 491.00
C 556.97 491.00 572.00 490.79 577.92 503.08 C 583.84 515.37 573.11 526.42 563.00 531.00
C 572.51 541.02 576.07 555.06 586.00 565.00
C 573.53 569.62 567.58 558.78 563.08 550.92 C 558.58 543.06 554.67 531.14 545.00 533.00
C 548.23 543.09 543.17 555.41 548.00 565.00
C 542.00 565.00 536.00 565.00 530.00 565.00
C 534.51 560.17 532.66 554.35 533.00 548.00 C 533.34 541.65 532.57 533.39 533.00 527.00 C 533.43 520.61 532.16 513.10 533.00 507.00 C 533.84 500.90 531.02 493.46 532.00 491.00
C 531.54 490.88 529.37 489.03 529.00 489.00
C 528.29 488.94 532.77 499.54 532.00 505.00 C 531.23 510.46 531.78 522.12 532.00 528.00 C 532.22 533.88 530.64 545.89 532.00 551.00 C 533.36 556.11 528.12 567.07 528.00 567.00 Z"/>
</g>
<g fill="None" fill-opacity="0.0" stroke="#C28D02" stroke-opacity="1.00" stroke-width="0.3"><path d="
M 532.00 491.00 
C 535.77 491.96 541.09 491.00 545.00 491.00
C 546.43 490.84 548.88 490.06 551.00 490.00
C 545.58 489.48 534.97 486.88 529.00 489.00
C 529.37 489.03 531.54 490.88 532.00 491.00 Z"/>
</g>
<g fill="None" fill-opacity="0.0" stroke="#EDC501" stroke-opacity="1.00" stroke-width="0.3"><path d="
M 626.00 567.00 
C 621.12 561.62 605.58 560.16 601.25 548.75 C 596.91 537.35 595.09 522.38 601.31 511.31 C 607.52 500.23 613.44 493.95 626.02 491.02 C 638.61 488.10 651.13 490.81 660.75 500.25 C 670.38 509.69 669.78 523.70 671.00 536.00
C 674.41 515.51 664.84 491.67 642.00 489.00 C 619.16 486.33 601.94 498.35 596.78 520.78 C 591.62 543.21 605.42 560.59 626.00 567.00 Z"/>
</g>
<g fill="None" fill-opacity="0.0" stroke="#CB9501" stroke-opacity="1.00" stroke-width="0.3"><path d="
M 776.00 495.00 
C 776.05 494.65 776.65 494.06 777.00 494.00
C 781.40 493.21 777.51 493.93 779.00 491.00
C 782.89 491.93 786.68 490.57 791.00 491.00
C 791.23 490.95 792.00 490.00 792.00 490.00
C 785.99 487.67 777.83 489.66 771.00 489.00
C 771.94 490.39 774.20 494.10 776.00 495.00 Z"/>
</g>
<g fill="None" fill-opacity="0.0" stroke="#E2B401" stroke-opacity="1.00" stroke-width="0.3"><path d="
M 814.00 541.00 
C 815.00 543.74 819.61 533.42 820.92 528.92 C 822.24 524.43 825.67 517.88 827.32 512.32 C 828.98 506.76 832.51 502.68 833.98 495.98 C 835.44 489.27 846.70 490.79 853.00 491.00
C 847.38 502.02 851.14 514.73 851.99 527.01 C 852.85 539.29 850.52 554.54 857.00 565.00
C 851.00 565.00 845.00 565.00 839.00 565.00
C 842.27 547.06 837.30 526.40 839.00 508.00
C 837.74 508.08 838.44 510.06 837.00 510.00
C 837.22 519.10 838.80 531.00 838.00 540.00 C 837.20 549.00 843.36 559.93 835.00 565.00
C 834.60 566.90 835.91 566.61 837.00 567.00
C 839.44 567.56 848.04 566.71 851.00 567.00
C 854.00 567.00 857.00 567.00 860.00 567.00
C 852.37 557.28 853.49 540.89 853.00 528.00 C 852.51 515.11 847.65 498.62 856.00 489.00
C 849.00 489.00 842.00 489.00 835.00 489.00
C 833.32 494.59 830.56 501.91 827.98 506.98 C 825.39 512.04 824.40 520.19 821.31 524.31 C 818.21 528.43 818.51 539.31 814.00 541.00 Z"/>
</g>
<g fill="None" fill-opacity="0.0" stroke="#E9BE01" stroke-opacity="1.00" stroke-width="0.3"><path d="
M 909.00 491.00 
C 910.17 494.63 908.13 499.28 909.00 503.00
C 905.51 491.41 883.55 488.95 881.68 502.68 C 879.80 516.41 895.43 518.88 904.25 526.75 C 913.07 534.62 917.12 550.62 906.75 559.75 C 896.38 568.88 881.23 567.56 870.00 561.00
C 870.00 557.00 870.00 553.00 870.00 549.00
C 874.35 558.88 889.12 569.33 899.25 559.25 C 909.37 549.16 897.99 535.45 886.77 531.23 C 875.55 527.01 867.64 512.20 874.31 500.31 C 880.97 488.41 897.65 488.60 908.00 492.00
C 896.57 485.63 879.68 488.42 872.92 499.92 C 866.17 511.43 874.29 527.37 885.25 531.75 C 896.22 536.12 909.21 549.41 897.22 559.22 C 885.24 569.04 874.35 552.91 868.00 546.00
C 867.90 551.47 869.71 556.39 869.00 562.00
C 880.89 568.51 895.44 570.68 906.75 561.75 C 918.06 552.83 914.70 535.95 906.75 527.25 C 898.80 518.55 880.15 516.73 883.08 502.08 C 886.00 487.42 909.14 495.98 910.00 508.00
C 911.09 504.81 912.24 493.63 909.00 491.00 Z"/>
</g>
<g fill="None" fill-opacity="0.0" stroke="#ECC301" stroke-opacity="1.00" stroke-width="0.3"><path d="
M 300.00 564.00 
C 303.61 561.17 304.13 548.38 311.75 543.75 C 319.37 539.12 318.49 525.69 320.07 518.07 C 321.65 510.45 323.75 497.17 323.00 490.00
C 320.97 498.82 320.34 510.23 318.98 518.98 C 317.61 527.73 317.52 536.45 310.75 542.75 C 303.98 549.06 302.13 555.51 300.00 564.00 Z"/>
</g>
<g fill="None" fill-opacity="0.0" stroke="#B07000" stroke-opacity="1.00" stroke-width="0.3"><path d="
M 441.00 546.00 
C 441.17 546.33 441.76 546.74 442.00 547.00
C 448.18 553.69 435.27 564.81 428.00 563.00 C 420.73 561.19 413.64 555.72 410.00 549.00
C 405.16 570.87 442.26 571.74 450.75 555.75 C 459.25 539.77 442.88 518.93 427.00 518.00
C 424.50 512.62 419.37 507.38 421.93 500.93 C 424.49 494.47 432.58 491.50 436.00 494.00
C 435.88 493.97 437.88 494.96 438.00 495.00
C 441.63 494.89 447.83 498.50 447.00 503.00
C 447.21 503.30 447.90 503.74 448.00 504.00
C 452.12 505.10 447.31 496.26 449.00 493.00
C 437.90 488.08 425.27 488.78 416.25 497.25 C 407.23 505.72 413.22 521.29 419.77 527.23 C 426.32 533.17 443.37 536.88 441.00 546.00 Z"/>
</g>
<g fill="None" fill-opacity="0.0" stroke="#AE7000" stroke-opacity="1.00" stroke-width="0.3"><path d="
M 626.00 567.00 
C 626.78 567.24 626.74 567.84 628.00 568.00
C 638.00 567.01 646.61 563.15 655.25 558.25 C 663.89 553.35 665.14 541.82 670.00 538.00
C 670.26 537.23 670.80 537.21 671.00 536.00
C 669.78 523.70 670.38 509.69 660.75 500.25 C 651.13 490.81 638.61 488.10 626.02 491.02 C 613.44 493.95 607.52 500.23 601.31 511.31 C 595.09 522.38 596.91 537.35 601.25 548.75 C 605.58 560.16 621.12 561.62 626.00 567.00
M 656.00 537.00 
C 655.89 537.41 655.16 538.17 655.00 539.00
C 655.69 545.60 652.55 553.19 646.92 557.92 C 641.28 562.65 630.70 565.77 624.31 560.69 C 617.91 555.62 615.08 551.12 612.22 543.78 C 609.36 536.43 609.45 526.40 610.78 518.78 C 612.10 511.16 614.78 504.00 620.25 498.25 C 625.71 492.50 635.37 491.77 641.69 495.31 C 648.02 498.84 652.60 506.26 654.77 512.23 C 656.94 518.20 659.35 534.44 656.00 537.00 Z"/>
</g>
<g fill="None" fill-opacity="0.0" stroke="#AE7000" stroke-opacity="1.00" stroke-width="0.3"><path d="
M 730.00 490.00 
C 699.53 485.05 677.42 515.19 686.23 542.77 C 695.04 570.35 732.44 573.34 749.23 553.23 C 766.02 533.12 757.76 494.51 730.00 490.00
M 725.00 493.00 
C 741.37 496.39 744.36 518.10 745.00 532.00 C 745.64 545.90 733.70 567.48 717.00 563.00 C 700.30 558.52 697.53 538.04 697.33 524.33 C 697.13 510.62 708.26 489.53 725.00 493.00 Z"/>
</g>
<g fill="None" fill-opacity="0.0" stroke="#EABF01" stroke-opacity="1.00" stroke-width="0.3"><path d="
M 791.00 491.00 
C 793.91 498.81 800.22 508.50 802.31 516.69 C 804.39 524.89 806.10 524.45 807.78 530.22 C 809.45 535.99 812.41 540.80 813.00 540.00
C 810.46 534.84 808.93 527.67 806.31 522.69 C 803.68 517.72 802.21 509.98 799.31 505.69 C 796.40 501.41 796.46 492.07 792.00 490.00
C 792.00 490.00 791.23 490.95 791.00 491.00 Z"/>
</g>
<g fill="None" fill-opacity="0.0" stroke="#AE6F00" stroke-opacity="1.00" stroke-width="0.3"><path d="
M 909.00 491.00 
C 908.88 490.90 908.26 491.76 908.00 492.00
C 897.65 488.60 880.97 488.41 874.31 500.31 C 867.64 512.20 875.55 527.01 886.77 531.23 C 897.99 535.45 909.37 549.16 899.25 559.25 C 889.12 569.33 874.35 558.88 870.00 549.00
C 870.00 553.00 870.00 557.00 870.00 561.00
C 881.23 567.56 896.38 568.88 906.75 559.75 C 917.12 550.62 913.07 534.62 904.25 526.75 C 895.43 518.88 879.80 516.41 881.68 502.68 C 883.55 488.95 905.51 491.41 909.00 503.00
C 908.13 499.28 910.17 494.63 909.00 491.00 Z"/>
</g>
<g fill="None" fill-opacity="0.0" stroke="#AF7100" stroke-opacity="1.00" stroke-width="0.3"><path d="
M 545.00 491.00 
C 541.09 491.00 535.77 491.96 532.00 491.00
C 531.02 493.46 533.84 500.90 533.00 507.00 C 532.16 513.10 533.43 520.61 533.00 527.00 C 532.57 533.39 533.34 541.65 533.00 548.00 C 532.66 554.35 534.51 560.17 530.00 565.00
C 536.00 565.00 542.00 565.00 548.00 565.00
C 543.17 555.41 548.23 543.09 545.00 533.00
C 554.67 531.14 558.58 543.06 563.08 550.92 C 567.58 558.78 573.53 569.62 586.00 565.00
C 576.07 555.06 572.51 541.02 563.00 531.00
C 573.11 526.42 583.84 515.37 577.92 503.08 C 572.00 490.79 556.97 491.00 545.00 491.00
M 548.00 528.00 
C 545.70 526.82 547.03 528.32 547.00 526.00
C 546.22 521.48 545.09 514.12 546.00 509.00 C 546.91 503.89 543.79 495.90 546.00 496.00
C 547.33 496.06 548.67 495.94 550.00 496.00
C 549.24 495.71 547.53 494.83 547.00 494.00
C 571.96 490.94 573.18 534.22 548.00 528.00 Z"/>
</g>
<g fill="None" fill-opacity="0.0" stroke="#B07100" stroke-opacity="1.00" stroke-width="0.3"><path d="
M 777.00 494.00 
C 778.43 498.44 775.17 507.46 776.00 506.00
C 775.83 506.97 775.09 508.42 775.00 510.00
C 775.85 527.53 776.82 548.29 771.00 565.00
C 774.67 565.00 778.33 565.00 782.00 565.00
C 778.94 562.57 780.10 556.09 780.00 553.00 C 779.90 549.91 779.56 540.61 781.00 544.00
C 781.17 543.03 781.91 541.58 782.00 540.00
C 781.79 535.65 782.26 526.31 782.00 527.00
C 782.16 525.57 782.94 523.12 783.00 521.00
C 782.77 517.65 780.53 512.36 783.00 509.00
C 783.22 508.70 783.70 508.21 784.00 508.00
C 785.96 506.63 790.73 519.16 791.98 523.03 C 793.22 526.89 799.01 536.97 798.00 541.00
C 798.17 541.33 798.74 541.75 799.00 542.00
C 804.84 547.59 805.49 558.05 809.00 565.00
C 812.47 561.17 814.43 555.52 816.77 550.77 C 819.11 546.02 821.49 540.37 823.77 535.77 C 826.06 531.17 827.94 524.39 830.31 520.31 C 832.67 516.22 834.50 506.61 837.00 509.00
C 837.00 509.00 837.00 509.50 837.00 510.00
C 838.44 510.06 837.74 508.08 839.00 508.00
C 837.30 526.40 842.27 547.06 839.00 565.00
C 845.00 565.00 851.00 565.00 857.00 565.00
C 850.52 554.54 852.85 539.29 851.99 527.01 C 851.14 514.73 847.38 502.02 853.00 491.00
C 846.70 490.79 835.44 489.27 833.98 495.98 C 832.51 502.68 828.98 506.76 827.32 512.32 C 825.67 517.88 822.24 524.43 820.92 528.92 C 819.61 533.42 815.00 543.74 814.00 541.00
C 813.87 540.65 813.13 540.27 813.00 540.00
C 812.41 540.80 809.45 535.99 807.78 530.22 C 806.10 524.45 804.39 524.89 802.31 516.69 C 800.22 508.50 793.91 498.81 791.00 491.00
C 786.68 490.57 782.89 491.93 779.00 491.00
C 777.51 493.93 781.40 493.21 777.00 494.00 Z"/>
</g>
<g fill="None" fill-opacity="0.0" stroke="#EFC102" stroke-opacity="1.00" stroke-width="0.3"><path d="
M 391.00 518.00 
C 387.81 509.89 387.51 500.33 385.00 492.00
C 383.30 496.94 388.14 515.75 391.00 518.00 Z"/>
</g>
<g fill="None" fill-opacity="0.0" stroke="#EBC001" stroke-opacity="1.00" stroke-width="0.3"><path d="
M 442.00 547.00 
C 444.49 557.74 432.87 563.12 424.22 560.78 C 415.58 558.43 414.07 550.81 409.00 545.00
C 409.00 550.67 409.00 556.33 409.00 562.00
C 418.95 567.75 432.07 570.18 442.77 564.77 C 453.47 559.36 457.04 545.10 451.97 535.03 C 446.90 524.96 438.83 520.58 428.70 515.30 C 418.57 510.03 422.04 490.85 436.00 494.00
C 432.58 491.50 424.49 494.47 421.93 500.93 C 419.37 507.38 424.50 512.62 427.00 518.00
C 442.88 518.93 459.25 539.77 450.75 555.75 C 442.26 571.74 405.16 570.87 410.00 549.00
C 413.64 555.72 420.73 561.19 428.00 563.00 C 435.27 564.81 448.18 553.69 442.00 547.00 Z"/>
</g>
<g fill="None" fill-opacity="0.0" stroke="#ECC301" stroke-opacity="1.00" stroke-width="0.3"><path d="
M 655.00 539.00 
C 652.42 552.65 640.44 568.12 625.31 559.69 C 610.17 551.27 612.20 532.82 611.98 518.98 C 611.76 505.13 628.29 488.17 641.07 495.93 C 653.85 503.68 659.45 523.60 656.00 537.00
C 659.35 534.44 656.94 518.20 654.77 512.23 C 652.60 506.26 648.02 498.84 641.69 495.31 C 635.37 491.77 625.71 492.50 620.25 498.25 C 614.78 504.00 612.10 511.16 610.78 518.78 C 609.45 526.40 609.36 536.43 612.22 543.78 C 615.08 551.12 617.91 555.62 624.31 560.69 C 630.70 565.77 641.28 562.65 646.92 557.92 C 652.55 553.19 655.69 545.60 655.00 539.00 Z"/>
</g>
<g fill="None" fill-opacity="0.0" stroke="#ECC201" stroke-opacity="1.00" stroke-width="0.3"><path d="
M 725.00 493.00 
C 708.26 489.53 697.13 510.62 697.33 524.33 C 697.53 538.04 700.30 558.52 717.00 563.00 C 733.70 567.48 745.64 545.90 745.00 532.00 C 744.36 518.10 741.37 496.39 725.00 493.00
M 724.00 494.00 
C 738.91 496.12 743.39 517.52 744.00 530.00 C 744.61 542.48 735.38 564.91 719.00 562.00 C 702.62 559.09 699.30 539.47 699.00 526.00 C 698.70 512.53 707.09 491.60 724.00 494.00 Z"/>
</g>
<g fill="None" fill-opacity="0.0" stroke="#E6C201" stroke-opacity="1.00" stroke-width="0.3"><path d="
M 438.00 495.00 
C 442.52 496.69 444.33 499.20 447.00 503.00
C 447.83 498.50 441.63 494.89 438.00 495.00 Z"/>
</g>
<g fill="None" fill-opacity="0.0" stroke="#E8C001" stroke-opacity="1.00" stroke-width="0.3"><path d="
M 550.00 496.00 
C 572.57 496.97 568.63 533.03 548.00 528.00
C 573.18 534.22 571.96 490.94 547.00 494.00
C 547.53 494.83 549.24 495.71 550.00 496.00 Z"/>
</g>
<g fill="None" fill-opacity="0.0" stroke="#000000" stroke-opacity="1.00" stroke-width="0.3"><path d="
M 655.00 539.00 
C 655.16 538.17 655.89 537.41 656.00 537.00
C 659.45 523.60 653.85 503.68 641.07 495.93 C 628.29 488.17 611.76 505.13 611.98 518.98 C 612.20 532.82 610.17 551.27 625.31 559.69 C 640.44 568.12 652.42 552.65 655.00 539.00 Z"/>
</g>
<g fill="None" fill-opacity="0.0" stroke="#000000" stroke-opacity="1.00" stroke-width="0.3"><path d="
M 724.00 494.00 
C 707.09 491.60 698.70 512.53 699.00 526.00 C 699.30 539.47 702.62 559.09 719.00 562.00 C 735.38 564.91 744.61 542.48 744.00 530.00 C 743.39 517.52 738.91 496.12 724.00 494.00 Z"/>
</g>
<g fill="None" fill-opacity="0.0" stroke="#FDDA00" stroke-opacity="1.00" stroke-width="0.3"><path d="
M 776.00 495.00 
C 775.48 498.58 776.62 502.44 776.00 506.00
C 775.17 507.46 778.43 498.44 777.00 494.00
C 776.65 494.06 776.05 494.65 776.00 495.00 Z"/>
</g>
<g fill="None" fill-opacity="0.0" stroke="#F7D602" stroke-opacity="1.00" stroke-width="0.3"><path d="
M 547.00 526.00 
C 546.88 517.56 549.71 503.47 546.00 496.00
C 543.79 495.90 546.91 503.89 546.00 509.00 C 545.09 514.12 546.22 521.48 547.00 526.00 Z"/>
</g>
<g fill="None" fill-opacity="0.0" stroke="#000000" stroke-opacity="1.00" stroke-width="0.3"><path d="
M 547.00 526.00 
C 547.03 528.32 545.70 526.82 548.00 528.00
C 568.63 533.03 572.57 496.97 550.00 496.00
C 548.67 495.94 547.33 496.06 546.00 496.00
C 549.71 503.47 546.88 517.56 547.00 526.00 Z"/>
</g>
<g fill="None" fill-opacity="0.0" stroke="#725101" stroke-opacity="1.00" stroke-width="0.3"><path d="
M 238.00 517.00 
C 243.96 511.91 249.86 506.01 255.00 500.00
C 249.46 505.54 243.59 511.42 238.00 517.00 Z"/>
</g>
<g fill="None" fill-opacity="0.0" stroke="#E3B702" stroke-opacity="1.00" stroke-width="0.3"><path d="
M 784.00 508.00 
C 788.24 511.75 788.19 520.11 791.22 524.78 C 794.25 529.44 795.40 536.02 798.00 541.00
C 799.01 536.97 793.22 526.89 791.98 523.03 C 790.73 519.16 785.96 506.63 784.00 508.00 Z"/>
</g>
<g fill="None" fill-opacity="0.0" stroke="#E5BB01" stroke-opacity="1.00" stroke-width="0.3"><path d="
M 799.00 542.00 
C 802.61 550.11 804.34 561.59 811.00 567.00
C 821.46 549.13 825.21 525.85 837.00 509.00
C 834.50 506.61 832.67 516.22 830.31 520.31 C 827.94 524.39 826.06 531.17 823.77 535.77 C 821.49 540.37 819.11 546.02 816.77 550.77 C 814.43 555.52 812.47 561.17 809.00 565.00
C 805.49 558.05 804.84 547.59 799.00 542.00 Z"/>
</g>
<g fill="None" fill-opacity="0.0" stroke="#FED802" stroke-opacity="1.00" stroke-width="0.3"><path d="
M 783.00 521.00 
C 783.11 517.10 782.44 512.86 783.00 509.00
C 780.53 512.36 782.77 517.65 783.00 521.00 Z"/>
</g>
<g fill="None" fill-opacity="0.0" stroke="#F3C801" stroke-opacity="1.00" stroke-width="0.3"><path d="
M 768.00 565.00 
C 773.09 567.27 780.16 565.38 786.00 566.00
C 779.39 562.25 779.76 551.09 781.00 544.00
C 779.56 540.61 779.90 549.91 780.00 553.00 C 780.10 556.09 778.94 562.57 782.00 565.00
C 778.33 565.00 774.67 565.00 771.00 565.00
C 776.82 548.29 775.85 527.53 775.00 510.00
C 774.45 519.50 774.18 530.70 774.00 540.00 C 773.82 549.30 771.74 547.37 773.00 555.00 C 774.26 562.63 769.57 560.59 768.00 565.00 Z"/>
</g>
<g fill="None" fill-opacity="0.0" stroke="#B17200" stroke-opacity="1.00" stroke-width="0.3"><path d="
M 376.00 521.00 
C 378.88 531.46 373.27 544.40 372.00 554.00
C 372.30 555.29 372.25 555.12 373.00 556.00
C 377.37 561.09 373.96 570.47 377.00 576.00
C 375.88 571.64 376.50 547.22 384.74 552.26 C 392.99 557.29 388.26 571.55 399.00 575.00
C 403.78 577.18 403.39 573.84 409.00 576.00
C 412.23 576.46 416.14 576.28 419.00 575.00
C 411.07 569.53 397.57 561.88 400.00 551.00
C 399.89 550.65 399.25 550.25 399.00 550.00
C 396.43 547.48 395.88 540.70 395.02 536.98 C 394.17 533.26 391.38 527.37 391.00 524.00
C 388.04 523.62 390.55 525.80 389.00 527.00
C 387.56 523.49 385.27 527.92 383.00 526.00
C 384.72 521.82 383.83 519.81 379.00 520.00
C 378.83 517.35 383.32 519.16 382.00 515.00
C 378.75 517.02 376.62 517.00 376.00 521.00 Z"/>
</g>
<g fill="None" fill-opacity="0.0" stroke="#EBBA01" stroke-opacity="1.00" stroke-width="0.3"><path d="
M 391.00 524.00 
C 391.38 527.37 394.17 533.26 395.02 536.98 C 395.88 540.70 396.43 547.48 399.00 550.00
C 397.30 539.69 393.91 530.14 392.00 520.00
C 391.98 520.75 390.82 522.42 391.00 524.00 Z"/>
</g>
<g fill="None" fill-opacity="0.0" stroke="#FBD401" stroke-opacity="1.00" stroke-width="0.3"><path d="
M 782.00 540.00 
C 782.25 535.71 781.51 531.27 782.00 527.00
C 782.26 526.31 781.79 535.65 782.00 540.00 Z"/>
</g>
<g fill="None" fill-opacity="0.0" stroke="#E1A501" stroke-opacity="1.00" stroke-width="0.3"><path d="
M 483.00 561.00 
C 487.65 558.69 483.74 551.10 484.40 547.75 C 485.06 544.40 485.04 538.68 484.00 535.00
C 484.00 535.00 483.06 535.16 483.00 535.00
C 482.25 543.32 484.81 552.87 483.00 561.00 Z"/>
</g>
<g fill="None" fill-opacity="0.0" stroke="#E8C201" stroke-opacity="1.00" stroke-width="0.3"><path d="
M 628.00 568.00 
C 648.64 570.54 664.03 555.55 670.00 538.00
C 665.14 541.82 663.89 553.35 655.25 558.25 C 646.61 563.15 638.00 567.01 628.00 568.00 Z"/>
</g>
<g fill="None" fill-opacity="0.0" stroke="#B47400" stroke-opacity="1.00" stroke-width="0.3"><path d="
M 251.00 581.00 
C 260.19 591.56 263.68 604.05 275.25 613.75 C 286.82 623.45 310.96 619.69 325.00 619.00
C 296.28 607.82 283.68 574.78 266.00 551.00
C 263.12 551.79 263.82 554.21 263.00 556.00
C 265.00 558.04 267.06 554.95 269.00 557.00
C 267.03 559.62 263.52 557.71 268.00 561.00
C 265.53 561.19 264.49 563.61 262.00 562.00
C 262.75 563.80 262.88 565.28 262.00 567.00
C 264.60 568.51 265.56 566.30 268.00 566.00
C 268.81 569.48 270.84 569.29 268.00 573.00
C 270.10 571.50 271.82 573.12 274.00 572.00
C 274.66 577.69 264.92 577.38 265.00 582.00
C 267.34 585.70 271.95 579.45 274.00 585.00
C 271.81 585.66 269.60 586.95 268.00 587.00
C 265.73 584.90 262.17 582.31 260.00 585.00
C 259.28 580.66 260.49 579.76 263.00 578.00
C 254.41 574.33 262.57 589.27 255.00 586.00
C 257.10 584.46 256.59 582.76 257.00 580.00
C 254.30 582.20 253.92 583.00 251.00 581.00 Z"/>
</g>
<g fill="None" fill-opacity="0.0" stroke="#EEC302" stroke-opacity="1.00" stroke-width="0.3"><path d="
M 373.00 556.00 
C 374.93 563.69 373.15 565.63 375.01 573.99 C 376.86 582.35 380.44 570.57 378.00 567.00 C 375.56 563.43 379.35 551.19 382.75 552.25 C 386.15 553.31 387.43 561.90 389.70 565.31 C 391.96 568.71 394.75 573.88 399.00 576.00
C 398.75 575.72 399.00 575.00 399.00 575.00
C 388.26 571.55 392.99 557.29 384.74 552.26 C 376.50 547.22 375.88 571.64 377.00 576.00
C 373.96 570.47 377.37 561.09 373.00 556.00 Z"/>
</g>
<g fill="None" fill-opacity="0.0" stroke="#EEC701" stroke-opacity="1.00" stroke-width="0.3"><path d="
M 409.00 576.00 
C 409.72 576.28 409.83 576.86 411.00 577.00
C 414.42 577.09 417.92 577.18 421.00 576.00
C 411.90 569.61 403.61 562.51 400.00 551.00
C 397.57 561.88 411.07 569.53 419.00 575.00
C 416.14 576.28 412.23 576.46 409.00 576.00 Z"/>
</g>
<g fill="None" fill-opacity="0.0" stroke="#C89803" stroke-opacity="1.00" stroke-width="0.3"><path d="
M 208.00 596.00 
C 208.00 588.93 207.27 580.99 208.00 574.00 C 208.73 567.02 206.06 558.67 208.00 552.00
C 205.20 558.12 207.82 566.92 207.00 574.00 C 206.18 581.08 207.38 589.59 208.00 596.00 Z"/>
</g>
<g fill="None" fill-opacity="0.0" stroke="#ECC001" stroke-opacity="1.00" stroke-width="0.3"><path d="
M 299.00 566.00 
C 297.71 572.81 294.70 582.17 300.02 577.02 C 305.35 571.88 302.20 562.23 308.97 561.03 C 315.75 559.83 313.61 577.71 314.00 581.00
C 315.85 576.09 315.89 557.96 307.70 560.70 C 299.50 563.43 302.17 574.19 297.00 579.00
C 297.61 575.16 299.22 569.96 299.00 566.00 Z"/>
</g>
<g fill="None" fill-opacity="0.0" stroke="#906803" stroke-opacity="1.00" stroke-width="0.3"><path d="
M 528.00 567.00 
C 531.14 568.80 538.43 566.22 542.00 567.00 C 545.57 567.78 551.65 567.80 551.00 565.00
C 544.48 567.96 534.59 564.05 528.00 567.00 Z"/>
</g>
<g fill="None" fill-opacity="0.0" stroke="#936803" stroke-opacity="1.00" stroke-width="0.3"><path d="
M 786.00 566.00 
C 780.16 565.38 773.09 567.27 768.00 565.00
C 766.98 567.88 783.34 567.81 786.00 566.00 Z"/>
</g>
<g fill="None" fill-opacity="0.0" stroke="#8E6401" stroke-opacity="1.00" stroke-width="0.3"><path d="
M 479.00 567.00 
C 484.62 570.23 497.57 565.41 503.00 566.00
C 495.16 566.64 486.09 564.70 479.00 567.00 Z"/>
</g>
<g fill="None" fill-opacity="0.0" stroke="#9C6C02" stroke-opacity="1.00" stroke-width="0.3"><path d="
M 590.00 566.00 
C 587.32 567.31 578.01 566.51 575.00 566.00
C 577.95 566.90 587.27 568.73 590.00 566.00 Z"/>
</g>
<g fill="None" fill-opacity="0.0" stroke="#886103" stroke-opacity="1.00" stroke-width="0.3"><path d="
M 837.00 567.00 
C 840.63 568.29 847.11 567.00 851.00 567.00
C 848.04 566.71 839.44 567.56 837.00 567.00 Z"/>
</g>
<g fill="None" fill-opacity="0.0" stroke="#D19B02" stroke-opacity="1.00" stroke-width="0.3"><path d="
M 399.00 575.00 
C 399.00 575.00 398.75 575.72 399.00 576.00
C 403.41 578.20 406.46 577.44 411.00 577.00
C 409.83 576.86 409.72 576.28 409.00 576.00
C 403.39 573.84 403.78 577.18 399.00 575.00 Z"/>
</g>
<g fill="None" fill-opacity="0.0" stroke="#F3CD02" stroke-opacity="1.00" stroke-width="0.3"><path d="
M 315.00 583.00 
C 317.90 588.85 321.33 588.23 327.00 590.00
C 326.08 588.83 316.42 584.33 315.00 583.00 Z"/>
</g>
<g fill="#000000" fill-opacity="1.00" stroke="None">
<path d="
M 0.00 1024.00 
L 1024.00 1024.00
L 1024.00 0.00
L 0.00 0.00
L 0.00 1024.00
M 321.00 277.00 
C 320.83 277.33 320.30 277.79 320.00 278.00
C 317.78 282.82 321.92 287.07 322.00 292.00
C 313.10 294.91 313.78 315.76 300.00 306.00
C 299.64 305.77 299.00 306.00 299.00 306.00
C 287.32 311.71 294.41 325.50 301.25 331.75 C 308.09 338.01 317.30 342.89 321.30 351.70 C 325.31 360.50 312.15 371.11 309.08 378.08 C 306.01 385.05 295.33 403.58 303.00 409.00
C 305.61 410.26 312.05 409.00 315.00 409.00
C 317.00 409.00 319.00 409.00 321.00 409.00
C 337.45 409.00 360.79 400.87 366.98 419.02 C 373.17 437.18 373.48 450.29 379.00 468.00
C 379.15 468.47 379.80 469.15 380.00 470.00
C 381.58 476.88 382.20 484.13 384.00 491.00
C 384.21 491.26 384.89 491.65 385.00 492.00
C 387.51 500.33 387.81 509.89 391.00 518.00
C 391.27 518.68 391.80 518.92 392.00 520.00
C 393.91 530.14 397.30 539.69 399.00 550.00
C 399.25 550.25 399.89 550.65 400.00 551.00
C 403.61 562.51 411.90 569.61 421.00 576.00
C 417.92 577.18 414.42 577.09 411.00 577.00
C 406.46 577.44 403.41 578.20 399.00 576.00
C 394.75 573.88 391.96 568.71 389.70 565.31 C 387.43 561.90 386.15 553.31 382.75 552.25 C 379.35 551.19 375.56 563.43 378.00 567.00 C 380.44 570.57 376.86 582.35 375.01 573.99 C 373.15 565.63 374.93 563.69 373.00 556.00
C 372.25 555.12 372.30 555.29 372.00 554.00
C 368.72 539.71 379.95 522.78 370.22 508.78 C 360.49 494.78 363.38 479.78 355.00 466.00
C 351.47 474.07 349.00 481.72 346.07 490.07 C 343.14 498.43 341.04 506.49 338.02 515.02 C 335.01 523.56 333.02 531.03 330.02 540.02 C 327.03 549.02 327.80 559.99 327.00 570.00 C 326.20 580.01 333.77 584.87 338.00 592.00
C 334.73 592.70 332.23 590.57 329.00 591.00
C 327.86 590.81 327.70 590.22 327.00 590.00
C 321.33 588.23 317.90 588.85 315.00 583.00
C 314.59 582.18 314.15 582.27 314.00 581.00
C 313.61 577.71 315.75 559.83 308.97 561.03 C 302.20 562.23 305.35 571.88 300.02 577.02 C 294.70 582.17 297.71 572.81 299.00 566.00
C 299.17 565.12 299.88 564.47 300.00 564.00
C 302.13 555.51 303.98 549.06 310.75 542.75 C 317.52 536.45 317.61 527.73 318.98 518.98 C 320.34 510.23 320.97 498.82 323.00 490.00
C 323.23 489.00 323.78 488.64 324.00 488.00
C 329.63 471.46 335.32 454.85 343.00 439.00
C 305.85 458.19 279.60 494.90 248.00 523.00
C 260.39 539.59 271.58 558.43 283.77 575.23 C 295.96 592.03 306.35 616.90 330.00 618.00
C 326.22 626.42 311.48 620.10 303.00 621.00 C 294.52 621.90 282.70 620.67 275.92 616.08 C 269.14 611.49 266.81 604.09 261.70 598.30 C 256.59 592.52 252.96 585.83 248.23 579.77 C 243.50 573.71 239.29 567.52 234.75 561.25 C 230.20 554.99 225.21 548.52 221.00 542.00
C 216.50 544.45 210.66 547.94 208.00 552.00
C 206.06 558.67 208.73 567.02 208.00 574.00 C 207.27 580.99 208.00 588.93 208.00 596.00
C 208.00 602.55 207.98 608.00 211.75 613.25 C 215.52 618.49 223.92 615.54 224.00 622.00
C 202.33 622.00 180.67 622.00 159.00 622.00
C 157.81 615.98 165.46 618.84 168.69 615.69 C 171.93 612.55 174.77 608.86 174.00 604.00
C 176.50 557.98 174.00 511.10 174.00 465.00
C 174.00 462.42 174.37 459.55 174.00 457.00
C 173.95 456.77 173.07 456.35 173.00 456.00
C 171.13 445.93 160.80 450.09 159.00 442.00
C 172.38 443.01 188.94 440.65 202.00 442.00 C 215.06 443.35 226.58 441.26 232.75 429.75 C 238.93 418.25 240.91 410.14 244.00 398.00
C 244.12 397.65 244.75 397.25 245.00 397.00
C 250.38 376.38 252.57 354.90 257.00 334.00
C 253.99 336.67 251.02 333.30 248.00 333.00
C 250.26 329.56 254.28 327.13 255.00 323.00
C 255.13 322.65 255.75 322.25 256.00 322.00
C 258.62 310.19 251.36 296.68 262.75 287.75 C 274.14 278.83 267.62 266.58 276.75 256.75 C 285.89 246.93 296.70 244.76 309.07 249.93 C 321.45 255.10 327.39 264.75 321.00 277.00
M 726.00 488.00 
C 756.00 490.49 768.07 528.53 751.70 551.70 C 735.33 574.87 697.55 572.60 686.23 545.77 C 674.91 518.95 695.71 485.48 726.00 488.00
M 448.00 504.00 
C 447.90 503.74 447.21 503.30 447.00 503.00
C 444.33 499.20 442.52 496.69 438.00 495.00
C 437.88 494.96 435.88 493.97 436.00 494.00
C 422.04 490.85 418.57 510.03 428.70 515.30 C 438.83 520.58 446.90 524.96 451.97 535.03 C 457.04 545.10 453.47 559.36 442.77 564.77 C 432.07 570.18 418.95 567.75 409.00 562.00
C 409.00 556.33 409.00 550.67 409.00 545.00
C 414.07 550.81 415.58 558.43 424.22 560.78 C 432.87 563.12 444.49 557.74 442.00 547.00
C 441.76 546.74 441.17 546.33 441.00 546.00
C 435.78 535.53 425.12 533.97 416.75 526.25 C 408.39 518.52 407.33 503.69 416.25 495.25 C 425.17 486.81 439.80 488.81 450.00 491.00
C 449.68 496.82 451.75 502.06 451.00 508.00
C 449.53 507.17 447.75 505.93 448.00 504.00
M 493.00 523.00 
C 494.21 522.92 495.40 520.70 496.00 520.00
C 501.12 511.31 507.82 498.31 505.00 489.00
C 510.50 489.65 517.33 487.69 522.00 490.00
C 512.14 497.80 509.20 511.47 502.69 522.70 C 496.19 533.92 494.22 556.13 503.00 566.00
C 497.57 565.41 484.62 570.23 479.00 567.00
C 476.93 565.81 481.08 563.55 482.00 562.00
C 482.19 561.68 482.67 561.17 483.00 561.00
C 484.81 552.87 482.25 543.32 483.00 535.00
C 481.06 529.84 477.67 523.59 475.23 518.77 C 472.79 513.95 469.12 506.26 467.08 501.92 C 465.03 497.59 458.26 488.82 459.00 489.00
C 461.72 488.13 467.12 488.67 470.00 489.00 C 472.88 489.33 479.57 487.54 482.00 489.00
C 484.06 490.24 481.40 492.39 480.00 493.00
C 481.93 503.79 489.72 512.63 493.00 523.00
M 551.00 490.00 
C 562.17 489.69 575.15 492.84 579.77 504.23 C 584.39 515.62 575.60 526.91 565.00 530.00
C 572.76 541.65 579.70 558.56 590.00 566.00
C 587.27 568.73 577.95 566.90 575.00 566.00
C 559.91 561.42 561.35 536.87 546.00 533.00
C 550.17 542.81 542.14 557.47 551.00 565.00
C 551.65 567.80 545.57 567.78 542.00 567.00 C 538.43 566.22 531.14 568.80 528.00 567.00
C 528.12 567.07 533.36 556.11 532.00 551.00 C 530.64 545.89 532.22 533.88 532.00 528.00 C 531.78 522.12 531.23 510.46 532.00 505.00 C 532.77 499.54 528.29 488.94 529.00 489.00
C 534.97 486.88 545.58 489.48 551.00 490.00
M 671.00 536.00 
C 670.80 537.21 670.26 537.23 670.00 538.00
C 664.03 555.55 648.64 570.54 628.00 568.00
C 626.74 567.84 626.78 567.24 626.00 567.00
C 605.42 560.59 591.62 543.21 596.78 520.78 C 601.94 498.35 619.16 486.33 642.00 489.00 C 664.84 491.67 674.41 515.51 671.00 536.00
M 792.00 490.00 
C 796.46 492.07 796.40 501.41 799.31 505.69 C 802.21 509.98 803.68 517.72 806.31 522.69 C 808.93 527.67 810.46 534.84 813.00 540.00
C 813.13 540.27 813.87 540.65 814.00 541.00
C 818.51 539.31 818.21 528.43 821.31 524.31 C 824.40 520.19 825.39 512.04 827.98 506.98 C 830.56 501.91 833.32 494.59 835.00 489.00
C 842.00 489.00 849.00 489.00 856.00 489.00
C 847.65 498.62 852.51 515.11 853.00 528.00 C 853.49 540.89 852.37 557.28 860.00 567.00
C 857.00 567.00 854.00 567.00 851.00 567.00
C 847.11 567.00 840.63 568.29 837.00 567.00
C 835.91 566.61 834.60 566.90 835.00 565.00
C 843.36 559.93 837.20 549.00 838.00 540.00 C 838.80 531.00 837.22 519.10 837.00 510.00
C 837.00 509.50 837.00 509.00 837.00 509.00
C 825.21 525.85 821.46 549.13 811.00 567.00
C 804.34 561.59 802.61 550.11 799.00 542.00
C 798.74 541.75 798.17 541.33 798.00 541.00
C 795.40 536.02 794.25 529.44 791.22 524.78 C 788.19 520.11 788.24 511.75 784.00 508.00
C 783.70 508.21 783.22 508.70 783.00 509.00
C 782.44 512.86 783.11 517.10 783.00 521.00
C 782.94 523.12 782.16 525.57 782.00 527.00
C 781.51 531.27 782.25 535.71 782.00 540.00
C 781.91 541.58 781.17 543.03 781.00 544.00
C 779.76 551.09 779.39 562.25 786.00 566.00
C 783.34 567.81 766.98 567.88 768.00 565.00
C 769.57 560.59 774.26 562.63 773.00 555.00 C 771.74 547.37 773.82 549.30 774.00 540.00 C 774.18 530.70 774.45 519.50 775.00 510.00
C 775.09 508.42 775.83 506.97 776.00 506.00
C 776.62 502.44 775.48 498.58 776.00 495.00
C 774.20 494.10 771.94 490.39 771.00 489.00
C 777.83 489.66 785.99 487.67 792.00 490.00
M 908.00 492.00 
C 908.26 491.76 908.88 490.90 909.00 491.00
C 912.24 493.63 911.09 504.81 910.00 508.00
C 909.14 495.98 886.00 487.42 883.08 502.08 C 880.15 516.73 898.80 518.55 906.75 527.25 C 914.70 535.95 918.06 552.83 906.75 561.75 C 895.44 570.68 880.89 568.51 869.00 562.00
C 869.71 556.39 867.90 551.47 868.00 546.00
C 874.35 552.91 885.24 569.04 897.22 559.22 C 909.21 549.41 896.22 536.12 885.25 531.75 C 874.29 527.37 866.17 511.43 872.92 499.92 C 879.68 488.42 896.57 485.63 908.00 492.00 Z"/>
</g>
<g fill="#EAD302" fill-opacity="1.00" stroke="None">
<path d="
M 256.00 322.00 
C 261.95 316.17 253.40 304.94 256.93 297.93 C 260.45 290.92 265.66 287.94 268.77 280.77 C 271.88 273.60 271.71 265.67 276.77 258.77 C 281.83 251.88 286.54 248.73 296.00 249.00 C 305.46 249.27 308.91 251.44 317.25 256.75 C 325.59 262.07 319.52 271.04 321.00 277.00
C 327.39 264.75 321.45 255.10 309.07 249.93 C 296.70 244.76 285.89 246.93 276.75 256.75 C 267.62 266.58 274.14 278.83 262.75 287.75 C 251.36 296.68 258.62 310.19 256.00 322.00 Z"/>
</g>
<g fill="#CE9901" fill-opacity="1.00" stroke="None">
<path d="
M 256.00 322.00 
C 255.75 322.25 255.13 322.65 255.00 323.00
C 255.94 326.61 252.35 329.30 251.00 333.00
C 253.49 334.53 255.63 332.39 258.00 334.00
C 254.55 355.12 251.72 377.12 245.00 397.00
C 244.75 397.25 244.12 397.65 244.00 398.00
C 246.43 405.06 239.66 416.04 237.23 423.23 C 234.80 430.42 228.37 438.23 222.00 442.00
C 235.55 449.06 240.91 431.40 246.31 421.31 C 251.70 411.21 256.33 397.51 260.32 386.32 C 264.32 375.13 267.10 358.70 271.00 350.00
C 271.73 349.73 272.27 349.29 273.00 349.00
C 275.10 348.17 276.85 355.71 277.98 359.02 C 279.10 362.34 280.87 370.74 280.00 375.00
C 277.34 373.04 280.72 367.89 278.00 366.00
C 278.19 369.58 278.24 373.43 278.00 377.00
C 278.79 387.32 274.39 400.05 268.00 409.00
C 268.76 412.74 275.39 406.82 278.00 411.00
C 276.74 413.18 279.01 414.69 279.00 417.00
C 281.71 412.73 285.69 418.09 284.00 412.00
C 286.57 415.18 288.96 411.08 291.00 414.00
C 291.27 409.24 284.45 408.97 285.00 405.00
C 282.68 405.53 282.80 410.27 280.00 408.00
C 282.96 404.42 284.18 399.01 289.00 399.00
C 288.94 402.96 285.86 408.49 292.00 407.00
C 290.99 404.19 290.96 400.57 291.00 397.00
C 292.78 398.47 295.07 395.96 297.00 398.00
C 295.42 400.33 293.26 398.60 292.00 401.00
C 293.72 403.27 292.73 406.34 293.00 409.00
C 296.55 406.48 294.58 410.07 296.00 412.00
C 297.41 411.84 299.34 411.35 300.00 410.00
C 302.69 404.42 299.18 392.76 303.31 387.31 C 307.43 381.85 308.02 375.36 312.75 370.75 C 317.48 366.15 321.93 357.31 320.00 351.00 C 318.07 344.69 311.31 342.29 306.75 338.25 C 302.19 334.20 296.88 328.36 292.00 326.00
C 293.15 322.95 291.19 315.55 292.33 312.33 C 293.47 309.11 297.55 302.74 299.00 306.00
C 299.00 306.00 299.64 305.77 300.00 306.00
C 302.25 304.36 311.73 309.34 312.32 302.32 C 312.91 295.30 317.11 294.67 321.00 291.00
C 319.61 287.03 315.67 281.46 320.00 278.00
C 320.30 277.79 320.83 277.33 321.00 277.00
C 319.52 271.04 325.59 262.07 317.25 256.75 C 308.91 251.44 305.46 249.27 296.00 249.00 C 286.54 248.73 281.83 251.88 276.77 258.77 C 271.71 265.67 271.88 273.60 268.77 280.77 C 265.66 287.94 260.45 290.92 256.93 297.93 C 253.40 304.94 261.95 316.17 256.00 322.00 Z"/>
</g>
<g fill="#ECD502" fill-opacity="1.00" stroke="None">
<path d="
M 300.00 306.00 
C 313.78 315.76 313.10 294.91 322.00 292.00
C 321.92 287.07 317.78 282.82 320.00 278.00
C 315.67 281.46 319.61 287.03 321.00 291.00
C 317.11 294.67 312.91 295.30 312.32 302.32 C 311.73 309.34 302.25 304.36 300.00 306.00 Z"/>
</g>
<g fill="#F1D902" fill-opacity="1.00" stroke="None">
<path d="
M 300.00 410.00 
C 306.10 409.63 313.47 412.36 320.00 411.00
C 319.17 409.25 316.56 410.34 315.00 410.00
C 311.22 409.77 305.92 411.06 303.00 409.00
C 295.33 403.58 306.01 385.05 309.08 378.08 C 312.15 371.11 325.31 360.50 321.30 351.70 C 317.30 342.89 308.09 338.01 301.25 331.75 C 294.41 325.50 287.32 311.71 299.00 306.00
C 297.55 302.74 293.47 309.11 292.33 312.33 C 291.19 315.55 293.15 322.95 292.00 326.00
C 296.88 328.36 302.19 334.20 306.75 338.25 C 311.31 342.29 318.07 344.69 320.00 351.00 C 321.93 357.31 317.48 366.15 312.75 370.75 C 308.02 375.36 307.43 381.85 303.31 387.31 C 299.18 392.76 302.69 404.42 300.00 410.00 Z"/>
</g>
<g fill="#EDD402" fill-opacity="1.00" stroke="None">
<path d="
M 245.00 397.00 
C 251.72 377.12 254.55 355.12 258.00 334.00
C 255.63 332.39 253.49 334.53 251.00 333.00
C 252.35 329.30 255.94 326.61 255.00 323.00
C 254.28 327.13 250.26 329.56 248.00 333.00
C 251.02 333.30 253.99 336.67 257.00 334.00
C 252.57 354.90 250.38 376.38 245.00 397.00 Z"/>
</g>
<g fill="#F5DE02" fill-opacity="1.00" stroke="None">
<path d="
M 273.00 349.00 
C 276.01 350.52 277.83 362.86 278.00 366.00
C 280.72 367.89 277.34 373.04 280.00 375.00
C 280.87 370.74 279.10 362.34 277.98 359.02 C 276.85 355.71 275.10 348.17 273.00 349.00 Z"/>
</g>
<g fill="#F4D902" fill-opacity="1.00" stroke="None">
<path d="
M 244.00 398.00 
C 240.91 410.14 238.93 418.25 232.75 429.75 C 226.58 441.26 215.06 443.35 202.00 442.00 C 188.94 440.65 172.38 443.01 159.00 442.00
C 160.80 450.09 171.13 445.93 173.00 456.00
C 173.06 456.24 173.95 456.65 174.00 457.00
C 174.37 459.55 174.00 462.42 174.00 465.00
C 178.35 509.90 172.82 557.30 175.00 603.00
C 176.91 585.30 175.90 564.32 176.00 546.00 C 176.10 527.68 176.19 505.69 176.00 488.00 C 175.81 470.31 180.34 449.61 161.00 444.00
C 180.34 442.33 202.35 442.34 222.00 444.00
C 202.56 447.52 205.95 467.03 206.00 484.00 C 206.05 500.97 205.96 522.61 206.00 540.00
C 209.00 515.73 205.00 488.19 208.00 464.00
C 208.00 445.96 219.64 448.36 232.22 444.22 C 244.80 440.08 242.41 426.00 249.31 417.31 C 256.20 408.61 256.55 395.78 261.93 385.93 C 267.30 376.08 265.78 359.80 271.00 350.00
C 267.10 358.70 264.32 375.13 260.32 386.32 C 256.33 397.51 251.70 411.21 246.31 421.31 C 240.91 431.40 235.55 449.06 222.00 442.00
C 228.37 438.23 234.80 430.42 237.23 423.23 C 239.66 416.04 246.43 405.06 244.00 398.00 Z"/>
</g>
<g fill="#000000" fill-opacity="1.00" stroke="None">
<path d="
M 271.00 350.00 
C 265.78 359.80 267.30 376.08 261.93 385.93 C 256.55 395.78 256.20 408.61 249.31 417.31 C 242.41 426.00 244.80 440.08 232.22 444.22 C 219.64 448.36 208.00 445.96 208.00 464.00
C 208.00 470.19 207.79 476.86 208.00 483.00 C 208.21 489.14 207.45 496.03 208.00 502.00 C 208.55 507.97 206.74 515.46 208.00 521.00 C 209.26 526.54 205.18 535.40 208.00 540.00
C 218.82 533.54 228.32 525.28 238.00 517.00
C 243.59 511.42 249.46 505.54 255.00 500.00
C 267.28 485.63 281.70 472.65 293.00 458.00
C 292.63 457.53 290.46 456.12 290.00 456.00
C 272.58 458.20 246.99 443.09 255.93 423.93 C 264.86 404.76 276.52 398.70 278.00 377.00
C 278.24 373.43 278.19 369.58 278.00 366.00
C 277.83 362.86 276.01 350.52 273.00 349.00
C 272.27 349.29 271.73 349.73 271.00 350.00 Z"/>
</g>
<g fill="#F1DA02" fill-opacity="1.00" stroke="None">
<path d="
M 290.00 456.00 
C 290.98 455.88 292.01 456.10 293.00 456.00
C 282.32 452.89 265.43 454.31 258.25 442.75 C 251.06 431.20 259.37 416.64 268.00 409.00
C 274.39 400.05 278.79 387.32 278.00 377.00
C 276.52 398.70 264.86 404.76 255.93 423.93 C 246.99 443.09 272.58 458.20 290.00 456.00 Z"/>
</g>
<g fill="#C58A00" fill-opacity="1.00" stroke="None">
<path d="
M 268.00 409.00 
C 259.37 416.64 251.06 431.20 258.25 442.75 C 265.43 454.31 282.32 452.89 293.00 456.00
C 292.01 456.10 290.98 455.88 290.00 456.00
C 290.46 456.12 292.63 457.53 293.00 458.00
C 294.59 460.02 286.65 467.85 283.75 470.75 C 280.85 473.66 275.82 479.70 272.25 483.25 C 268.68 486.80 263.33 492.07 260.23 496.23 C 257.13 500.39 251.68 504.34 248.25 508.25 C 244.82 512.16 239.03 517.15 235.75 520.75 C 232.47 524.35 225.10 528.91 222.30 531.30 C 219.50 533.69 209.34 542.18 208.00 540.00
C 205.18 535.40 209.26 526.54 208.00 521.00 C 206.74 515.46 208.55 507.97 208.00 502.00 C 207.45 496.03 208.21 489.14 208.00 483.00 C 207.79 476.86 208.00 470.19 208.00 464.00
C 205.00 488.19 209.00 515.73 206.00 540.00
C 205.96 522.61 206.05 500.97 206.00 484.00 C 205.95 467.03 202.56 447.52 222.00 444.00
C 202.35 442.34 180.34 442.33 161.00 444.00
C 180.34 449.61 175.81 470.31 176.00 488.00 C 176.19 505.69 176.10 527.68 176.00 546.00 C 175.90 564.32 176.91 585.30 175.00 603.00
C 172.82 557.30 178.35 509.90 174.00 465.00
C 174.00 511.10 176.50 557.98 174.00 604.00
C 174.57 611.46 171.03 619.86 161.00 619.00
C 168.35 621.96 179.26 619.78 189.00 620.00 C 198.75 620.22 212.80 620.66 222.00 619.00
C 210.41 618.49 206.73 609.82 206.01 598.99 C 205.29 588.17 207.42 574.23 206.00 563.00 C 204.58 551.77 210.69 544.58 221.00 541.00
C 231.67 553.93 240.41 568.38 251.00 581.00
C 253.92 583.00 254.30 582.20 257.00 580.00
C 256.59 582.76 257.10 584.46 255.00 586.00
C 262.57 589.27 254.41 574.33 263.00 578.00
C 260.49 579.76 259.28 580.66 260.00 585.00
C 262.17 582.31 265.73 584.90 268.00 587.00
C 269.60 586.95 271.81 585.66 274.00 585.00
C 271.95 579.45 267.34 585.70 265.00 582.00
C 264.92 577.38 274.66 577.69 274.00 572.00
C 271.82 573.12 270.10 571.50 268.00 573.00
C 270.84 569.29 268.81 569.48 268.00 566.00
C 265.56 566.30 264.60 568.51 262.00 567.00
C 262.88 565.28 262.75 563.80 262.00 562.00
C 264.49 563.61 265.53 561.19 268.00 561.00
C 263.52 557.71 267.03 559.62 269.00 557.00
C 267.06 554.95 265.00 558.04 263.00 556.00
C 263.82 554.21 263.12 551.79 266.00 551.00
C 260.18 543.17 256.59 536.56 250.23 528.77 C 243.87 520.98 255.87 514.02 261.75 507.75 C 267.63 501.49 274.45 494.93 280.75 488.75 C 287.05 482.58 293.64 475.19 300.25 469.25 C 306.86 463.31 312.23 455.03 320.25 451.25 C 328.27 447.46 337.20 439.95 345.00 439.00
C 340.90 446.88 337.39 454.86 334.00 463.00
C 333.10 466.77 333.54 471.12 331.00 475.00
C 335.26 473.52 340.25 480.30 346.00 479.00
C 342.78 476.56 337.19 472.12 344.00 470.00
C 341.77 477.39 347.65 470.28 350.00 474.00
C 351.56 470.22 353.38 463.92 358.00 464.00
C 359.82 483.13 370.01 502.61 376.00 521.00
C 376.62 517.00 378.75 517.02 382.00 515.00
C 383.32 519.16 378.83 517.35 379.00 520.00
C 383.83 519.81 384.72 521.82 383.00 526.00
C 385.27 527.92 387.56 523.49 389.00 527.00
C 390.55 525.80 388.04 523.62 391.00 524.00
C 390.82 522.42 391.98 520.75 392.00 520.00
C 391.80 518.92 391.27 518.68 391.00 518.00
C 388.14 515.75 383.30 496.94 385.00 492.00
C 384.89 491.65 384.21 491.26 384.00 491.00
C 380.29 486.28 379.46 475.13 380.00 470.00
C 379.80 469.15 379.15 468.47 379.00 468.00
C 373.20 463.45 375.88 445.16 371.07 437.93 C 366.27 430.69 370.35 411.98 359.77 409.23 C 349.19 406.48 331.46 410.02 321.00 409.00
C 319.00 409.00 317.00 409.00 315.00 409.00
C 314.90 409.02 315.00 410.00 315.00 410.00
C 316.56 410.34 319.17 409.25 320.00 411.00
C 313.47 412.36 306.10 409.63 300.00 410.00
C 299.34 411.35 297.41 411.84 296.00 412.00
C 294.58 410.07 296.55 406.48 293.00 409.00
C 292.73 406.34 293.72 403.27 292.00 401.00
C 293.26 398.60 295.42 400.33 297.00 398.00
C 295.07 395.96 292.78 398.47 291.00 397.00
C 290.96 400.57 290.99 404.19 292.00 407.00
C 285.86 408.49 288.94 402.96 289.00 399.00
C 284.18 399.01 282.96 404.42 280.00 408.00
C 282.80 410.27 282.68 405.53 285.00 405.00
C 284.45 408.97 291.27 409.24 291.00 414.00
C 288.96 411.08 286.57 415.18 284.00 412.00
C 285.69 418.09 281.71 412.73 279.00 417.00
C 279.01 414.69 276.74 413.18 278.00 411.00
C 275.39 406.82 268.76 412.74 268.00 409.00 Z"/>
</g>
<g fill="#ECCB01" fill-opacity="1.00" stroke="None">
<path d="
M 321.00 409.00 
C 331.46 410.02 349.19 406.48 359.77 409.23 C 370.35 411.98 366.27 430.69 371.07 437.93 C 375.88 445.16 373.20 463.45 379.00 468.00
C 373.48 450.29 373.17 437.18 366.98 419.02 C 360.79 400.87 337.45 409.00 321.00 409.00 Z"/>
</g>
<g fill="#5A3D00" fill-opacity="1.00" stroke="None">
<path d="
M 315.00 410.00 
C 315.00 410.00 314.90 409.02 315.00 409.00
C 312.05 409.00 305.61 410.26 303.00 409.00
C 305.92 411.06 311.22 409.77 315.00 410.00 Z"/>
</g>
<g fill="#EECB02" fill-opacity="1.00" stroke="None">
<path d="
M 266.00 551.00 
C 283.68 574.78 296.28 607.82 325.00 619.00
C 310.96 619.69 286.82 623.45 275.25 613.75 C 263.68 604.05 260.19 591.56 251.00 581.00
C 240.41 568.38 231.67 553.93 221.00 541.00
C 210.69 544.58 204.58 551.77 206.00 563.00 C 207.42 574.23 205.29 588.17 206.01 598.99 C 206.73 609.82 210.41 618.49 222.00 619.00
C 212.80 620.66 198.75 620.22 189.00 620.00 C 179.26 619.78 168.35 621.96 161.00 619.00
C 171.03 619.86 174.57 611.46 174.00 604.00
C 174.77 608.86 171.93 612.55 168.69 615.69 C 165.46 618.84 157.81 615.98 159.00 622.00
C 180.67 622.00 202.33 622.00 224.00 622.00
C 223.92 615.54 215.52 618.49 211.75 613.25 C 207.98 608.00 208.00 602.55 208.00 596.00
C 207.38 589.59 206.18 581.08 207.00 574.00 C 207.82 566.92 205.20 558.12 208.00 552.00
C 210.66 547.94 216.50 544.45 221.00 542.00
C 225.21 548.52 230.20 554.99 234.75 561.25 C 239.29 567.52 243.50 573.71 248.23 579.77 C 252.96 585.83 256.59 592.52 261.70 598.30 C 266.81 604.09 269.14 611.49 275.92 616.08 C 282.70 620.67 294.52 621.90 303.00 621.00 C 311.48 620.10 326.22 626.42 330.00 618.00
C 306.35 616.90 295.96 592.03 283.77 575.23 C 271.58 558.43 260.39 539.59 248.00 523.00
C 279.60 494.90 305.85 458.19 343.00 439.00
C 335.32 454.85 329.63 471.46 324.00 488.00
C 327.61 485.17 331.56 469.44 334.00 463.00
C 337.39 454.86 340.90 446.88 345.00 439.00
C 337.20 439.95 328.27 447.46 320.25 451.25 C 312.23 455.03 306.86 463.31 300.25 469.25 C 293.64 475.19 287.05 482.58 280.75 488.75 C 274.45 494.93 267.63 501.49 261.75 507.75 C 255.87 514.02 243.87 520.98 250.23 528.77 C 256.59 536.56 260.18 543.17 266.00 551.00 Z"/>
</g>
<g fill="#826300" fill-opacity="1.00" stroke="None">
<path d="
M 174.00 457.00 
C 173.95 456.65 173.06 456.24 173.00 456.00
C 173.07 456.35 173.95 456.77 174.00 457.00 Z"/>
</g>
<g fill="#EED802" fill-opacity="1.00" stroke="None">
<path d="
M 255.00 500.00 
C 249.86 506.01 243.96 511.91 238.00 517.00
C 228.32 525.28 218.82 533.54 208.00 540.00
C 209.34 542.18 219.50 533.69 222.30 531.30 C 225.10 528.91 232.47 524.35 235.75 520.75 C 239.03 517.15 244.82 512.16 248.25 508.25 C 251.68 504.34 257.13 500.39 260.23 496.23 C 263.33 492.07 268.68 486.80 272.25 483.25 C 275.82 479.70 280.85 473.66 283.75 470.75 C 286.65 467.85 294.59 460.02 293.00 458.00
C 281.70 472.65 267.28 485.63 255.00 500.00 Z"/>
</g>
<g fill="#B77800" fill-opacity="1.00" stroke="None">
<path d="
M 324.00 488.00 
C 323.78 488.64 323.23 489.00 323.00 490.00
C 323.75 497.17 321.65 510.45 320.07 518.07 C 318.49 525.69 319.37 539.12 311.75 543.75 C 304.13 548.38 303.61 561.17 300.00 564.00
C 299.88 564.47 299.17 565.12 299.00 566.00
C 299.22 569.96 297.61 575.16 297.00 579.00
C 302.17 574.19 299.50 563.43 307.70 560.70 C 315.89 557.96 315.85 576.09 314.00 581.00
C 314.15 582.27 314.59 582.18 315.00 583.00
C 316.42 584.33 326.08 588.83 327.00 590.00
C 327.70 590.22 327.86 590.81 329.00 591.00
C 331.23 590.70 334.36 589.19 337.00 591.00
C 319.30 577.30 325.17 549.70 330.99 530.99 C 336.81 512.29 344.18 492.81 350.00 474.00
C 347.65 470.28 341.77 477.39 344.00 470.00
C 337.19 472.12 342.78 476.56 346.00 479.00
C 340.25 480.30 335.26 473.52 331.00 475.00
C 333.54 471.12 333.10 466.77 334.00 463.00
C 331.56 469.44 327.61 485.17 324.00 488.00 Z"/>
</g>
<g fill="#E9C101" fill-opacity="1.00" stroke="None">
<path d="
M 350.00 474.00 
C 344.18 492.81 336.81 512.29 330.99 530.99 C 325.17 549.70 319.30 577.30 337.00 591.00
C 334.36 589.19 331.23 590.70 329.00 591.00
C 332.23 590.57 334.73 592.70 338.00 592.00
C 333.77 584.87 326.20 580.01 327.00 570.00 C 327.80 559.99 327.03 549.02 330.02 540.02 C 333.02 531.03 335.01 523.56 338.02 515.02 C 341.04 506.49 343.14 498.43 346.07 490.07 C 349.00 481.72 351.47 474.07 355.00 466.00
C 363.38 479.78 360.49 494.78 370.22 508.78 C 379.95 522.78 368.72 539.71 372.00 554.00
C 373.27 544.40 378.88 531.46 376.00 521.00
C 370.01 502.61 359.82 483.13 358.00 464.00
C 353.38 463.92 351.56 470.22 350.00 474.00 Z"/>
</g>
<g fill="#EFC601" fill-opacity="1.00" stroke="None">
<path d="
M 384.00 491.00 
C 382.20 484.13 381.58 476.88 380.00 470.00
C 379.46 475.13 380.29 486.28 384.00 491.00 Z"/>
</g>
<g fill="#E6BF01" fill-opacity="1.00" stroke="None">
<path d="
M 726.00 488.00 
C 695.71 485.48 674.91 518.95 686.23 545.77 C 697.55 572.60 735.33 574.87 751.70 551.70 C 768.07 528.53 756.00 490.49 726.00 488.00
M 730.00 490.00 
C 757.76 494.51 766.02 533.12 749.23 553.23 C 732.44 573.34 695.04 570.35 686.23 542.77 C 677.42 515.19 699.53 485.05 730.00 490.00 Z"/>
</g>
<g fill="#E9BF01" fill-opacity="1.00" stroke="None">
<path d="
M 441.00 546.00 
C 443.37 536.88 426.32 533.17 419.77 527.23 C 413.22 521.29 407.23 505.72 416.25 497.25 C 425.27 488.78 437.90 488.08 449.00 493.00
C 447.31 496.26 452.12 505.10 448.00 504.00
C 447.75 505.93 449.53 507.17 451.00 508.00
C 451.75 502.06 449.68 496.82 450.00 491.00
C 439.80 488.81 425.17 486.81 416.25 495.25 C 407.33 503.69 408.39 518.52 416.75 526.25 C 425.12 533.97 435.78 535.53 441.00 546.00 Z"/>
</g>
<g fill="#EFC502" fill-opacity="1.00" stroke="None">
<path d="
M 483.00 535.00 
C 483.06 535.16 484.00 535.00 484.00 535.00
C 481.97 527.82 476.82 517.30 472.75 511.25 C 468.67 505.21 467.13 491.00 459.00 489.00
C 458.26 488.82 465.03 497.59 467.08 501.92 C 469.12 506.26 472.79 513.95 475.23 518.77 C 477.67 523.59 481.06 529.84 483.00 535.00 Z"/>
</g>
<g fill="#B27400" fill-opacity="1.00" stroke="None">
<path d="
M 484.00 535.00 
C 485.04 538.68 485.06 544.40 484.40 547.75 C 483.74 551.10 487.65 558.69 483.00 561.00
C 482.67 561.17 482.19 561.68 482.00 562.00
C 481.98 562.13 483.57 564.29 482.00 565.00
C 487.67 565.00 493.33 565.00 499.00 565.00
C 496.17 551.97 493.64 535.68 500.26 524.26 C 506.88 512.84 510.73 502.43 517.00 491.00
C 513.67 491.00 510.33 491.00 507.00 491.00
C 508.67 501.07 501.14 511.74 496.00 520.00
C 495.40 520.70 494.21 522.92 493.00 523.00
C 489.80 523.21 488.81 514.60 486.70 512.31 C 484.58 510.01 483.13 503.96 481.08 500.92 C 479.02 497.89 477.97 491.18 482.00 489.00
C 479.57 487.54 472.88 489.33 470.00 489.00 C 467.12 488.67 461.72 488.13 459.00 489.00
C 467.13 491.00 468.67 505.21 472.75 511.25 C 476.82 517.30 481.97 527.82 484.00 535.00 Z"/>
</g>
<g fill="#ECC101" fill-opacity="1.00" stroke="None">
<path d="
M 493.00 523.00 
C 489.72 512.63 481.93 503.79 480.00 493.00
C 481.40 492.39 484.06 490.24 482.00 489.00
C 477.97 491.18 479.02 497.89 481.08 500.92 C 483.13 503.96 484.58 510.01 486.70 512.31 C 488.81 514.60 489.80 523.21 493.00 523.00 Z"/>
</g>
<g fill="#E5B801" fill-opacity="1.00" stroke="None">
<path d="
M 496.00 520.00 
C 501.14 511.74 508.67 501.07 507.00 491.00
C 510.33 491.00 513.67 491.00 517.00 491.00
C 510.73 502.43 506.88 512.84 500.26 524.26 C 493.64 535.68 496.17 551.97 499.00 565.00
C 493.33 565.00 487.67 565.00 482.00 565.00
C 483.57 564.29 481.98 562.13 482.00 562.00
C 481.08 563.55 476.93 565.81 479.00 567.00
C 486.09 564.70 495.16 566.64 503.00 566.00
C 494.22 556.13 496.19 533.92 502.69 522.70 C 509.20 511.47 512.14 497.80 522.00 490.00
C 517.33 487.69 510.50 489.65 505.00 489.00
C 507.82 498.31 501.12 511.31 496.00 520.00 Z"/>
</g>
<g fill="#EFC901" fill-opacity="1.00" stroke="None">
<path d="
M 528.00 567.00 
C 534.59 564.05 544.48 567.96 551.00 565.00
C 542.14 557.47 550.17 542.81 546.00 533.00
C 561.35 536.87 559.91 561.42 575.00 566.00
C 578.01 566.51 587.32 567.31 590.00 566.00
C 579.70 558.56 572.76 541.65 565.00 530.00
C 575.60 526.91 584.39 515.62 579.77 504.23 C 575.15 492.84 562.17 489.69 551.00 490.00
C 548.88 490.06 546.43 490.84 545.00 491.00
C 556.97 491.00 572.00 490.79 577.92 503.08 C 583.84 515.37 573.11 526.42 563.00 531.00
C 572.51 541.02 576.07 555.06 586.00 565.00
C 573.53 569.62 567.58 558.78 563.08 550.92 C 558.58 543.06 554.67 531.14 545.00 533.00
C 548.23 543.09 543.17 555.41 548.00 565.00
C 542.00 565.00 536.00 565.00 530.00 565.00
C 534.51 560.17 532.66 554.35 533.00 548.00 C 533.34 541.65 532.57 533.39 533.00 527.00 C 533.43 520.61 532.16 513.10 533.00 507.00 C 533.84 500.90 531.02 493.46 532.00 491.00
C 531.54 490.88 529.37 489.03 529.00 489.00
C 528.29 488.94 532.77 499.54 532.00 505.00 C 531.23 510.46 531.78 522.12 532.00 528.00 C 532.22 533.88 530.64 545.89 532.00 551.00 C 533.36 556.11 528.12 567.07 528.00 567.00 Z"/>
</g>
<g fill="#C28D02" fill-opacity="1.00" stroke="None">
<path d="
M 532.00 491.00 
C 535.77 491.96 541.09 491.00 545.00 491.00
C 546.43 490.84 548.88 490.06 551.00 490.00
C 545.58 489.48 534.97 486.88 529.00 489.00
C 529.37 489.03 531.54 490.88 532.00 491.00 Z"/>
</g>
<g fill="#EDC501" fill-opacity="1.00" stroke="None">
<path d="
M 626.00 567.00 
C 621.12 561.62 605.58 560.16 601.25 548.75 C 596.91 537.35 595.09 522.38 601.31 511.31 C 607.52 500.23 613.44 493.95 626.02 491.02 C 638.61 488.10 651.13 490.81 660.75 500.25 C 670.38 509.69 669.78 523.70 671.00 536.00
C 674.41 515.51 664.84 491.67 642.00 489.00 C 619.16 486.33 601.94 498.35 596.78 520.78 C 591.62 543.21 605.42 560.59 626.00 567.00 Z"/>
</g>
<g fill="#CB9501" fill-opacity="1.00" stroke="None">
<path d="
M 776.00 495.00 
C 776.05 494.65 776.65 494.06 777.00 494.00
C 781.40 493.21 777.51 493.93 779.00 491.00
C 782.89 491.93 786.68 490.57 791.00 491.00
C 791.23 490.95 792.00 490.00 792.00 490.00
C 785.99 487.67 777.83 489.66 771.00 489.00
C 771.94 490.39 774.20 494.10 776.00 495.00 Z"/>
</g>
<g fill="#E2B401" fill-opacity="1.00" stroke="None">
<path d="
M 814.00 541.00 
C 815.00 543.74 819.61 533.42 820.92 528.92 C 822.24 524.43 825.67 517.88 827.32 512.32 C 828.98 506.76 832.51 502.68 833.98 495.98 C 835.44 489.27 846.70 490.79 853.00 491.00
C 847.38 502.02 851.14 514.73 851.99 527.01 C 852.85 539.29 850.52 554.54 857.00 565.00
C 851.00 565.00 845.00 565.00 839.00 565.00
C 842.27 547.06 837.30 526.40 839.00 508.00
C 837.74 508.08 838.44 510.06 837.00 510.00
C 837.22 519.10 838.80 531.00 838.00 540.00 C 837.20 549.00 843.36 559.93 835.00 565.00
C 834.60 566.90 835.91 566.61 837.00 567.00
C 839.44 567.56 848.04 566.71 851.00 567.00
C 854.00 567.00 857.00 567.00 860.00 567.00
C 852.37 557.28 853.49 540.89 853.00 528.00 C 852.51 515.11 847.65 498.62 856.00 489.00
C 849.00 489.00 842.00 489.00 835.00 489.00
C 833.32 494.59 830.56 501.91 827.98 506.98 C 825.39 512.04 824.40 520.19 821.31 524.31 C 818.21 528.43 818.51 539.31 814.00 541.00 Z"/>
</g>
<g fill="#E9BE01" fill-opacity="1.00" stroke="None">
<path d="
M 909.00 491.00 
C 910.17 494.63 908.13 499.28 909.00 503.00
C 905.51 491.41 883.55 488.95 881.68 502.68 C 879.80 516.41 895.43 518.88 904.25 526.75 C 913.07 534.62 917.12 550.62 906.75 559.75 C 896.38 568.88 881.23 567.56 870.00 561.00
C 870.00 557.00 870.00 553.00 870.00 549.00
C 874.35 558.88 889.12 569.33 899.25 559.25 C 909.37 549.16 897.99 535.45 886.77 531.23 C 875.55 527.01 867.64 512.20 874.31 500.31 C 880.97 488.41 897.65 488.60 908.00 492.00
C 896.57 485.63 879.68 488.42 872.92 499.92 C 866.17 511.43 874.29 527.37 885.25 531.75 C 896.22 536.12 909.21 549.41 897.22 559.22 C 885.24 569.04 874.35 552.91 868.00 546.00
C 867.90 551.47 869.71 556.39 869.00 562.00
C 880.89 568.51 895.44 570.68 906.75 561.75 C 918.06 552.83 914.70 535.95 906.75 527.25 C 898.80 518.55 880.15 516.73 883.08 502.08 C 886.00 487.42 909.14 495.98 910.00 508.00
C 911.09 504.81 912.24 493.63 909.00 491.00 Z"/>
</g>
<g fill="#ECC301" fill-opacity="1.00" stroke="None">
<path d="
M 300.00 564.00 
C 303.61 561.17 304.13 548.38 311.75 543.75 C 319.37 539.12 318.49 525.69 320.07 518.07 C 321.65 510.45 323.75 497.17 323.00 490.00
C 320.97 498.82 320.34 510.23 318.98 518.98 C 317.61 527.73 317.52 536.45 310.75 542.75 C 303.98 549.06 302.13 555.51 300.00 564.00 Z"/>
</g>
<g fill="#B07000" fill-opacity="1.00" stroke="None">
<path d="
M 441.00 546.00 
C 441.17 546.33 441.76 546.74 442.00 547.00
C 448.18 553.69 435.27 564.81 428.00 563.00 C 420.73 561.19 413.64 555.72 410.00 549.00
C 405.16 570.87 442.26 571.74 450.75 555.75 C 459.25 539.77 442.88 518.93 427.00 518.00
C 424.50 512.62 419.37 507.38 421.93 500.93 C 424.49 494.47 432.58 491.50 436.00 494.00
C 435.88 493.97 437.88 494.96 438.00 495.00
C 441.63 494.89 447.83 498.50 447.00 503.00
C 447.21 503.30 447.90 503.74 448.00 504.00
C 452.12 505.10 447.31 496.26 449.00 493.00
C 437.90 488.08 425.27 488.78 416.25 497.25 C 407.23 505.72 413.22 521.29 419.77 527.23 C 426.32 533.17 443.37 536.88 441.00 546.00 Z"/>
</g>
<g fill="#AE7000" fill-opacity="1.00" stroke="None">
<path d="
M 626.00 567.00 
C 626.78 567.24 626.74 567.84 628.00 568.00
C 638.00 567.01 646.61 563.15 655.25 558.25 C 663.89 553.35 665.14 541.82 670.00 538.00
C 670.26 537.23 670.80 537.21 671.00 536.00
C 669.78 523.70 670.38 509.69 660.75 500.25 C 651.13 490.81 638.61 488.10 626.02 491.02 C 613.44 493.95 607.52 500.23 601.31 511.31 C 595.09 522.38 596.91 537.35 601.25 548.75 C 605.58 560.16 621.12 561.62 626.00 567.00
M 656.00 537.00 
C 655.89 537.41 655.16 538.17 655.00 539.00
C 655.69 545.60 652.55 553.19 646.92 557.92 C 641.28 562.65 630.70 565.77 624.31 560.69 C 617.91 555.62 615.08 551.12 612.22 543.78 C 609.36 536.43 609.45 526.40 610.78 518.78 C 612.10 511.16 614.78 504.00 620.25 498.25 C 625.71 492.50 635.37 491.77 641.69 495.31 C 648.02 498.84 652.60 506.26 654.77 512.23 C 656.94 518.20 659.35 534.44 656.00 537.00 Z"/>
</g>
<g fill="#AE7000" fill-opacity="1.00" stroke="None">
<path d="
M 730.00 490.00 
C 699.53 485.05 677.42 515.19 686.23 542.77 C 695.04 570.35 732.44 573.34 749.23 553.23 C 766.02 533.12 757.76 494.51 730.00 490.00
M 725.00 493.00 
C 741.37 496.39 744.36 518.10 745.00 532.00 C 745.64 545.90 733.70 567.48 717.00 563.00 C 700.30 558.52 697.53 538.04 697.33 524.33 C 697.13 510.62 708.26 489.53 725.00 493.00 Z"/>
</g>
<g fill="#EABF01" fill-opacity="1.00" stroke="None">
<path d="
M 791.00 491.00 
C 793.91 498.81 800.22 508.50 802.31 516.69 C 804.39 524.89 806.10 524.45 807.78 530.22 C 809.45 535.99 812.41 540.80 813.00 540.00
C 810.46 534.84 808.93 527.67 806.31 522.69 C 803.68 517.72 802.21 509.98 799.31 505.69 C 796.40 501.41 796.46 492.07 792.00 490.00
C 792.00 490.00 791.23 490.95 791.00 491.00 Z"/>
</g>
<g fill="#AE6F00" fill-opacity="1.00" stroke="None">
<path d="
M 909.00 491.00 
C 908.88 490.90 908.26 491.76 908.00 492.00
C 897.65 488.60 880.97 488.41 874.31 500.31 C 867.64 512.20 875.55 527.01 886.77 531.23 C 897.99 535.45 909.37 549.16 899.25 559.25 C 889.12 569.33 874.35 558.88 870.00 549.00
C 870.00 553.00 870.00 557.00 870.00 561.00
C 881.23 567.56 896.38 568.88 906.75 559.75 C 917.12 550.62 913.07 534.62 904.25 526.75 C 895.43 518.88 879.80 516.41 881.68 502.68 C 883.55 488.95 905.51 491.41 909.00 503.00
C 908.13 499.28 910.17 494.63 909.00 491.00 Z"/>
</g>
<g fill="#AF7100" fill-opacity="1.00" stroke="None">
<path d="
M 545.00 491.00 
C 541.09 491.00 535.77 491.96 532.00 491.00
C 531.02 493.46 533.84 500.90 533.00 507.00 C 532.16 513.10 533.43 520.61 533.00 527.00 C 532.57 533.39 533.34 541.65 533.00 548.00 C 532.66 554.35 534.51 560.17 530.00 565.00
C 536.00 565.00 542.00 565.00 548.00 565.00
C 543.17 555.41 548.23 543.09 545.00 533.00
C 554.67 531.14 558.58 543.06 563.08 550.92 C 567.58 558.78 573.53 569.62 586.00 565.00
C 576.07 555.06 572.51 541.02 563.00 531.00
C 573.11 526.42 583.84 515.37 577.92 503.08 C 572.00 490.79 556.97 491.00 545.00 491.00
M 548.00 528.00 
C 545.70 526.82 547.03 528.32 547.00 526.00
C 546.22 521.48 545.09 514.12 546.00 509.00 C 546.91 503.89 543.79 495.90 546.00 496.00
C 547.33 496.06 548.67 495.94 550.00 496.00
C 549.24 495.71 547.53 494.83 547.00 494.00
C 571.96 490.94 573.18 534.22 548.00 528.00 Z"/>
</g>
<g fill="#B07100" fill-opacity="1.00" stroke="None">
<path d="
M 777.00 494.00 
C 778.43 498.44 775.17 507.46 776.00 506.00
C 775.83 506.97 775.09 508.42 775.00 510.00
C 775.85 527.53 776.82 548.29 771.00 565.00
C 774.67 565.00 778.33 565.00 782.00 565.00
C 778.94 562.57 780.10 556.09 780.00 553.00 C 779.90 549.91 779.56 540.61 781.00 544.00
C 781.17 543.03 781.91 541.58 782.00 540.00
C 781.79 535.65 782.26 526.31 782.00 527.00
C 782.16 525.57 782.94 523.12 783.00 521.00
C 782.77 517.65 780.53 512.36 783.00 509.00
C 783.22 508.70 783.70 508.21 784.00 508.00
C 785.96 506.63 790.73 519.16 791.98 523.03 C 793.22 526.89 799.01 536.97 798.00 541.00
C 798.17 541.33 798.74 541.75 799.00 542.00
C 804.84 547.59 805.49 558.05 809.00 565.00
C 812.47 561.17 814.43 555.52 816.77 550.77 C 819.11 546.02 821.49 540.37 823.77 535.77 C 826.06 531.17 827.94 524.39 830.31 520.31 C 832.67 516.22 834.50 506.61 837.00 509.00
C 837.00 509.00 837.00 509.50 837.00 510.00
C 838.44 510.06 837.74 508.08 839.00 508.00
C 837.30 526.40 842.27 547.06 839.00 565.00
C 845.00 565.00 851.00 565.00 857.00 565.00
C 850.52 554.54 852.85 539.29 851.99 527.01 C 851.14 514.73 847.38 502.02 853.00 491.00
C 846.70 490.79 835.44 489.27 833.98 495.98 C 832.51 502.68 828.98 506.76 827.32 512.32 C 825.67 517.88 822.24 524.43 820.92 528.92 C 819.61 533.42 815.00 543.74 814.00 541.00
C 813.87 540.65 813.13 540.27 813.00 540.00
C 812.41 540.80 809.45 535.99 807.78 530.22 C 806.10 524.45 804.39 524.89 802.31 516.69 C 800.22 508.50 793.91 498.81 791.00 491.00
C 786.68 490.57 782.89 491.93 779.00 491.00
C 777.51 493.93 781.40 493.21 777.00 494.00 Z"/>
</g>
<g fill="#EFC102" fill-opacity="1.00" stroke="None">
<path d="
M 391.00 518.00 
C 387.81 509.89 387.51 500.33 385.00 492.00
C 383.30 496.94 388.14 515.75 391.00 518.00 Z"/>
</g>
<g fill="#EBC001" fill-opacity="1.00" stroke="None">
<path d="
M 442.00 547.00 
C 444.49 557.74 432.87 563.12 424.22 560.78 C 415.58 558.43 414.07 550.81 409.00 545.00
C 409.00 550.67 409.00 556.33 409.00 562.00
C 418.95 567.75 432.07 570.18 442.77 564.77 C 453.47 559.36 457.04 545.10 451.97 535.03 C 446.90 524.96 438.83 520.58 428.70 515.30 C 418.57 510.03 422.04 490.85 436.00 494.00
C 432.58 491.50 424.49 494.47 421.93 500.93 C 419.37 507.38 424.50 512.62 427.00 518.00
C 442.88 518.93 459.25 539.77 450.75 555.75 C 442.26 571.74 405.16 570.87 410.00 549.00
C 413.64 555.72 420.73 561.19 428.00 563.00 C 435.27 564.81 448.18 553.69 442.00 547.00 Z"/>
</g>
<g fill="#ECC301" fill-opacity="1.00" stroke="None">
<path d="
M 655.00 539.00 
C 652.42 552.65 640.44 568.12 625.31 559.69 C 610.17 551.27 612.20 532.82 611.98 518.98 C 611.76 505.13 628.29 488.17 641.07 495.93 C 653.85 503.68 659.45 523.60 656.00 537.00
C 659.35 534.44 656.94 518.20 654.77 512.23 C 652.60 506.26 648.02 498.84 641.69 495.31 C 635.37 491.77 625.71 492.50 620.25 498.25 C 614.78 504.00 612.10 511.16 610.78 518.78 C 609.45 526.40 609.36 536.43 612.22 543.78 C 615.08 551.12 617.91 555.62 624.31 560.69 C 630.70 565.77 641.28 562.65 646.92 557.92 C 652.55 553.19 655.69 545.60 655.00 539.00 Z"/>
</g>
<g fill="#ECC201" fill-opacity="1.00" stroke="None">
<path d="
M 725.00 493.00 
C 708.26 489.53 697.13 510.62 697.33 524.33 C 697.53 538.04 700.30 558.52 717.00 563.00 C 733.70 567.48 745.64 545.90 745.00 532.00 C 744.36 518.10 741.37 496.39 725.00 493.00
M 724.00 494.00 
C 738.91 496.12 743.39 517.52 744.00 530.00 C 744.61 542.48 735.38 564.91 719.00 562.00 C 702.62 559.09 699.30 539.47 699.00 526.00 C 698.70 512.53 707.09 491.60 724.00 494.00 Z"/>
</g>
<g fill="#E6C201" fill-opacity="1.00" stroke="None">
<path d="
M 438.00 495.00 
C 442.52 496.69 444.33 499.20 447.00 503.00
C 447.83 498.50 441.63 494.89 438.00 495.00 Z"/>
</g>
<g fill="#E8C001" fill-opacity="1.00" stroke="None">
<path d="
M 550.00 496.00 
C 572.57 496.97 568.63 533.03 548.00 528.00
C 573.18 534.22 571.96 490.94 547.00 494.00
C 547.53 494.83 549.24 495.71 550.00 496.00 Z"/>
</g>
<g fill="#000000" fill-opacity="1.00" stroke="None">
<path d="
M 655.00 539.00 
C 655.16 538.17 655.89 537.41 656.00 537.00
C 659.45 523.60 653.85 503.68 641.07 495.93 C 628.29 488.17 611.76 505.13 611.98 518.98 C 612.20 532.82 610.17 551.27 625.31 559.69 C 640.44 568.12 652.42 552.65 655.00 539.00 Z"/>
</g>
<g fill="#000000" fill-opacity="1.00" stroke="None">
<path d="
M 724.00 494.00 
C 707.09 491.60 698.70 512.53 699.00 526.00 C 699.30 539.47 702.62 559.09 719.00 562.00 C 735.38 564.91 744.61 542.48 744.00 530.00 C 743.39 517.52 738.91 496.12 724.00 494.00 Z"/>
</g>
<g fill="#FDDA00" fill-opacity="1.00" stroke="None">
<path d="
M 776.00 495.00 
C 775.48 498.58 776.62 502.44 776.00 506.00
C 775.17 507.46 778.43 498.44 777.00 494.00
C 776.65 494.06 776.05 494.65 776.00 495.00 Z"/>
</g>
<g fill="#F7D602" fill-opacity="1.00" stroke="None">
<path d="
M 547.00 526.00 
C 546.88 517.56 549.71 503.47 546.00 496.00
C 543.79 495.90 546.91 503.89 546.00 509.00 C 545.09 514.12 546.22 521.48 547.00 526.00 Z"/>
</g>
<g fill="#000000" fill-opacity="1.00" stroke="None">
<path d="
M 547.00 526.00 
C 547.03 528.32 545.70 526.82 548.00 528.00
C 568.63 533.03 572.57 496.97 550.00 496.00
C 548.67 495.94 547.33 496.06 546.00 496.00
C 549.71 503.47 546.88 517.56 547.00 526.00 Z"/>
</g>
<g fill="#725101" fill-opacity="1.00" stroke="None">
<path d="
M 238.00 517.00 
C 243.96 511.91 249.86 506.01 255.00 500.00
C 249.46 505.54 243.59 511.42 238.00 517.00 Z"/>
</g>
<g fill="#E3B702" fill-opacity="1.00" stroke="None">
<path d="
M 784.00 508.00 
C 788.24 511.75 788.19 520.11 791.22 524.78 C 794.25 529.44 795.40 536.02 798.00 541.00
C 799.01 536.97 793.22 526.89 791.98 523.03 C 790.73 519.16 785.96 506.63 784.00 508.00 Z"/>
</g>
<g fill="#E5BB01" fill-opacity="1.00" stroke="None">
<path d="
M 799.00 542.00 
C 802.61 550.11 804.34 561.59 811.00 567.00
C 821.46 549.13 825.21 525.85 837.00 509.00
C 834.50 506.61 832.67 516.22 830.31 520.31 C 827.94 524.39 826.06 531.17 823.77 535.77 C 821.49 540.37 819.11 546.02 816.77 550.77 C 814.43 555.52 812.47 561.17 809.00 565.00
C 805.49 558.05 804.84 547.59 799.00 542.00 Z"/>
</g>
<g fill="#FED802" fill-opacity="1.00" stroke="None">
<path d="
M 783.00 521.00 
C 783.11 517.10 782.44 512.86 783.00 509.00
C 780.53 512.36 782.77 517.65 783.00 521.00 Z"/>
</g>
<g fill="#F3C801" fill-opacity="1.00" stroke="None">
<path d="
M 768.00 565.00 
C 773.09 567.27 780.16 565.38 786.00 566.00
C 779.39 562.25 779.76 551.09 781.00 544.00
C 779.56 540.61 779.90 549.91 780.00 553.00 C 780.10 556.09 778.94 562.57 782.00 565.00
C 778.33 565.00 774.67 565.00 771.00 565.00
C 776.82 548.29 775.85 527.53 775.00 510.00
C 774.45 519.50 774.18 530.70 774.00 540.00 C 773.82 549.30 771.74 547.37 773.00 555.00 C 774.26 562.63 769.57 560.59 768.00 565.00 Z"/>
</g>
<g fill="#B17200" fill-opacity="1.00" stroke="None">
<path d="
M 376.00 521.00 
C 378.88 531.46 373.27 544.40 372.00 554.00
C 372.30 555.29 372.25 555.12 373.00 556.00
C 377.37 561.09 373.96 570.47 377.00 576.00
C 375.88 571.64 376.50 547.22 384.74 552.26 C 392.99 557.29 388.26 571.55 399.00 575.00
C 403.78 577.18 403.39 573.84 409.00 576.00
C 412.23 576.46 416.14 576.28 419.00 575.00
C 411.07 569.53 397.57 561.88 400.00 551.00
C 399.89 550.65 399.25 550.25 399.00 550.00
C 396.43 547.48 395.88 540.70 395.02 536.98 C 394.17 533.26 391.38 527.37 391.00 524.00
C 388.04 523.62 390.55 525.80 389.00 527.00
C 387.56 523.49 385.27 527.92 383.00 526.00
C 384.72 521.82 383.83 519.81 379.00 520.00
C 378.83 517.35 383.32 519.16 382.00 515.00
C 378.75 517.02 376.62 517.00 376.00 521.00 Z"/>
</g>
<g fill="#EBBA01" fill-opacity="1.00" stroke="None">
<path d="
M 391.00 524.00 
C 391.38 527.37 394.17 533.26 395.02 536.98 C 395.88 540.70 396.43 547.48 399.00 550.00
C 397.30 539.69 393.91 530.14 392.00 520.00
C 391.98 520.75 390.82 522.42 391.00 524.00 Z"/>
</g>
<g fill="#FBD401" fill-opacity="1.00" stroke="None">
<path d="
M 782.00 540.00 
C 782.25 535.71 781.51 531.27 782.00 527.00
C 782.26 526.31 781.79 535.65 782.00 540.00 Z"/>
</g>
<g fill="#E1A501" fill-opacity="1.00" stroke="None">
<path d="
M 483.00 561.00 
C 487.65 558.69 483.74 551.10 484.40 547.75 C 485.06 544.40 485.04 538.68 484.00 535.00
C 484.00 535.00 483.06 535.16 483.00 535.00
C 482.25 543.32 484.81 552.87 483.00 561.00 Z"/>
</g>
<g fill="#E8C201" fill-opacity="1.00" stroke="None">
<path d="
M 628.00 568.00 
C 648.64 570.54 664.03 555.55 670.00 538.00
C 665.14 541.82 663.89 553.35 655.25 558.25 C 646.61 563.15 638.00 567.01 628.00 568.00 Z"/>
</g>
<g fill="#B47400" fill-opacity="1.00" stroke="None">
<path d="
M 251.00 581.00 
C 260.19 591.56 263.68 604.05 275.25 613.75 C 286.82 623.45 310.96 619.69 325.00 619.00
C 296.28 607.82 283.68 574.78 266.00 551.00
C 263.12 551.79 263.82 554.21 263.00 556.00
C 265.00 558.04 267.06 554.95 269.00 557.00
C 267.03 559.62 263.52 557.71 268.00 561.00
C 265.53 561.19 264.49 563.61 262.00 562.00
C 262.75 563.80 262.88 565.28 262.00 567.00
C 264.60 568.51 265.56 566.30 268.00 566.00
C 268.81 569.48 270.84 569.29 268.00 573.00
C 270.10 571.50 271.82 573.12 274.00 572.00
C 274.66 577.69 264.92 577.38 265.00 582.00
C 267.34 585.70 271.95 579.45 274.00 585.00
C 271.81 585.66 269.60 586.95 268.00 587.00
C 265.73 584.90 262.17 582.31 260.00 585.00
C 259.28 580.66 260.49 579.76 263.00 578.00
C 254.41 574.33 262.57 589.27 255.00 586.00
C 257.10 584.46 256.59 582.76 257.00 580.00
C 254.30 582.20 253.92 583.00 251.00 581.00 Z"/>
</g>
<g fill="#EEC302" fill-opacity="1.00" stroke="None">
<path d="
M 373.00 556.00 
C 374.93 563.69 373.15 565.63 375.01 573.99 C 376.86 582.35 380.44 570.57 378.00 567.00 C 375.56 563.43 379.35 551.19 382.75 552.25 C 386.15 553.31 387.43 561.90 389.70 565.31 C 391.96 568.71 394.75 573.88 399.00 576.00
C 398.75 575.72 399.00 575.00 399.00 575.00
C 388.26 571.55 392.99 557.29 384.74 552.26 C 376.50 547.22 375.88 571.64 377.00 576.00
C 373.96 570.47 377.37 561.09 373.00 556.00 Z"/>
</g>
<g fill="#EEC701" fill-opacity="1.00" stroke="None">
<path d="
M 409.00 576.00 
C 409.72 576.28 409.83 576.86 411.00 577.00
C 414.42 577.09 417.92 577.18 421.00 576.00
C 411.90 569.61 403.61 562.51 400.00 551.00
C 397.57 561.88 411.07 569.53 419.00 575.00
C 416.14 576.28 412.23 576.46 409.00 576.00 Z"/>
</g>
<g fill="#C89803" fill-opacity="1.00" stroke="None">
<path d="
M 208.00 596.00 
C 208.00 588.93 207.27 580.99 208.00 574.00 C 208.73 567.02 206.06 558.67 208.00 552.00
C 205.20 558.12 207.82 566.92 207.00 574.00 C 206.18 581.08 207.38 589.59 208.00 596.00 Z"/>
</g>
<g fill="#ECC001" fill-opacity="1.00" stroke="None">
<path d="
M 299.00 566.00 
C 297.71 572.81 294.70 582.17 300.02 577.02 C 305.35 571.88 302.20 562.23 308.97 561.03 C 315.75 559.83 313.61 577.71 314.00 581.00
C 315.85 576.09 315.89 557.96 307.70 560.70 C 299.50 563.43 302.17 574.19 297.00 579.00
C 297.61 575.16 299.22 569.96 299.00 566.00 Z"/>
</g>
<g fill="#906803" fill-opacity="1.00" stroke="None">
<path d="
M 528.00 567.00 
C 531.14 568.80 538.43 566.22 542.00 567.00 C 545.57 567.78 551.65 567.80 551.00 565.00
C 544.48 567.96 534.59 564.05 528.00 567.00 Z"/>
</g>
<g fill="#936803" fill-opacity="1.00" stroke="None">
<path d="
M 786.00 566.00 
C 780.16 565.38 773.09 567.27 768.00 565.00
C 766.98 567.88 783.34 567.81 786.00 566.00 Z"/>
</g>
<g fill="#8E6401" fill-opacity="1.00" stroke="None">
<path d="
M 479.00 567.00 
C 484.62 570.23 497.57 565.41 503.00 566.00
C 495.16 566.64 486.09 564.70 479.00 567.00 Z"/>
</g>
<g fill="#9C6C02" fill-opacity="1.00" stroke="None">
<path d="
M 590.00 566.00 
C 587.32 567.31 578.01 566.51 575.00 566.00
C 577.95 566.90 587.27 568.73 590.00 566.00 Z"/>
</g>
<g fill="#886103" fill-opacity="1.00" stroke="None">
<path d="
M 837.00 567.00 
C 840.63 568.29 847.11 567.00 851.00 567.00
C 848.04 566.71 839.44 567.56 837.00 567.00 Z"/>
</g>
<g fill="#D19B02" fill-opacity="1.00" stroke="None">
<path d="
M 399.00 575.00 
C 399.00 575.00 398.75 575.72 399.00 576.00
C 403.41 578.20 406.46 577.44 411.00 577.00
C 409.83 576.86 409.72 576.28 409.00 576.00
C 403.39 573.84 403.78 577.18 399.00 575.00 Z"/>
</g>
<g fill="#F3CD02" fill-opacity="1.00" stroke="None">
<path d="
M 315.00 583.00 
C 317.90 588.85 321.33 588.23 327.00 590.00
C 326.08 588.83 316.42 584.33 315.00 583.00 Z"/>
</g>
</svg>